G04 #@! TF.GenerationSoftware,KiCad,Pcbnew,(5.1.5)-3*
G04 #@! TF.CreationDate,2020-01-04T01:11:27+07:00*
G04 #@! TF.ProjectId,main,6d61696e-2e6b-4696-9361-645f70636258,1.2*
G04 #@! TF.SameCoordinates,Original*
G04 #@! TF.FileFunction,Soldermask,Bot*
G04 #@! TF.FilePolarity,Negative*
%FSLAX46Y46*%
G04 Gerber Fmt 4.6, Leading zero omitted, Abs format (unit mm)*
G04 Created by KiCad (PCBNEW (5.1.5)-3) date 2020-01-04 01:11:27*
%MOMM*%
%LPD*%
G04 APERTURE LIST*
%ADD10O,1.700000X1.700000*%
%ADD11R,1.700000X1.700000*%
%ADD12C,1.000000*%
%ADD13O,1.200000X1.900000*%
%ADD14C,1.450000*%
%ADD15C,4.500000*%
G04 APERTURE END LIST*
D10*
X115824000Y-86868000D03*
X115824000Y-89408000D03*
X115824000Y-91948000D03*
X115824000Y-94488000D03*
X115824000Y-97028000D03*
X115824000Y-99568000D03*
X115824000Y-102108000D03*
X115824000Y-104648000D03*
X115824000Y-107188000D03*
D11*
X115824000Y-109728000D03*
D10*
X118364000Y-109738000D03*
X118364000Y-107198000D03*
X118364000Y-104658000D03*
X118364000Y-102118000D03*
X118364000Y-99578000D03*
X118364000Y-97038000D03*
X118364000Y-94498000D03*
X118364000Y-91958000D03*
X118364000Y-89418000D03*
D11*
X118364000Y-86878000D03*
D10*
X151384000Y-127348000D03*
X148844000Y-127348000D03*
X146304000Y-127348000D03*
X143764000Y-127348000D03*
X141224000Y-127348000D03*
X138684000Y-127348000D03*
X136144000Y-127348000D03*
X133604000Y-127348000D03*
X131064000Y-127348000D03*
D11*
X128524000Y-127348000D03*
D10*
X160274000Y-86868000D03*
X160274000Y-89408000D03*
X160274000Y-91948000D03*
X160274000Y-94488000D03*
X160274000Y-97028000D03*
X160274000Y-99568000D03*
X160274000Y-102108000D03*
X160274000Y-104648000D03*
X160274000Y-107188000D03*
D11*
X160274000Y-109728000D03*
D10*
X162814000Y-86868000D03*
X162814000Y-89408000D03*
X162814000Y-91948000D03*
X162814000Y-94488000D03*
X162814000Y-97028000D03*
X162814000Y-99568000D03*
X162814000Y-102108000D03*
X162814000Y-104648000D03*
X162814000Y-107188000D03*
D11*
X162814000Y-109728000D03*
D10*
X128524000Y-66708000D03*
X131064000Y-66708000D03*
X133604000Y-66708000D03*
X136144000Y-66708000D03*
X138684000Y-66708000D03*
X141224000Y-66708000D03*
X143764000Y-66708000D03*
X146304000Y-66708000D03*
X148844000Y-66708000D03*
D11*
X151384000Y-66708000D03*
D10*
X128524000Y-69248000D03*
X131064000Y-69248000D03*
X133604000Y-69248000D03*
X136144000Y-69248000D03*
X138684000Y-69248000D03*
X141224000Y-69248000D03*
X143764000Y-69248000D03*
X146304000Y-69248000D03*
X148844000Y-69248000D03*
D11*
X151384000Y-69248000D03*
D12*
X154336000Y-113972000D03*
X154336000Y-115623000D03*
D13*
X117262000Y-60357500D03*
X124262000Y-60357500D03*
D14*
X118262000Y-63057500D03*
X123262000Y-63057500D03*
D15*
X113792000Y-131318000D03*
X113792000Y-62738000D03*
X164592000Y-62738000D03*
X164592000Y-131318000D03*
M02*
