M48
; DRILL file {KiCad (5.1.5)-3} date 04/01/2020 01:11:24
; FORMAT={-:-/ absolute / inch / decimal}
; #@! TF.CreationDate,2020-01-04T01:11:24+07:00
; #@! TF.GenerationSoftware,Kicad,Pcbnew,(5.1.5)-3
FMAT,2
INCH
T1C0.0118
T2C0.0197
T3C0.0236
T4C0.0335
T5C0.0394
T6C0.1063
%
G90
G05
T1
X4.4Y-2.6
X4.4Y-2.7
X4.4Y-2.8
X4.4Y-2.9
X4.4Y-3.0
X4.5Y-2.6
X4.5Y-2.7
X4.55Y-3.2
X4.55Y-4.5
X4.55Y-4.6
X4.55Y-4.7
X4.55Y-4.8
X4.55Y-4.9
X4.6Y-2.55
X4.6Y-2.65
X4.6Y-2.75
X4.65Y-3.15
X4.65Y-3.3
X4.65Y-4.5
X4.65Y-4.6
X4.65Y-4.7
X4.65Y-4.8
X4.7Y-5.0
X4.7Y-5.25
X4.704Y-2.627
X4.749Y-4.43
X4.75Y-3.25
X4.75Y-5.1
X4.753Y-2.636
X4.7685Y-2.5925
X4.8Y-4.65
X4.8Y-4.75
X4.8Y-5.0
X4.8465Y-3.815
X4.849Y-3.669
X4.85Y-3.15
X4.85Y-3.25
X4.85Y-4.65
X4.85Y-4.75
X4.85Y-5.1
X4.8504Y-4.0236
X4.874Y-4.2402
X4.9Y-3.65
X4.9Y-5.0
X4.9Y-5.25
X4.9378Y-2.911
X4.9449Y-3.9291
X4.95Y-2.95
X4.95Y-3.05
X4.95Y-3.15
X4.95Y-3.25
X4.95Y-3.5
X4.95Y-5.1
X4.9961Y-3.7677
X5.0Y-3.55
X5.0106Y-4.026
X5.0157Y-4.2677
X5.0339Y-3.921
X5.05Y-3.05
X5.05Y-3.15
X5.05Y-3.25
X5.05Y-3.5
X5.0638Y-4.2196
X5.0805Y-4.0148
X5.1Y-3.85
X5.1Y-4.75
X5.1Y-5.25
X5.1096Y-3.0224
X5.1206Y-4.2798
X5.1241Y-2.4179
X5.15Y-3.9
X5.205Y-4.635
X5.2138Y-4.3548
X5.2161Y-2.419
X5.2265Y-3.755
X5.235Y-4.0475
X5.2467Y-4.4163
X5.25Y-3.1
X5.25Y-3.25
X5.25Y-4.0
X5.25Y-4.5
X5.256Y-2.904
X5.262Y-4.0697
X5.2635Y-3.6845
X5.2804Y-2.419
X5.2837Y-4.0947
X5.2843Y-4.2901
X5.2856Y-4.3773
X5.296Y-2.571
X5.3Y-4.45
X5.3Y-4.6
X5.3Y-5.25
X5.3127Y-4.1105
X5.3275Y-3.882
X5.3281Y-4.3349
X5.3309Y-4.217
X5.3345Y-2.4236
X5.3382Y-3.3565
X5.3385Y-3.4918
X5.35Y-4.4
X5.35Y-4.55
X5.3522Y-4.2607
X5.3735Y-3.779
X5.374Y-3.865
X5.386Y-3.9555
X5.39Y-2.934
X5.4Y-4.2
X5.4Y-4.35
X5.4Y-4.9
X5.4025Y-3.923
X5.4155Y-3.86
X5.42Y-3.982
X5.4289Y-3.7226
X5.4299Y-2.4248
X5.4455Y-3.8315
X5.45Y-4.25
X5.45Y-4.3
X5.45Y-4.45
X5.4525Y-4.0106
X5.4626Y-3.9118
X5.4635Y-3.678
X5.472Y-4.175
X5.477Y-4.035
X5.4836Y-3.9608
X5.4895Y-3.8828
X5.5Y-2.95
X5.5Y-3.05
X5.5Y-3.15
X5.5Y-4.4
X5.5Y-5.25
X5.5015Y-4.0622
X5.5095Y-3.2935
X5.5159Y-3.8175
X5.52Y-3.9339
X5.531Y-2.4225
X5.548Y-4.0175
X5.55Y-4.35
X5.553Y-3.741
X5.56Y-2.89
X5.565Y-3.9645
X5.5728Y-3.8545
X5.5729Y-3.8056
X5.598Y-3.985
X5.6003Y-3.7552
X5.608Y-2.4523
X5.6308Y-3.9375
X5.631Y-2.4179
X5.633Y-3.771
X5.639Y-4.2145
X5.641Y-4.174
X5.6487Y-3.86
X5.65Y-2.95
X5.65Y-3.05
X5.65Y-3.9
X5.65Y-4.55
X5.65Y-4.65
X5.654Y-4.4715
X5.661Y-4.136
X5.673Y-3.1875
X5.6747Y-2.4581
X5.6771Y-3.838
X5.699Y-4.096
X5.7Y-5.25
X5.7184Y-2.411
X5.73Y-4.66
X5.731Y-3.399
X5.765Y-3.541
X5.7678Y-2.4546
X5.7925Y-2.4158
X5.8Y-4.85
X5.845Y-4.6092
X5.85Y-3.903
X5.859Y-3.521
X5.9Y-3.1
X5.9Y-3.15
X5.9Y-5.15
X5.9Y-5.25
X5.95Y-4.05
X5.95Y-4.15
X5.95Y-4.25
X5.95Y-4.65
X5.95Y-4.75
X5.9739Y-3.677
X6.0Y-3.15
X6.05Y-4.65
X6.05Y-4.75
X6.05Y-4.85
X6.0829Y-2.3788
X6.1Y-3.15
X6.1Y-4.05
X6.1Y-4.15
X6.1Y-4.25
X6.1Y-5.15
X6.1Y-5.25
X6.1657Y-2.3719
X6.2Y-2.85
X6.2Y-3.15
X6.2245Y-4.2475
X6.3Y-2.8
X6.3Y-5.15
X6.3Y-5.25
X6.35Y-4.65
X6.35Y-4.75
X6.4Y-2.8
X6.45Y-4.65
X6.45Y-4.75
X6.4926Y-2.8298
X6.5091Y-2.5829
X6.52Y-4.85
X6.52Y-4.93
X6.52Y-5.01
X6.55Y-3.4
X6.55Y-3.5
X6.55Y-3.6
X6.55Y-3.7
X6.55Y-3.8
X6.5739Y-2.6133
X6.579Y-3.2983
T2
X6.0762Y-4.4871
X6.0762Y-4.5521
T4
X4.656Y-2.4826
X4.8528Y-2.4826
T5
X5.06Y-5.0137
X5.16Y-5.0137
X5.26Y-5.0137
X5.36Y-5.0137
X5.46Y-5.0137
X5.56Y-5.0137
X5.66Y-5.0137
X5.76Y-5.0137
X5.86Y-5.0137
X5.96Y-5.0137
X4.56Y-3.42
X4.56Y-3.52
X4.56Y-3.62
X4.56Y-3.72
X4.56Y-3.82
X4.56Y-3.92
X4.56Y-4.02
X4.56Y-4.12
X4.56Y-4.22
X4.56Y-4.32
X4.66Y-3.4204
X4.66Y-3.5204
X4.66Y-3.6204
X4.66Y-3.7204
X4.66Y-3.8204
X4.66Y-3.9204
X4.66Y-4.0204
X4.66Y-4.1204
X4.66Y-4.2204
X4.66Y-4.3204
X5.06Y-2.6263
X5.16Y-2.6263
X5.26Y-2.6263
X5.36Y-2.6263
X5.46Y-2.6263
X5.56Y-2.6263
X5.66Y-2.6263
X5.76Y-2.6263
X5.86Y-2.6263
X5.96Y-2.6263
X5.06Y-2.7263
X5.16Y-2.7263
X5.26Y-2.7263
X5.36Y-2.7263
X5.46Y-2.7263
X5.56Y-2.7263
X5.66Y-2.7263
X5.76Y-2.7263
X5.86Y-2.7263
X5.96Y-2.7263
X6.31Y-3.42
X6.31Y-3.52
X6.31Y-3.62
X6.31Y-3.72
X6.31Y-3.82
X6.31Y-3.92
X6.31Y-4.02
X6.31Y-4.12
X6.31Y-4.22
X6.31Y-4.32
X6.41Y-3.42
X6.41Y-3.52
X6.41Y-3.62
X6.41Y-3.72
X6.41Y-3.82
X6.41Y-3.92
X6.41Y-4.02
X6.41Y-4.12
X6.41Y-4.22
X6.41Y-4.32
T6
X6.48Y-5.17
X4.48Y-2.47
X4.48Y-5.17
X6.48Y-2.47
T3
G00X4.6166Y-2.3901
M15
G01X4.6166Y-2.3625
M16
G05
G00X4.8922Y-2.3625
M15
G01X4.8922Y-2.3901
M16
G05
T0
M30
