%FSLAX45Y45*%
G04 Gerber Fmt 4.5, Leading zero omitted, Abs format (unit mm)*
G04 Created by KiCad (PCBNEW (5.1.5)-3) date 2020-01-04 01:11:24*
%MOMM*%
%LPD*%
G04 APERTURE LIST*
%TA.AperFunction,Profile*%
%ADD10C,0.100000*%
%TD*%
%ADD11C,0.200000*%
%ADD12C,0.300000*%
G04 APERTURE END LIST*
D10*
X10998200Y-6273800D02*
G75*
G02X11379200Y-5892800I381000J0D01*
G01*
X11379200Y-13512800D02*
X16459200Y-13512800D01*
X10998200Y-6273800D02*
X10998200Y-13131800D01*
X16459200Y-5892800D02*
X11379200Y-5892800D01*
X16840200Y-13131800D02*
X16840200Y-6273800D01*
X16459200Y-5892800D02*
G75*
G02X16840200Y-6273800I0J-381000D01*
G01*
X11379200Y-13512800D02*
G75*
G02X10998200Y-13131800I0J381000D01*
G01*
X16840200Y-13131800D02*
G75*
G02X16459200Y-13512800I-381000J0D01*
G01*
D11*
X11161000Y-6589000D02*
X11191000Y-6619000D01*
X11191000Y-6589000D02*
X11161000Y-6619000D01*
X11161000Y-6843000D02*
X11191000Y-6873000D01*
X11191000Y-6843000D02*
X11161000Y-6873000D01*
X11161000Y-7097000D02*
X11191000Y-7127000D01*
X11191000Y-7097000D02*
X11161000Y-7127000D01*
X11161000Y-7351000D02*
X11191000Y-7381000D01*
X11191000Y-7351000D02*
X11161000Y-7381000D01*
X11161000Y-7605000D02*
X11191000Y-7635000D01*
X11191000Y-7605000D02*
X11161000Y-7635000D01*
X11415000Y-6589000D02*
X11445000Y-6619000D01*
X11445000Y-6589000D02*
X11415000Y-6619000D01*
X11415000Y-6843000D02*
X11445000Y-6873000D01*
X11445000Y-6843000D02*
X11415000Y-6873000D01*
X11542000Y-8113000D02*
X11572000Y-8143000D01*
X11572000Y-8113000D02*
X11542000Y-8143000D01*
X11542000Y-11415000D02*
X11572000Y-11445000D01*
X11572000Y-11415000D02*
X11542000Y-11445000D01*
X11542000Y-11669000D02*
X11572000Y-11699000D01*
X11572000Y-11669000D02*
X11542000Y-11699000D01*
X11542000Y-11923000D02*
X11572000Y-11953000D01*
X11572000Y-11923000D02*
X11542000Y-11953000D01*
X11542000Y-12177000D02*
X11572000Y-12207000D01*
X11572000Y-12177000D02*
X11542000Y-12207000D01*
X11542000Y-12431000D02*
X11572000Y-12461000D01*
X11572000Y-12431000D02*
X11542000Y-12461000D01*
X11669000Y-6462000D02*
X11699000Y-6492000D01*
X11699000Y-6462000D02*
X11669000Y-6492000D01*
X11669000Y-6716000D02*
X11699000Y-6746000D01*
X11699000Y-6716000D02*
X11669000Y-6746000D01*
X11669000Y-6970000D02*
X11699000Y-7000000D01*
X11699000Y-6970000D02*
X11669000Y-7000000D01*
X11796000Y-7986000D02*
X11826000Y-8016000D01*
X11826000Y-7986000D02*
X11796000Y-8016000D01*
X11796000Y-8367000D02*
X11826000Y-8397000D01*
X11826000Y-8367000D02*
X11796000Y-8397000D01*
X11796000Y-11415000D02*
X11826000Y-11445000D01*
X11826000Y-11415000D02*
X11796000Y-11445000D01*
X11796000Y-11669000D02*
X11826000Y-11699000D01*
X11826000Y-11669000D02*
X11796000Y-11699000D01*
X11796000Y-11923000D02*
X11826000Y-11953000D01*
X11826000Y-11923000D02*
X11796000Y-11953000D01*
X11796000Y-12177000D02*
X11826000Y-12207000D01*
X11826000Y-12177000D02*
X11796000Y-12207000D01*
X11923000Y-12685000D02*
X11953000Y-12715000D01*
X11953000Y-12685000D02*
X11923000Y-12715000D01*
X11923000Y-13320000D02*
X11953000Y-13350000D01*
X11953000Y-13320000D02*
X11923000Y-13350000D01*
X11933160Y-6657580D02*
X11963160Y-6687580D01*
X11963160Y-6657580D02*
X11933160Y-6687580D01*
X12047460Y-11237200D02*
X12077460Y-11267200D01*
X12077460Y-11237200D02*
X12047460Y-11267200D01*
X12050000Y-8240000D02*
X12080000Y-8270000D01*
X12080000Y-8240000D02*
X12050000Y-8270000D01*
X12050000Y-12939000D02*
X12080000Y-12969000D01*
X12080000Y-12939000D02*
X12050000Y-12969000D01*
X12057620Y-6680440D02*
X12087620Y-6710440D01*
X12087620Y-6680440D02*
X12057620Y-6710440D01*
X12096990Y-6569950D02*
X12126990Y-6599950D01*
X12126990Y-6569950D02*
X12096990Y-6599950D01*
X12177000Y-11796000D02*
X12207000Y-11826000D01*
X12207000Y-11796000D02*
X12177000Y-11826000D01*
X12177000Y-12050000D02*
X12207000Y-12080000D01*
X12207000Y-12050000D02*
X12177000Y-12080000D01*
X12177000Y-12685000D02*
X12207000Y-12715000D01*
X12207000Y-12685000D02*
X12177000Y-12715000D01*
X12295000Y-9675000D02*
X12325000Y-9705000D01*
X12325000Y-9675000D02*
X12295000Y-9705000D01*
X12301460Y-9304260D02*
X12331460Y-9334260D01*
X12331460Y-9304260D02*
X12301460Y-9334260D01*
X12304000Y-7986000D02*
X12334000Y-8016000D01*
X12334000Y-7986000D02*
X12304000Y-8016000D01*
X12304000Y-8240000D02*
X12334000Y-8270000D01*
X12334000Y-8240000D02*
X12304000Y-8270000D01*
X12304000Y-11796000D02*
X12334000Y-11826000D01*
X12334000Y-11796000D02*
X12304000Y-11826000D01*
X12304000Y-12050000D02*
X12334000Y-12080000D01*
X12334000Y-12050000D02*
X12304000Y-12080000D01*
X12304000Y-12939000D02*
X12334000Y-12969000D01*
X12334000Y-12939000D02*
X12304000Y-12969000D01*
X12305000Y-10205000D02*
X12335000Y-10235000D01*
X12335000Y-10205000D02*
X12305000Y-10235000D01*
X12365000Y-10755000D02*
X12395000Y-10785000D01*
X12395000Y-10755000D02*
X12365000Y-10785000D01*
X12431000Y-9256000D02*
X12461000Y-9286000D01*
X12461000Y-9256000D02*
X12431000Y-9286000D01*
X12431000Y-12685000D02*
X12461000Y-12715000D01*
X12461000Y-12685000D02*
X12431000Y-12715000D01*
X12431000Y-13320000D02*
X12461000Y-13350000D01*
X12461000Y-13320000D02*
X12431000Y-13350000D01*
X12527012Y-7378940D02*
X12557012Y-7408940D01*
X12557012Y-7378940D02*
X12527012Y-7408940D01*
X12545000Y-9965000D02*
X12575000Y-9995000D01*
X12575000Y-9965000D02*
X12545000Y-9995000D01*
X12558000Y-7478000D02*
X12588000Y-7508000D01*
X12588000Y-7478000D02*
X12558000Y-7508000D01*
X12558000Y-7732000D02*
X12588000Y-7762000D01*
X12588000Y-7732000D02*
X12558000Y-7762000D01*
X12558000Y-7986000D02*
X12588000Y-8016000D01*
X12588000Y-7986000D02*
X12558000Y-8016000D01*
X12558000Y-8240000D02*
X12588000Y-8270000D01*
X12588000Y-8240000D02*
X12558000Y-8270000D01*
X12558000Y-8875000D02*
X12588000Y-8905000D01*
X12588000Y-8875000D02*
X12558000Y-8905000D01*
X12558000Y-12939000D02*
X12588000Y-12969000D01*
X12588000Y-12939000D02*
X12558000Y-12969000D01*
X12675000Y-9555000D02*
X12705000Y-9585000D01*
X12705000Y-9555000D02*
X12675000Y-9585000D01*
X12685000Y-9002000D02*
X12715000Y-9032000D01*
X12715000Y-9002000D02*
X12685000Y-9032000D01*
X12711924Y-10211040D02*
X12741924Y-10241040D01*
X12741924Y-10211040D02*
X12711924Y-10241040D01*
X12725000Y-10825000D02*
X12755000Y-10855000D01*
X12755000Y-10825000D02*
X12725000Y-10855000D01*
X12771106Y-9944340D02*
X12801106Y-9974340D01*
X12801106Y-9944340D02*
X12771106Y-9974340D01*
X12812000Y-7732000D02*
X12842000Y-7762000D01*
X12842000Y-7732000D02*
X12812000Y-7762000D01*
X12812000Y-7986000D02*
X12842000Y-8016000D01*
X12842000Y-7986000D02*
X12812000Y-8016000D01*
X12812000Y-8240000D02*
X12842000Y-8270000D01*
X12842000Y-8240000D02*
X12812000Y-8270000D01*
X12812000Y-8875000D02*
X12842000Y-8905000D01*
X12842000Y-8875000D02*
X12812000Y-8905000D01*
X12847052Y-10702784D02*
X12877052Y-10732784D01*
X12877052Y-10702784D02*
X12847052Y-10732784D01*
X12889470Y-10182592D02*
X12919470Y-10212592D01*
X12919470Y-10182592D02*
X12889470Y-10212592D01*
X12939000Y-9764000D02*
X12969000Y-9794000D01*
X12969000Y-9764000D02*
X12939000Y-9794000D01*
X12939000Y-12050000D02*
X12969000Y-12080000D01*
X12969000Y-12050000D02*
X12939000Y-12080000D01*
X12939000Y-13320000D02*
X12969000Y-13350000D01*
X12969000Y-13320000D02*
X12939000Y-13350000D01*
X12963390Y-7661890D02*
X12993390Y-7691890D01*
X12993390Y-7661890D02*
X12963390Y-7691890D01*
X12991324Y-10855692D02*
X13021324Y-10885692D01*
X13021324Y-10855692D02*
X12991324Y-10885692D01*
X13000214Y-6126466D02*
X13030214Y-6156466D01*
X13030214Y-6126466D02*
X13000214Y-6156466D01*
X13066000Y-9891000D02*
X13096000Y-9921000D01*
X13096000Y-9891000D02*
X13066000Y-9921000D01*
X13205700Y-11757900D02*
X13235700Y-11787900D01*
X13235700Y-11757900D02*
X13205700Y-11787900D01*
X13228052Y-11046192D02*
X13258052Y-11076192D01*
X13258052Y-11046192D02*
X13228052Y-11076192D01*
X13233894Y-6129260D02*
X13263894Y-6159260D01*
X13263894Y-6129260D02*
X13233894Y-6159260D01*
X13260310Y-9522700D02*
X13290310Y-9552700D01*
X13290310Y-9522700D02*
X13260310Y-9552700D01*
X13281901Y-10265650D02*
X13311901Y-10295650D01*
X13311901Y-10265650D02*
X13281901Y-10295650D01*
X13311528Y-11202312D02*
X13341528Y-11232312D01*
X13341528Y-11202312D02*
X13311528Y-11232312D01*
X13320000Y-7859000D02*
X13350000Y-7889000D01*
X13350000Y-7859000D02*
X13320000Y-7889000D01*
X13320000Y-8240000D02*
X13350000Y-8270000D01*
X13350000Y-8240000D02*
X13320000Y-8270000D01*
X13320000Y-10145000D02*
X13350000Y-10175000D01*
X13350000Y-10145000D02*
X13320000Y-10175000D01*
X13320000Y-11415000D02*
X13350000Y-11445000D01*
X13350000Y-11415000D02*
X13320000Y-11445000D01*
X13335240Y-7361160D02*
X13365240Y-7391160D01*
X13365240Y-7361160D02*
X13335240Y-7391160D01*
X13350574Y-10321970D02*
X13380574Y-10351970D01*
X13380574Y-10321970D02*
X13350574Y-10351970D01*
X13354290Y-9343630D02*
X13384290Y-9373630D01*
X13384290Y-9343630D02*
X13354290Y-9373630D01*
X13397216Y-6129260D02*
X13427216Y-6159260D01*
X13427216Y-6129260D02*
X13397216Y-6159260D01*
X13405620Y-10385422D02*
X13435620Y-10415422D01*
X13435620Y-10385422D02*
X13405620Y-10415422D01*
X13407122Y-10881854D02*
X13437122Y-10911854D01*
X13437122Y-10881854D02*
X13407122Y-10911854D01*
X13410461Y-11103379D02*
X13440461Y-11133379D01*
X13440461Y-11103379D02*
X13410461Y-11133379D01*
X13436840Y-6515340D02*
X13466840Y-6545340D01*
X13466840Y-6515340D02*
X13436840Y-6545340D01*
X13447000Y-11288000D02*
X13477000Y-11318000D01*
X13477000Y-11288000D02*
X13447000Y-11318000D01*
X13447000Y-11669000D02*
X13477000Y-11699000D01*
X13477000Y-11669000D02*
X13447000Y-11699000D01*
X13447000Y-13320000D02*
X13477000Y-13350000D01*
X13477000Y-13320000D02*
X13447000Y-13350000D01*
X13479308Y-10425749D02*
X13509308Y-10455749D01*
X13509308Y-10425749D02*
X13479308Y-10455749D01*
X13516850Y-9845280D02*
X13546850Y-9875280D01*
X13546850Y-9845280D02*
X13516850Y-9875280D01*
X13518284Y-10995556D02*
X13548284Y-11025556D01*
X13548284Y-10995556D02*
X13518284Y-11025556D01*
X13525486Y-10696180D02*
X13555486Y-10726180D01*
X13555486Y-10696180D02*
X13525486Y-10726180D01*
X13534630Y-6140944D02*
X13564630Y-6170944D01*
X13564630Y-6140944D02*
X13534630Y-6170944D01*
X13544028Y-8510510D02*
X13574028Y-8540510D01*
X13574028Y-8510510D02*
X13544028Y-8540510D01*
X13544790Y-8854210D02*
X13574790Y-8884210D01*
X13574790Y-8854210D02*
X13544790Y-8884210D01*
X13574000Y-11161000D02*
X13604000Y-11191000D01*
X13604000Y-11161000D02*
X13574000Y-11191000D01*
X13574000Y-11542000D02*
X13604000Y-11572000D01*
X13604000Y-11542000D02*
X13574000Y-11572000D01*
X13579588Y-10807178D02*
X13609588Y-10837178D01*
X13609588Y-10807178D02*
X13579588Y-10837178D01*
X13633690Y-9583660D02*
X13663690Y-9613660D01*
X13663690Y-9583660D02*
X13633690Y-9613660D01*
X13634960Y-9802100D02*
X13664960Y-9832100D01*
X13664960Y-9802100D02*
X13634960Y-9832100D01*
X13665440Y-10031970D02*
X13695440Y-10061970D01*
X13695440Y-10031970D02*
X13665440Y-10061970D01*
X13675600Y-7437360D02*
X13705600Y-7467360D01*
X13705600Y-7437360D02*
X13675600Y-7467360D01*
X13701000Y-10653000D02*
X13731000Y-10683000D01*
X13731000Y-10653000D02*
X13701000Y-10683000D01*
X13701000Y-11034000D02*
X13731000Y-11064000D01*
X13731000Y-11034000D02*
X13701000Y-11064000D01*
X13701000Y-12431000D02*
X13731000Y-12461000D01*
X13731000Y-12431000D02*
X13701000Y-12461000D01*
X13707350Y-9949420D02*
X13737350Y-9979420D01*
X13737350Y-9949420D02*
X13707350Y-9979420D01*
X13740370Y-9789400D02*
X13770370Y-9819400D01*
X13770370Y-9789400D02*
X13740370Y-9819400D01*
X13751800Y-10099280D02*
X13781800Y-10129280D01*
X13781800Y-10099280D02*
X13751800Y-10129280D01*
X13774406Y-9440404D02*
X13804406Y-9470404D01*
X13804406Y-9440404D02*
X13774406Y-9470404D01*
X13776946Y-6143992D02*
X13806946Y-6173992D01*
X13806946Y-6143992D02*
X13776946Y-6173992D01*
X13816570Y-9717010D02*
X13846570Y-9747010D01*
X13846570Y-9717010D02*
X13816570Y-9747010D01*
X13828000Y-10780000D02*
X13858000Y-10810000D01*
X13858000Y-10780000D02*
X13828000Y-10810000D01*
X13828000Y-10907000D02*
X13858000Y-10937000D01*
X13858000Y-10907000D02*
X13828000Y-10937000D01*
X13828000Y-11288000D02*
X13858000Y-11318000D01*
X13858000Y-11288000D02*
X13828000Y-11318000D01*
X13834350Y-10171899D02*
X13864350Y-10201899D01*
X13864350Y-10171899D02*
X13834350Y-10201899D01*
X13860004Y-9920972D02*
X13890004Y-9950972D01*
X13890004Y-9920972D02*
X13860004Y-9950972D01*
X13862290Y-9327120D02*
X13892290Y-9357120D01*
X13892290Y-9327120D02*
X13862290Y-9357120D01*
X13883880Y-10589500D02*
X13913880Y-10619500D01*
X13913880Y-10589500D02*
X13883880Y-10619500D01*
X13896580Y-10233900D02*
X13926580Y-10263900D01*
X13926580Y-10233900D02*
X13896580Y-10263900D01*
X13913344Y-10045432D02*
X13943344Y-10075432D01*
X13943344Y-10045432D02*
X13913344Y-10075432D01*
X13928330Y-9847312D02*
X13958330Y-9877312D01*
X13958330Y-9847312D02*
X13928330Y-9877312D01*
X13955000Y-7478000D02*
X13985000Y-7508000D01*
X13985000Y-7478000D02*
X13955000Y-7508000D01*
X13955000Y-7732000D02*
X13985000Y-7762000D01*
X13985000Y-7732000D02*
X13955000Y-7762000D01*
X13955000Y-7986000D02*
X13985000Y-8016000D01*
X13985000Y-7986000D02*
X13955000Y-8016000D01*
X13955000Y-11161000D02*
X13985000Y-11191000D01*
X13985000Y-11161000D02*
X13955000Y-11191000D01*
X13955000Y-13320000D02*
X13985000Y-13350000D01*
X13985000Y-13320000D02*
X13955000Y-13350000D01*
X13958810Y-10303079D02*
X13988810Y-10333079D01*
X13988810Y-10303079D02*
X13958810Y-10333079D01*
X13979130Y-8350490D02*
X14009130Y-8380490D01*
X14009130Y-8350490D02*
X13979130Y-8380490D01*
X13995386Y-9681450D02*
X14025386Y-9711450D01*
X14025386Y-9681450D02*
X13995386Y-9711450D01*
X14005800Y-9977106D02*
X14035800Y-10007106D01*
X14035800Y-9977106D02*
X14005800Y-10007106D01*
X14033740Y-6138150D02*
X14063740Y-6168150D01*
X14063740Y-6138150D02*
X14033740Y-6168150D01*
X14076920Y-10189450D02*
X14106920Y-10219450D01*
X14106920Y-10189450D02*
X14076920Y-10219450D01*
X14082000Y-11034000D02*
X14112000Y-11064000D01*
X14112000Y-11034000D02*
X14082000Y-11064000D01*
X14089620Y-9487140D02*
X14119620Y-9517140D01*
X14119620Y-9487140D02*
X14089620Y-9517140D01*
X14107400Y-7325600D02*
X14137400Y-7355600D01*
X14137400Y-7325600D02*
X14107400Y-7355600D01*
X14120100Y-10054830D02*
X14150100Y-10084830D01*
X14150100Y-10054830D02*
X14120100Y-10084830D01*
X14139912Y-9775430D02*
X14169912Y-9805430D01*
X14169912Y-9775430D02*
X14139912Y-9805430D01*
X14140166Y-9651224D02*
X14170166Y-9681224D01*
X14170166Y-9651224D02*
X14140166Y-9681224D01*
X14203920Y-10106900D02*
X14233920Y-10136900D01*
X14233920Y-10106900D02*
X14203920Y-10136900D01*
X14209762Y-9523208D02*
X14239762Y-9553208D01*
X14239762Y-9523208D02*
X14209762Y-9553208D01*
X14229320Y-6213842D02*
X14259320Y-6243842D01*
X14259320Y-6213842D02*
X14229320Y-6243842D01*
X14287232Y-9986250D02*
X14317232Y-10016250D01*
X14317232Y-9986250D02*
X14287232Y-10016250D01*
X14287740Y-6126466D02*
X14317740Y-6156466D01*
X14317740Y-6126466D02*
X14287740Y-6156466D01*
X14292820Y-9563340D02*
X14322820Y-9593340D01*
X14322820Y-9563340D02*
X14292820Y-9593340D01*
X14308060Y-10689830D02*
X14338060Y-10719830D01*
X14338060Y-10689830D02*
X14308060Y-10719830D01*
X14313140Y-10586960D02*
X14343140Y-10616960D01*
X14343140Y-10586960D02*
X14313140Y-10616960D01*
X14332698Y-9789400D02*
X14362698Y-9819400D01*
X14362698Y-9789400D02*
X14332698Y-9819400D01*
X14336000Y-7478000D02*
X14366000Y-7508000D01*
X14366000Y-7478000D02*
X14336000Y-7508000D01*
X14336000Y-7732000D02*
X14366000Y-7762000D01*
X14366000Y-7732000D02*
X14336000Y-7762000D01*
X14336000Y-9891000D02*
X14366000Y-9921000D01*
X14366000Y-9891000D02*
X14336000Y-9921000D01*
X14336000Y-11542000D02*
X14366000Y-11572000D01*
X14366000Y-11542000D02*
X14336000Y-11572000D01*
X14336000Y-11796000D02*
X14366000Y-11826000D01*
X14366000Y-11796000D02*
X14336000Y-11826000D01*
X14346160Y-11342610D02*
X14376160Y-11372610D01*
X14376160Y-11342610D02*
X14346160Y-11372610D01*
X14363940Y-10490440D02*
X14393940Y-10520440D01*
X14393940Y-10490440D02*
X14363940Y-10520440D01*
X14394420Y-8081250D02*
X14424420Y-8111250D01*
X14424420Y-8081250D02*
X14394420Y-8111250D01*
X14398738Y-6228574D02*
X14428738Y-6258574D01*
X14428738Y-6228574D02*
X14398738Y-6258574D01*
X14404834Y-9733520D02*
X14434834Y-9763520D01*
X14434834Y-9733520D02*
X14404834Y-9763520D01*
X14460460Y-10388840D02*
X14490460Y-10418840D01*
X14490460Y-10388840D02*
X14460460Y-10418840D01*
X14463000Y-13320000D02*
X14493000Y-13350000D01*
X14493000Y-13320000D02*
X14463000Y-13350000D01*
X14509736Y-6108940D02*
X14539736Y-6138940D01*
X14539736Y-6108940D02*
X14509736Y-6138940D01*
X14539200Y-11821400D02*
X14569200Y-11851400D01*
X14569200Y-11821400D02*
X14539200Y-11851400D01*
X14541740Y-8618460D02*
X14571740Y-8648460D01*
X14571740Y-8618460D02*
X14541740Y-8648460D01*
X14628100Y-8979140D02*
X14658100Y-9009140D01*
X14658100Y-8979140D02*
X14628100Y-9009140D01*
X14635212Y-6219684D02*
X14665212Y-6249684D01*
X14665212Y-6219684D02*
X14635212Y-6249684D01*
X14697950Y-6121132D02*
X14727950Y-6151132D01*
X14727950Y-6121132D02*
X14697950Y-6151132D01*
X14717000Y-12304000D02*
X14747000Y-12334000D01*
X14747000Y-12304000D02*
X14717000Y-12334000D01*
X14831300Y-11692325D02*
X14861300Y-11722325D01*
X14861300Y-11692325D02*
X14831300Y-11722325D01*
X14844000Y-9898620D02*
X14874000Y-9928620D01*
X14874000Y-9898620D02*
X14844000Y-9928620D01*
X14866860Y-8928340D02*
X14896860Y-8958340D01*
X14896860Y-8928340D02*
X14866860Y-8958340D01*
X14971000Y-7859000D02*
X15001000Y-7889000D01*
X15001000Y-7859000D02*
X14971000Y-7889000D01*
X14971000Y-7986000D02*
X15001000Y-8016000D01*
X15001000Y-7986000D02*
X14971000Y-8016000D01*
X14971000Y-13066000D02*
X15001000Y-13096000D01*
X15001000Y-13066000D02*
X14971000Y-13096000D01*
X14971000Y-13320000D02*
X15001000Y-13350000D01*
X15001000Y-13320000D02*
X14971000Y-13350000D01*
X15098000Y-10272000D02*
X15128000Y-10302000D01*
X15128000Y-10272000D02*
X15098000Y-10302000D01*
X15098000Y-10526000D02*
X15128000Y-10556000D01*
X15128000Y-10526000D02*
X15098000Y-10556000D01*
X15098000Y-10780000D02*
X15128000Y-10810000D01*
X15128000Y-10780000D02*
X15098000Y-10810000D01*
X15098000Y-11796000D02*
X15128000Y-11826000D01*
X15128000Y-11796000D02*
X15098000Y-11826000D01*
X15098000Y-12050000D02*
X15128000Y-12080000D01*
X15128000Y-12050000D02*
X15098000Y-12080000D01*
X15158740Y-9324580D02*
X15188740Y-9354580D01*
X15188740Y-9324580D02*
X15158740Y-9354580D01*
X15225000Y-7986000D02*
X15255000Y-8016000D01*
X15255000Y-7986000D02*
X15225000Y-8016000D01*
X15352000Y-11796000D02*
X15382000Y-11826000D01*
X15382000Y-11796000D02*
X15352000Y-11826000D01*
X15352000Y-12050000D02*
X15382000Y-12080000D01*
X15382000Y-12050000D02*
X15352000Y-12080000D01*
X15352000Y-12304000D02*
X15382000Y-12334000D01*
X15382000Y-12304000D02*
X15352000Y-12334000D01*
X15435566Y-6027152D02*
X15465566Y-6057152D01*
X15465566Y-6027152D02*
X15435566Y-6057152D01*
X15479000Y-7986000D02*
X15509000Y-8016000D01*
X15509000Y-7986000D02*
X15479000Y-8016000D01*
X15479000Y-10272000D02*
X15509000Y-10302000D01*
X15509000Y-10272000D02*
X15479000Y-10302000D01*
X15479000Y-10526000D02*
X15509000Y-10556000D01*
X15509000Y-10526000D02*
X15479000Y-10556000D01*
X15479000Y-10780000D02*
X15509000Y-10810000D01*
X15509000Y-10780000D02*
X15479000Y-10810000D01*
X15479000Y-13066000D02*
X15509000Y-13096000D01*
X15509000Y-13066000D02*
X15479000Y-13096000D01*
X15479000Y-13320000D02*
X15509000Y-13350000D01*
X15509000Y-13320000D02*
X15479000Y-13350000D01*
X15645878Y-6009626D02*
X15675878Y-6039626D01*
X15675878Y-6009626D02*
X15645878Y-6039626D01*
X15733000Y-7224000D02*
X15763000Y-7254000D01*
X15763000Y-7224000D02*
X15733000Y-7254000D01*
X15733000Y-7986000D02*
X15763000Y-8016000D01*
X15763000Y-7986000D02*
X15733000Y-8016000D01*
X15795230Y-10773650D02*
X15825230Y-10803650D01*
X15825230Y-10773650D02*
X15795230Y-10803650D01*
X15987000Y-7097000D02*
X16017000Y-7127000D01*
X16017000Y-7097000D02*
X15987000Y-7127000D01*
X15987000Y-13066000D02*
X16017000Y-13096000D01*
X16017000Y-13066000D02*
X15987000Y-13096000D01*
X15987000Y-13320000D02*
X16017000Y-13350000D01*
X16017000Y-13320000D02*
X15987000Y-13350000D01*
X16114000Y-11796000D02*
X16144000Y-11826000D01*
X16144000Y-11796000D02*
X16114000Y-11826000D01*
X16114000Y-12050000D02*
X16144000Y-12080000D01*
X16144000Y-12050000D02*
X16114000Y-12080000D01*
X16241000Y-7097000D02*
X16271000Y-7127000D01*
X16271000Y-7097000D02*
X16241000Y-7127000D01*
X16368000Y-11796000D02*
X16398000Y-11826000D01*
X16398000Y-11796000D02*
X16368000Y-11826000D01*
X16368000Y-12050000D02*
X16398000Y-12080000D01*
X16398000Y-12050000D02*
X16368000Y-12080000D01*
X16476204Y-7172692D02*
X16506204Y-7202692D01*
X16506204Y-7172692D02*
X16476204Y-7202692D01*
X16518114Y-6545566D02*
X16548114Y-6575566D01*
X16548114Y-6545566D02*
X16518114Y-6575566D01*
X16545800Y-12304000D02*
X16575800Y-12334000D01*
X16575800Y-12304000D02*
X16545800Y-12334000D01*
X16545800Y-12507200D02*
X16575800Y-12537200D01*
X16575800Y-12507200D02*
X16545800Y-12537200D01*
X16545800Y-12710400D02*
X16575800Y-12740400D01*
X16575800Y-12710400D02*
X16545800Y-12740400D01*
X16622000Y-8621000D02*
X16652000Y-8651000D01*
X16652000Y-8621000D02*
X16622000Y-8651000D01*
X16622000Y-8875000D02*
X16652000Y-8905000D01*
X16652000Y-8875000D02*
X16622000Y-8905000D01*
X16622000Y-9129000D02*
X16652000Y-9159000D01*
X16652000Y-9129000D02*
X16622000Y-9159000D01*
X16622000Y-9383000D02*
X16652000Y-9413000D01*
X16652000Y-9383000D02*
X16622000Y-9413000D01*
X16622000Y-9637000D02*
X16652000Y-9667000D01*
X16652000Y-9637000D02*
X16622000Y-9667000D01*
X16682706Y-6622782D02*
X16712706Y-6652782D01*
X16712706Y-6622782D02*
X16682706Y-6652782D01*
X16695660Y-8362682D02*
X16725660Y-8392682D01*
X16725660Y-8362682D02*
X16695660Y-8392682D01*
X15458600Y-11397200D02*
G75*
G03X15458600Y-11397200I-25000J0D01*
G01*
X15458600Y-11562300D02*
G75*
G03X15458600Y-11562300I-25000J0D01*
G01*
X11726200Y-6005750D02*
X11726200Y-6065750D01*
X11696200Y-6035750D02*
X11756200Y-6035750D01*
X11746200Y-6070750D02*
X11746200Y-6000750D01*
X11706200Y-6070750D02*
X11706200Y-6000750D01*
X11746200Y-6000750D02*
G75*
G03X11706200Y-6000750I-20000J0D01*
G01*
X11706200Y-6070750D02*
G75*
G03X11746200Y-6070750I20000J0D01*
G01*
X12426200Y-6005750D02*
X12426200Y-6065750D01*
X12396200Y-6035750D02*
X12456200Y-6035750D01*
X12406200Y-6000750D02*
X12406200Y-6070750D01*
X12446200Y-6000750D02*
X12446200Y-6070750D01*
X12406200Y-6070750D02*
G75*
G03X12446200Y-6070750I20000J0D01*
G01*
X12446200Y-6000750D02*
G75*
G03X12406200Y-6000750I-20000J0D01*
G01*
X11856252Y-6335802D02*
X11856252Y-6275698D01*
X11796148Y-6275698D01*
X11796148Y-6335802D01*
X11856252Y-6335802D01*
X12356252Y-6335802D02*
X12356252Y-6275698D01*
X12296148Y-6275698D01*
X12296148Y-6335802D01*
X12356252Y-6335802D01*
X12852400Y-12784800D02*
X12902400Y-12734800D01*
X12852400Y-12684800D01*
X12802400Y-12734800D01*
X12852400Y-12784800D01*
X13106400Y-12784800D02*
X13156400Y-12734800D01*
X13106400Y-12684800D01*
X13056400Y-12734800D01*
X13106400Y-12784800D01*
X13360400Y-12784800D02*
X13410400Y-12734800D01*
X13360400Y-12684800D01*
X13310400Y-12734800D01*
X13360400Y-12784800D01*
X13614400Y-12784800D02*
X13664400Y-12734800D01*
X13614400Y-12684800D01*
X13564400Y-12734800D01*
X13614400Y-12784800D01*
X13868400Y-12784800D02*
X13918400Y-12734800D01*
X13868400Y-12684800D01*
X13818400Y-12734800D01*
X13868400Y-12784800D01*
X14122400Y-12784800D02*
X14172400Y-12734800D01*
X14122400Y-12684800D01*
X14072400Y-12734800D01*
X14122400Y-12784800D01*
X14376400Y-12784800D02*
X14426400Y-12734800D01*
X14376400Y-12684800D01*
X14326400Y-12734800D01*
X14376400Y-12784800D01*
X14630400Y-12784800D02*
X14680400Y-12734800D01*
X14630400Y-12684800D01*
X14580400Y-12734800D01*
X14630400Y-12784800D01*
X14884400Y-12784800D02*
X14934400Y-12734800D01*
X14884400Y-12684800D01*
X14834400Y-12734800D01*
X14884400Y-12784800D01*
X15138400Y-12784800D02*
X15188400Y-12734800D01*
X15138400Y-12684800D01*
X15088400Y-12734800D01*
X15138400Y-12784800D01*
X11582400Y-8736800D02*
X11632400Y-8686800D01*
X11582400Y-8636800D01*
X11532400Y-8686800D01*
X11582400Y-8736800D01*
X11582400Y-8990800D02*
X11632400Y-8940800D01*
X11582400Y-8890800D01*
X11532400Y-8940800D01*
X11582400Y-8990800D01*
X11582400Y-9244800D02*
X11632400Y-9194800D01*
X11582400Y-9144800D01*
X11532400Y-9194800D01*
X11582400Y-9244800D01*
X11582400Y-9498800D02*
X11632400Y-9448800D01*
X11582400Y-9398800D01*
X11532400Y-9448800D01*
X11582400Y-9498800D01*
X11582400Y-9752800D02*
X11632400Y-9702800D01*
X11582400Y-9652800D01*
X11532400Y-9702800D01*
X11582400Y-9752800D01*
X11582400Y-10006800D02*
X11632400Y-9956800D01*
X11582400Y-9906800D01*
X11532400Y-9956800D01*
X11582400Y-10006800D01*
X11582400Y-10260800D02*
X11632400Y-10210800D01*
X11582400Y-10160800D01*
X11532400Y-10210800D01*
X11582400Y-10260800D01*
X11582400Y-10514800D02*
X11632400Y-10464800D01*
X11582400Y-10414800D01*
X11532400Y-10464800D01*
X11582400Y-10514800D01*
X11582400Y-10768800D02*
X11632400Y-10718800D01*
X11582400Y-10668800D01*
X11532400Y-10718800D01*
X11582400Y-10768800D01*
X11582400Y-11022800D02*
X11632400Y-10972800D01*
X11582400Y-10922800D01*
X11532400Y-10972800D01*
X11582400Y-11022800D01*
X11836400Y-8737800D02*
X11886400Y-8687800D01*
X11836400Y-8637800D01*
X11786400Y-8687800D01*
X11836400Y-8737800D01*
X11836400Y-8991800D02*
X11886400Y-8941800D01*
X11836400Y-8891800D01*
X11786400Y-8941800D01*
X11836400Y-8991800D01*
X11836400Y-9245800D02*
X11886400Y-9195800D01*
X11836400Y-9145800D01*
X11786400Y-9195800D01*
X11836400Y-9245800D01*
X11836400Y-9499800D02*
X11886400Y-9449800D01*
X11836400Y-9399800D01*
X11786400Y-9449800D01*
X11836400Y-9499800D01*
X11836400Y-9753800D02*
X11886400Y-9703800D01*
X11836400Y-9653800D01*
X11786400Y-9703800D01*
X11836400Y-9753800D01*
X11836400Y-10007800D02*
X11886400Y-9957800D01*
X11836400Y-9907800D01*
X11786400Y-9957800D01*
X11836400Y-10007800D01*
X11836400Y-10261800D02*
X11886400Y-10211800D01*
X11836400Y-10161800D01*
X11786400Y-10211800D01*
X11836400Y-10261800D01*
X11836400Y-10515800D02*
X11886400Y-10465800D01*
X11836400Y-10415800D01*
X11786400Y-10465800D01*
X11836400Y-10515800D01*
X11836400Y-10769800D02*
X11886400Y-10719800D01*
X11836400Y-10669800D01*
X11786400Y-10719800D01*
X11836400Y-10769800D01*
X11836400Y-11023800D02*
X11886400Y-10973800D01*
X11836400Y-10923800D01*
X11786400Y-10973800D01*
X11836400Y-11023800D01*
X12852400Y-6720800D02*
X12902400Y-6670800D01*
X12852400Y-6620800D01*
X12802400Y-6670800D01*
X12852400Y-6720800D01*
X13106400Y-6720800D02*
X13156400Y-6670800D01*
X13106400Y-6620800D01*
X13056400Y-6670800D01*
X13106400Y-6720800D01*
X13360400Y-6720800D02*
X13410400Y-6670800D01*
X13360400Y-6620800D01*
X13310400Y-6670800D01*
X13360400Y-6720800D01*
X13614400Y-6720800D02*
X13664400Y-6670800D01*
X13614400Y-6620800D01*
X13564400Y-6670800D01*
X13614400Y-6720800D01*
X13868400Y-6720800D02*
X13918400Y-6670800D01*
X13868400Y-6620800D01*
X13818400Y-6670800D01*
X13868400Y-6720800D01*
X14122400Y-6720800D02*
X14172400Y-6670800D01*
X14122400Y-6620800D01*
X14072400Y-6670800D01*
X14122400Y-6720800D01*
X14376400Y-6720800D02*
X14426400Y-6670800D01*
X14376400Y-6620800D01*
X14326400Y-6670800D01*
X14376400Y-6720800D01*
X14630400Y-6720800D02*
X14680400Y-6670800D01*
X14630400Y-6620800D01*
X14580400Y-6670800D01*
X14630400Y-6720800D01*
X14884400Y-6720800D02*
X14934400Y-6670800D01*
X14884400Y-6620800D01*
X14834400Y-6670800D01*
X14884400Y-6720800D01*
X15138400Y-6720800D02*
X15188400Y-6670800D01*
X15138400Y-6620800D01*
X15088400Y-6670800D01*
X15138400Y-6720800D01*
X12852400Y-6974800D02*
X12902400Y-6924800D01*
X12852400Y-6874800D01*
X12802400Y-6924800D01*
X12852400Y-6974800D01*
X13106400Y-6974800D02*
X13156400Y-6924800D01*
X13106400Y-6874800D01*
X13056400Y-6924800D01*
X13106400Y-6974800D01*
X13360400Y-6974800D02*
X13410400Y-6924800D01*
X13360400Y-6874800D01*
X13310400Y-6924800D01*
X13360400Y-6974800D01*
X13614400Y-6974800D02*
X13664400Y-6924800D01*
X13614400Y-6874800D01*
X13564400Y-6924800D01*
X13614400Y-6974800D01*
X13868400Y-6974800D02*
X13918400Y-6924800D01*
X13868400Y-6874800D01*
X13818400Y-6924800D01*
X13868400Y-6974800D01*
X14122400Y-6974800D02*
X14172400Y-6924800D01*
X14122400Y-6874800D01*
X14072400Y-6924800D01*
X14122400Y-6974800D01*
X14376400Y-6974800D02*
X14426400Y-6924800D01*
X14376400Y-6874800D01*
X14326400Y-6924800D01*
X14376400Y-6974800D01*
X14630400Y-6974800D02*
X14680400Y-6924800D01*
X14630400Y-6874800D01*
X14580400Y-6924800D01*
X14630400Y-6974800D01*
X14884400Y-6974800D02*
X14934400Y-6924800D01*
X14884400Y-6874800D01*
X14834400Y-6924800D01*
X14884400Y-6974800D01*
X15138400Y-6974800D02*
X15188400Y-6924800D01*
X15138400Y-6874800D01*
X15088400Y-6924800D01*
X15138400Y-6974800D01*
X16027400Y-8736800D02*
X16077400Y-8686800D01*
X16027400Y-8636800D01*
X15977400Y-8686800D01*
X16027400Y-8736800D01*
X16027400Y-8990800D02*
X16077400Y-8940800D01*
X16027400Y-8890800D01*
X15977400Y-8940800D01*
X16027400Y-8990800D01*
X16027400Y-9244800D02*
X16077400Y-9194800D01*
X16027400Y-9144800D01*
X15977400Y-9194800D01*
X16027400Y-9244800D01*
X16027400Y-9498800D02*
X16077400Y-9448800D01*
X16027400Y-9398800D01*
X15977400Y-9448800D01*
X16027400Y-9498800D01*
X16027400Y-9752800D02*
X16077400Y-9702800D01*
X16027400Y-9652800D01*
X15977400Y-9702800D01*
X16027400Y-9752800D01*
X16027400Y-10006800D02*
X16077400Y-9956800D01*
X16027400Y-9906800D01*
X15977400Y-9956800D01*
X16027400Y-10006800D01*
X16027400Y-10260800D02*
X16077400Y-10210800D01*
X16027400Y-10160800D01*
X15977400Y-10210800D01*
X16027400Y-10260800D01*
X16027400Y-10514800D02*
X16077400Y-10464800D01*
X16027400Y-10414800D01*
X15977400Y-10464800D01*
X16027400Y-10514800D01*
X16027400Y-10768800D02*
X16077400Y-10718800D01*
X16027400Y-10668800D01*
X15977400Y-10718800D01*
X16027400Y-10768800D01*
X16027400Y-11022800D02*
X16077400Y-10972800D01*
X16027400Y-10922800D01*
X15977400Y-10972800D01*
X16027400Y-11022800D01*
X16281400Y-8736800D02*
X16331400Y-8686800D01*
X16281400Y-8636800D01*
X16231400Y-8686800D01*
X16281400Y-8736800D01*
X16281400Y-8990800D02*
X16331400Y-8940800D01*
X16281400Y-8890800D01*
X16231400Y-8940800D01*
X16281400Y-8990800D01*
X16281400Y-9244800D02*
X16331400Y-9194800D01*
X16281400Y-9144800D01*
X16231400Y-9194800D01*
X16281400Y-9244800D01*
X16281400Y-9498800D02*
X16331400Y-9448800D01*
X16281400Y-9398800D01*
X16231400Y-9448800D01*
X16281400Y-9498800D01*
X16281400Y-9752800D02*
X16331400Y-9702800D01*
X16281400Y-9652800D01*
X16231400Y-9702800D01*
X16281400Y-9752800D01*
X16281400Y-10006800D02*
X16331400Y-9956800D01*
X16281400Y-9906800D01*
X16231400Y-9956800D01*
X16281400Y-10006800D01*
X16281400Y-10260800D02*
X16331400Y-10210800D01*
X16281400Y-10160800D01*
X16231400Y-10210800D01*
X16281400Y-10260800D01*
X16281400Y-10514800D02*
X16331400Y-10464800D01*
X16281400Y-10414800D01*
X16231400Y-10464800D01*
X16281400Y-10514800D01*
X16281400Y-10768800D02*
X16331400Y-10718800D01*
X16281400Y-10668800D01*
X16231400Y-10718800D01*
X16281400Y-10768800D01*
X16281400Y-11022800D02*
X16331400Y-10972800D01*
X16281400Y-10922800D01*
X16231400Y-10972800D01*
X16281400Y-11022800D01*
X16324200Y-12996800D02*
X16594200Y-13266800D01*
X16594200Y-12996800D02*
X16324200Y-13266800D01*
X16594200Y-13131800D02*
G75*
G03X16594200Y-13131800I-135000J0D01*
G01*
X11244200Y-6138800D02*
X11514200Y-6408800D01*
X11514200Y-6138800D02*
X11244200Y-6408800D01*
X11514200Y-6273800D02*
G75*
G03X11514200Y-6273800I-135000J0D01*
G01*
X11244200Y-12996800D02*
X11514200Y-13266800D01*
X11514200Y-12996800D02*
X11244200Y-13266800D01*
X11514200Y-13131800D02*
G75*
G03X11514200Y-13131800I-135000J0D01*
G01*
X16324200Y-6138800D02*
X16594200Y-6408800D01*
X16594200Y-6138800D02*
X16324200Y-6408800D01*
X16594200Y-6273800D02*
G75*
G03X16594200Y-6273800I-135000J0D01*
G01*
D12*
X11279628Y-13983514D02*
X11279628Y-13683514D01*
X11351057Y-13683514D01*
X11393914Y-13697800D01*
X11422486Y-13726371D01*
X11436771Y-13754943D01*
X11451057Y-13812086D01*
X11451057Y-13854943D01*
X11436771Y-13912086D01*
X11422486Y-13940657D01*
X11393914Y-13969229D01*
X11351057Y-13983514D01*
X11279628Y-13983514D01*
X11579628Y-13983514D02*
X11579628Y-13783514D01*
X11579628Y-13840657D02*
X11593914Y-13812086D01*
X11608200Y-13797800D01*
X11636771Y-13783514D01*
X11665343Y-13783514D01*
X11765343Y-13983514D02*
X11765343Y-13783514D01*
X11765343Y-13683514D02*
X11751057Y-13697800D01*
X11765343Y-13712086D01*
X11779628Y-13697800D01*
X11765343Y-13683514D01*
X11765343Y-13712086D01*
X11951057Y-13983514D02*
X11922486Y-13969229D01*
X11908200Y-13940657D01*
X11908200Y-13683514D01*
X12108200Y-13983514D02*
X12079628Y-13969229D01*
X12065343Y-13940657D01*
X12065343Y-13683514D01*
X12451057Y-13983514D02*
X12451057Y-13683514D01*
X12551057Y-13897800D01*
X12651057Y-13683514D01*
X12651057Y-13983514D01*
X12922486Y-13983514D02*
X12922486Y-13826371D01*
X12908200Y-13797800D01*
X12879628Y-13783514D01*
X12822486Y-13783514D01*
X12793914Y-13797800D01*
X12922486Y-13969229D02*
X12893914Y-13983514D01*
X12822486Y-13983514D01*
X12793914Y-13969229D01*
X12779628Y-13940657D01*
X12779628Y-13912086D01*
X12793914Y-13883514D01*
X12822486Y-13869229D01*
X12893914Y-13869229D01*
X12922486Y-13854943D01*
X13065343Y-13783514D02*
X13065343Y-14083514D01*
X13065343Y-13797800D02*
X13093914Y-13783514D01*
X13151057Y-13783514D01*
X13179628Y-13797800D01*
X13193914Y-13812086D01*
X13208200Y-13840657D01*
X13208200Y-13926371D01*
X13193914Y-13954943D01*
X13179628Y-13969229D01*
X13151057Y-13983514D01*
X13093914Y-13983514D01*
X13065343Y-13969229D01*
X13336771Y-13954943D02*
X13351057Y-13969229D01*
X13336771Y-13983514D01*
X13322486Y-13969229D01*
X13336771Y-13954943D01*
X13336771Y-13983514D01*
X13336771Y-13797800D02*
X13351057Y-13812086D01*
X13336771Y-13826371D01*
X13322486Y-13812086D01*
X13336771Y-13797800D01*
X13336771Y-13826371D01*
X10963200Y-14462800D02*
X10993200Y-14492800D01*
X10993200Y-14462800D02*
X10963200Y-14492800D01*
X11336771Y-14313514D02*
X11365343Y-14313514D01*
X11393914Y-14327800D01*
X11408200Y-14342086D01*
X11422486Y-14370657D01*
X11436771Y-14427800D01*
X11436771Y-14499229D01*
X11422486Y-14556371D01*
X11408200Y-14584943D01*
X11393914Y-14599229D01*
X11365343Y-14613514D01*
X11336771Y-14613514D01*
X11308200Y-14599229D01*
X11293914Y-14584943D01*
X11279628Y-14556371D01*
X11265343Y-14499229D01*
X11265343Y-14427800D01*
X11279628Y-14370657D01*
X11293914Y-14342086D01*
X11308200Y-14327800D01*
X11336771Y-14313514D01*
X11565343Y-14584943D02*
X11579628Y-14599229D01*
X11565343Y-14613514D01*
X11551057Y-14599229D01*
X11565343Y-14584943D01*
X11565343Y-14613514D01*
X11679628Y-14313514D02*
X11865343Y-14313514D01*
X11765343Y-14427800D01*
X11808200Y-14427800D01*
X11836771Y-14442086D01*
X11851057Y-14456371D01*
X11865343Y-14484943D01*
X11865343Y-14556371D01*
X11851057Y-14584943D01*
X11836771Y-14599229D01*
X11808200Y-14613514D01*
X11722486Y-14613514D01*
X11693914Y-14599229D01*
X11679628Y-14584943D01*
X12051057Y-14313514D02*
X12079628Y-14313514D01*
X12108200Y-14327800D01*
X12122486Y-14342086D01*
X12136771Y-14370657D01*
X12151057Y-14427800D01*
X12151057Y-14499229D01*
X12136771Y-14556371D01*
X12122486Y-14584943D01*
X12108200Y-14599229D01*
X12079628Y-14613514D01*
X12051057Y-14613514D01*
X12022486Y-14599229D01*
X12008200Y-14584943D01*
X11993914Y-14556371D01*
X11979628Y-14499229D01*
X11979628Y-14427800D01*
X11993914Y-14370657D01*
X12008200Y-14342086D01*
X12022486Y-14327800D01*
X12051057Y-14313514D01*
X12279628Y-14613514D02*
X12279628Y-14413514D01*
X12279628Y-14442086D02*
X12293914Y-14427800D01*
X12322486Y-14413514D01*
X12365343Y-14413514D01*
X12393914Y-14427800D01*
X12408200Y-14456371D01*
X12408200Y-14613514D01*
X12408200Y-14456371D02*
X12422486Y-14427800D01*
X12451057Y-14413514D01*
X12493914Y-14413514D01*
X12522486Y-14427800D01*
X12536771Y-14456371D01*
X12536771Y-14613514D01*
X12679628Y-14613514D02*
X12679628Y-14413514D01*
X12679628Y-14442086D02*
X12693914Y-14427800D01*
X12722486Y-14413514D01*
X12765343Y-14413514D01*
X12793914Y-14427800D01*
X12808200Y-14456371D01*
X12808200Y-14613514D01*
X12808200Y-14456371D02*
X12822486Y-14427800D01*
X12851057Y-14413514D01*
X12893914Y-14413514D01*
X12922486Y-14427800D01*
X12936771Y-14456371D01*
X12936771Y-14613514D01*
X13522486Y-14299229D02*
X13265343Y-14684943D01*
X13908200Y-14313514D02*
X13936771Y-14313514D01*
X13965343Y-14327800D01*
X13979628Y-14342086D01*
X13993914Y-14370657D01*
X14008200Y-14427800D01*
X14008200Y-14499229D01*
X13993914Y-14556371D01*
X13979628Y-14584943D01*
X13965343Y-14599229D01*
X13936771Y-14613514D01*
X13908200Y-14613514D01*
X13879628Y-14599229D01*
X13865343Y-14584943D01*
X13851057Y-14556371D01*
X13836771Y-14499229D01*
X13836771Y-14427800D01*
X13851057Y-14370657D01*
X13865343Y-14342086D01*
X13879628Y-14327800D01*
X13908200Y-14313514D01*
X14136771Y-14584943D02*
X14151057Y-14599229D01*
X14136771Y-14613514D01*
X14122486Y-14599229D01*
X14136771Y-14584943D01*
X14136771Y-14613514D01*
X14336771Y-14313514D02*
X14365343Y-14313514D01*
X14393914Y-14327800D01*
X14408200Y-14342086D01*
X14422486Y-14370657D01*
X14436771Y-14427800D01*
X14436771Y-14499229D01*
X14422486Y-14556371D01*
X14408200Y-14584943D01*
X14393914Y-14599229D01*
X14365343Y-14613514D01*
X14336771Y-14613514D01*
X14308200Y-14599229D01*
X14293914Y-14584943D01*
X14279628Y-14556371D01*
X14265343Y-14499229D01*
X14265343Y-14427800D01*
X14279628Y-14370657D01*
X14293914Y-14342086D01*
X14308200Y-14327800D01*
X14336771Y-14313514D01*
X14722486Y-14613514D02*
X14551057Y-14613514D01*
X14636771Y-14613514D02*
X14636771Y-14313514D01*
X14608200Y-14356371D01*
X14579628Y-14384943D01*
X14551057Y-14399229D01*
X14836771Y-14342086D02*
X14851057Y-14327800D01*
X14879628Y-14313514D01*
X14951057Y-14313514D01*
X14979628Y-14327800D01*
X14993914Y-14342086D01*
X15008200Y-14370657D01*
X15008200Y-14399229D01*
X14993914Y-14442086D01*
X14822486Y-14613514D01*
X15008200Y-14613514D01*
X15122486Y-14313514D02*
X15122486Y-14370657D01*
X15236771Y-14313514D02*
X15236771Y-14370657D01*
X15679628Y-14727800D02*
X15665343Y-14713514D01*
X15636771Y-14670657D01*
X15622486Y-14642086D01*
X15608200Y-14599229D01*
X15593914Y-14527800D01*
X15593914Y-14470657D01*
X15608200Y-14399229D01*
X15622486Y-14356371D01*
X15636771Y-14327800D01*
X15665343Y-14284943D01*
X15679628Y-14270657D01*
X15779628Y-14342086D02*
X15793914Y-14327800D01*
X15822486Y-14313514D01*
X15893914Y-14313514D01*
X15922486Y-14327800D01*
X15936771Y-14342086D01*
X15951057Y-14370657D01*
X15951057Y-14399229D01*
X15936771Y-14442086D01*
X15765343Y-14613514D01*
X15951057Y-14613514D01*
X16236771Y-14613514D02*
X16065343Y-14613514D01*
X16151057Y-14613514D02*
X16151057Y-14313514D01*
X16122486Y-14356371D01*
X16093914Y-14384943D01*
X16065343Y-14399229D01*
X16408200Y-14442086D02*
X16379628Y-14427800D01*
X16365343Y-14413514D01*
X16351057Y-14384943D01*
X16351057Y-14370657D01*
X16365343Y-14342086D01*
X16379628Y-14327800D01*
X16408200Y-14313514D01*
X16465343Y-14313514D01*
X16493914Y-14327800D01*
X16508200Y-14342086D01*
X16522486Y-14370657D01*
X16522486Y-14384943D01*
X16508200Y-14413514D01*
X16493914Y-14427800D01*
X16465343Y-14442086D01*
X16408200Y-14442086D01*
X16379628Y-14456371D01*
X16365343Y-14470657D01*
X16351057Y-14499229D01*
X16351057Y-14556371D01*
X16365343Y-14584943D01*
X16379628Y-14599229D01*
X16408200Y-14613514D01*
X16465343Y-14613514D01*
X16493914Y-14599229D01*
X16508200Y-14584943D01*
X16522486Y-14556371D01*
X16522486Y-14499229D01*
X16508200Y-14470657D01*
X16493914Y-14456371D01*
X16465343Y-14442086D01*
X16879628Y-14613514D02*
X16879628Y-14313514D01*
X17008200Y-14613514D02*
X17008200Y-14456371D01*
X16993914Y-14427800D01*
X16965343Y-14413514D01*
X16922486Y-14413514D01*
X16893914Y-14427800D01*
X16879628Y-14442086D01*
X17193914Y-14613514D02*
X17165343Y-14599229D01*
X17151057Y-14584943D01*
X17136771Y-14556371D01*
X17136771Y-14470657D01*
X17151057Y-14442086D01*
X17165343Y-14427800D01*
X17193914Y-14413514D01*
X17236771Y-14413514D01*
X17265343Y-14427800D01*
X17279628Y-14442086D01*
X17293914Y-14470657D01*
X17293914Y-14556371D01*
X17279628Y-14584943D01*
X17265343Y-14599229D01*
X17236771Y-14613514D01*
X17193914Y-14613514D01*
X17465343Y-14613514D02*
X17436771Y-14599229D01*
X17422486Y-14570657D01*
X17422486Y-14313514D01*
X17693914Y-14599229D02*
X17665343Y-14613514D01*
X17608200Y-14613514D01*
X17579628Y-14599229D01*
X17565343Y-14570657D01*
X17565343Y-14456371D01*
X17579628Y-14427800D01*
X17608200Y-14413514D01*
X17665343Y-14413514D01*
X17693914Y-14427800D01*
X17708200Y-14456371D01*
X17708200Y-14484943D01*
X17565343Y-14513514D01*
X17822486Y-14599229D02*
X17851057Y-14613514D01*
X17908200Y-14613514D01*
X17936771Y-14599229D01*
X17951057Y-14570657D01*
X17951057Y-14556371D01*
X17936771Y-14527800D01*
X17908200Y-14513514D01*
X17865343Y-14513514D01*
X17836771Y-14499229D01*
X17822486Y-14470657D01*
X17822486Y-14456371D01*
X17836771Y-14427800D01*
X17865343Y-14413514D01*
X17908200Y-14413514D01*
X17936771Y-14427800D01*
X18051057Y-14727800D02*
X18065343Y-14713514D01*
X18093914Y-14670657D01*
X18108200Y-14642086D01*
X18122486Y-14599229D01*
X18136771Y-14527800D01*
X18136771Y-14470657D01*
X18122486Y-14399229D01*
X18108200Y-14356371D01*
X18093914Y-14327800D01*
X18065343Y-14284943D01*
X18051057Y-14270657D01*
X10993200Y-14873800D02*
G75*
G03X10993200Y-14873800I-25000J0D01*
G01*
X11336771Y-14709514D02*
X11365343Y-14709514D01*
X11393914Y-14723800D01*
X11408200Y-14738086D01*
X11422486Y-14766657D01*
X11436771Y-14823800D01*
X11436771Y-14895229D01*
X11422486Y-14952371D01*
X11408200Y-14980943D01*
X11393914Y-14995229D01*
X11365343Y-15009514D01*
X11336771Y-15009514D01*
X11308200Y-14995229D01*
X11293914Y-14980943D01*
X11279628Y-14952371D01*
X11265343Y-14895229D01*
X11265343Y-14823800D01*
X11279628Y-14766657D01*
X11293914Y-14738086D01*
X11308200Y-14723800D01*
X11336771Y-14709514D01*
X11565343Y-14980943D02*
X11579628Y-14995229D01*
X11565343Y-15009514D01*
X11551057Y-14995229D01*
X11565343Y-14980943D01*
X11565343Y-15009514D01*
X11851057Y-14709514D02*
X11708200Y-14709514D01*
X11693914Y-14852371D01*
X11708200Y-14838086D01*
X11736771Y-14823800D01*
X11808200Y-14823800D01*
X11836771Y-14838086D01*
X11851057Y-14852371D01*
X11865343Y-14880943D01*
X11865343Y-14952371D01*
X11851057Y-14980943D01*
X11836771Y-14995229D01*
X11808200Y-15009514D01*
X11736771Y-15009514D01*
X11708200Y-14995229D01*
X11693914Y-14980943D01*
X12051057Y-14709514D02*
X12079628Y-14709514D01*
X12108200Y-14723800D01*
X12122486Y-14738086D01*
X12136771Y-14766657D01*
X12151057Y-14823800D01*
X12151057Y-14895229D01*
X12136771Y-14952371D01*
X12122486Y-14980943D01*
X12108200Y-14995229D01*
X12079628Y-15009514D01*
X12051057Y-15009514D01*
X12022486Y-14995229D01*
X12008200Y-14980943D01*
X11993914Y-14952371D01*
X11979628Y-14895229D01*
X11979628Y-14823800D01*
X11993914Y-14766657D01*
X12008200Y-14738086D01*
X12022486Y-14723800D01*
X12051057Y-14709514D01*
X12279628Y-15009514D02*
X12279628Y-14809514D01*
X12279628Y-14838086D02*
X12293914Y-14823800D01*
X12322486Y-14809514D01*
X12365343Y-14809514D01*
X12393914Y-14823800D01*
X12408200Y-14852371D01*
X12408200Y-15009514D01*
X12408200Y-14852371D02*
X12422486Y-14823800D01*
X12451057Y-14809514D01*
X12493914Y-14809514D01*
X12522486Y-14823800D01*
X12536771Y-14852371D01*
X12536771Y-15009514D01*
X12679628Y-15009514D02*
X12679628Y-14809514D01*
X12679628Y-14838086D02*
X12693914Y-14823800D01*
X12722486Y-14809514D01*
X12765343Y-14809514D01*
X12793914Y-14823800D01*
X12808200Y-14852371D01*
X12808200Y-15009514D01*
X12808200Y-14852371D02*
X12822486Y-14823800D01*
X12851057Y-14809514D01*
X12893914Y-14809514D01*
X12922486Y-14823800D01*
X12936771Y-14852371D01*
X12936771Y-15009514D01*
X13522486Y-14695229D02*
X13265343Y-15080943D01*
X13908200Y-14709514D02*
X13936771Y-14709514D01*
X13965343Y-14723800D01*
X13979628Y-14738086D01*
X13993914Y-14766657D01*
X14008200Y-14823800D01*
X14008200Y-14895229D01*
X13993914Y-14952371D01*
X13979628Y-14980943D01*
X13965343Y-14995229D01*
X13936771Y-15009514D01*
X13908200Y-15009514D01*
X13879628Y-14995229D01*
X13865343Y-14980943D01*
X13851057Y-14952371D01*
X13836771Y-14895229D01*
X13836771Y-14823800D01*
X13851057Y-14766657D01*
X13865343Y-14738086D01*
X13879628Y-14723800D01*
X13908200Y-14709514D01*
X14136771Y-14980943D02*
X14151057Y-14995229D01*
X14136771Y-15009514D01*
X14122486Y-14995229D01*
X14136771Y-14980943D01*
X14136771Y-15009514D01*
X14336771Y-14709514D02*
X14365343Y-14709514D01*
X14393914Y-14723800D01*
X14408200Y-14738086D01*
X14422486Y-14766657D01*
X14436771Y-14823800D01*
X14436771Y-14895229D01*
X14422486Y-14952371D01*
X14408200Y-14980943D01*
X14393914Y-14995229D01*
X14365343Y-15009514D01*
X14336771Y-15009514D01*
X14308200Y-14995229D01*
X14293914Y-14980943D01*
X14279628Y-14952371D01*
X14265343Y-14895229D01*
X14265343Y-14823800D01*
X14279628Y-14766657D01*
X14293914Y-14738086D01*
X14308200Y-14723800D01*
X14336771Y-14709514D01*
X14551057Y-14738086D02*
X14565343Y-14723800D01*
X14593914Y-14709514D01*
X14665343Y-14709514D01*
X14693914Y-14723800D01*
X14708200Y-14738086D01*
X14722486Y-14766657D01*
X14722486Y-14795229D01*
X14708200Y-14838086D01*
X14536771Y-15009514D01*
X14722486Y-15009514D01*
X14908200Y-14709514D02*
X14936771Y-14709514D01*
X14965343Y-14723800D01*
X14979628Y-14738086D01*
X14993914Y-14766657D01*
X15008200Y-14823800D01*
X15008200Y-14895229D01*
X14993914Y-14952371D01*
X14979628Y-14980943D01*
X14965343Y-14995229D01*
X14936771Y-15009514D01*
X14908200Y-15009514D01*
X14879628Y-14995229D01*
X14865343Y-14980943D01*
X14851057Y-14952371D01*
X14836771Y-14895229D01*
X14836771Y-14823800D01*
X14851057Y-14766657D01*
X14865343Y-14738086D01*
X14879628Y-14723800D01*
X14908200Y-14709514D01*
X15122486Y-14709514D02*
X15122486Y-14766657D01*
X15236771Y-14709514D02*
X15236771Y-14766657D01*
X15679628Y-15123800D02*
X15665343Y-15109514D01*
X15636771Y-15066657D01*
X15622486Y-15038086D01*
X15608200Y-14995229D01*
X15593914Y-14923800D01*
X15593914Y-14866657D01*
X15608200Y-14795229D01*
X15622486Y-14752371D01*
X15636771Y-14723800D01*
X15665343Y-14680943D01*
X15679628Y-14666657D01*
X15779628Y-14738086D02*
X15793914Y-14723800D01*
X15822486Y-14709514D01*
X15893914Y-14709514D01*
X15922486Y-14723800D01*
X15936771Y-14738086D01*
X15951057Y-14766657D01*
X15951057Y-14795229D01*
X15936771Y-14838086D01*
X15765343Y-15009514D01*
X15951057Y-15009514D01*
X16308200Y-15009514D02*
X16308200Y-14709514D01*
X16436771Y-15009514D02*
X16436771Y-14852371D01*
X16422486Y-14823800D01*
X16393914Y-14809514D01*
X16351057Y-14809514D01*
X16322486Y-14823800D01*
X16308200Y-14838086D01*
X16622486Y-15009514D02*
X16593914Y-14995229D01*
X16579628Y-14980943D01*
X16565343Y-14952371D01*
X16565343Y-14866657D01*
X16579628Y-14838086D01*
X16593914Y-14823800D01*
X16622486Y-14809514D01*
X16665343Y-14809514D01*
X16693914Y-14823800D01*
X16708200Y-14838086D01*
X16722486Y-14866657D01*
X16722486Y-14952371D01*
X16708200Y-14980943D01*
X16693914Y-14995229D01*
X16665343Y-15009514D01*
X16622486Y-15009514D01*
X16893914Y-15009514D02*
X16865343Y-14995229D01*
X16851057Y-14966657D01*
X16851057Y-14709514D01*
X17122486Y-14995229D02*
X17093914Y-15009514D01*
X17036771Y-15009514D01*
X17008200Y-14995229D01*
X16993914Y-14966657D01*
X16993914Y-14852371D01*
X17008200Y-14823800D01*
X17036771Y-14809514D01*
X17093914Y-14809514D01*
X17122486Y-14823800D01*
X17136771Y-14852371D01*
X17136771Y-14880943D01*
X16993914Y-14909514D01*
X17251057Y-14995229D02*
X17279628Y-15009514D01*
X17336771Y-15009514D01*
X17365343Y-14995229D01*
X17379628Y-14966657D01*
X17379628Y-14952371D01*
X17365343Y-14923800D01*
X17336771Y-14909514D01*
X17293914Y-14909514D01*
X17265343Y-14895229D01*
X17251057Y-14866657D01*
X17251057Y-14852371D01*
X17265343Y-14823800D01*
X17293914Y-14809514D01*
X17336771Y-14809514D01*
X17365343Y-14823800D01*
X17479628Y-15123800D02*
X17493914Y-15109514D01*
X17522486Y-15066657D01*
X17536771Y-15038086D01*
X17551057Y-14995229D01*
X17565343Y-14923800D01*
X17565343Y-14866657D01*
X17551057Y-14795229D01*
X17536771Y-14752371D01*
X17522486Y-14723800D01*
X17493914Y-14680943D01*
X17479628Y-14666657D01*
X10963200Y-15239800D02*
X10963200Y-15299800D01*
X10933200Y-15269800D02*
X10993200Y-15269800D01*
X11336771Y-15105514D02*
X11365343Y-15105514D01*
X11393914Y-15119800D01*
X11408200Y-15134086D01*
X11422486Y-15162657D01*
X11436771Y-15219800D01*
X11436771Y-15291229D01*
X11422486Y-15348371D01*
X11408200Y-15376943D01*
X11393914Y-15391229D01*
X11365343Y-15405514D01*
X11336771Y-15405514D01*
X11308200Y-15391229D01*
X11293914Y-15376943D01*
X11279628Y-15348371D01*
X11265343Y-15291229D01*
X11265343Y-15219800D01*
X11279628Y-15162657D01*
X11293914Y-15134086D01*
X11308200Y-15119800D01*
X11336771Y-15105514D01*
X11565343Y-15376943D02*
X11579628Y-15391229D01*
X11565343Y-15405514D01*
X11551057Y-15391229D01*
X11565343Y-15376943D01*
X11565343Y-15405514D01*
X11836771Y-15105514D02*
X11779628Y-15105514D01*
X11751057Y-15119800D01*
X11736771Y-15134086D01*
X11708200Y-15176943D01*
X11693914Y-15234086D01*
X11693914Y-15348371D01*
X11708200Y-15376943D01*
X11722486Y-15391229D01*
X11751057Y-15405514D01*
X11808200Y-15405514D01*
X11836771Y-15391229D01*
X11851057Y-15376943D01*
X11865343Y-15348371D01*
X11865343Y-15276943D01*
X11851057Y-15248371D01*
X11836771Y-15234086D01*
X11808200Y-15219800D01*
X11751057Y-15219800D01*
X11722486Y-15234086D01*
X11708200Y-15248371D01*
X11693914Y-15276943D01*
X12051057Y-15105514D02*
X12079628Y-15105514D01*
X12108200Y-15119800D01*
X12122486Y-15134086D01*
X12136771Y-15162657D01*
X12151057Y-15219800D01*
X12151057Y-15291229D01*
X12136771Y-15348371D01*
X12122486Y-15376943D01*
X12108200Y-15391229D01*
X12079628Y-15405514D01*
X12051057Y-15405514D01*
X12022486Y-15391229D01*
X12008200Y-15376943D01*
X11993914Y-15348371D01*
X11979628Y-15291229D01*
X11979628Y-15219800D01*
X11993914Y-15162657D01*
X12008200Y-15134086D01*
X12022486Y-15119800D01*
X12051057Y-15105514D01*
X12279628Y-15405514D02*
X12279628Y-15205514D01*
X12279628Y-15234086D02*
X12293914Y-15219800D01*
X12322486Y-15205514D01*
X12365343Y-15205514D01*
X12393914Y-15219800D01*
X12408200Y-15248371D01*
X12408200Y-15405514D01*
X12408200Y-15248371D02*
X12422486Y-15219800D01*
X12451057Y-15205514D01*
X12493914Y-15205514D01*
X12522486Y-15219800D01*
X12536771Y-15248371D01*
X12536771Y-15405514D01*
X12679628Y-15405514D02*
X12679628Y-15205514D01*
X12679628Y-15234086D02*
X12693914Y-15219800D01*
X12722486Y-15205514D01*
X12765343Y-15205514D01*
X12793914Y-15219800D01*
X12808200Y-15248371D01*
X12808200Y-15405514D01*
X12808200Y-15248371D02*
X12822486Y-15219800D01*
X12851057Y-15205514D01*
X12893914Y-15205514D01*
X12922486Y-15219800D01*
X12936771Y-15248371D01*
X12936771Y-15405514D01*
X13522486Y-15091229D02*
X13265343Y-15476943D01*
X13908200Y-15105514D02*
X13936771Y-15105514D01*
X13965343Y-15119800D01*
X13979628Y-15134086D01*
X13993914Y-15162657D01*
X14008200Y-15219800D01*
X14008200Y-15291229D01*
X13993914Y-15348371D01*
X13979628Y-15376943D01*
X13965343Y-15391229D01*
X13936771Y-15405514D01*
X13908200Y-15405514D01*
X13879628Y-15391229D01*
X13865343Y-15376943D01*
X13851057Y-15348371D01*
X13836771Y-15291229D01*
X13836771Y-15219800D01*
X13851057Y-15162657D01*
X13865343Y-15134086D01*
X13879628Y-15119800D01*
X13908200Y-15105514D01*
X14136771Y-15376943D02*
X14151057Y-15391229D01*
X14136771Y-15405514D01*
X14122486Y-15391229D01*
X14136771Y-15376943D01*
X14136771Y-15405514D01*
X14336771Y-15105514D02*
X14365343Y-15105514D01*
X14393914Y-15119800D01*
X14408200Y-15134086D01*
X14422486Y-15162657D01*
X14436771Y-15219800D01*
X14436771Y-15291229D01*
X14422486Y-15348371D01*
X14408200Y-15376943D01*
X14393914Y-15391229D01*
X14365343Y-15405514D01*
X14336771Y-15405514D01*
X14308200Y-15391229D01*
X14293914Y-15376943D01*
X14279628Y-15348371D01*
X14265343Y-15291229D01*
X14265343Y-15219800D01*
X14279628Y-15162657D01*
X14293914Y-15134086D01*
X14308200Y-15119800D01*
X14336771Y-15105514D01*
X14551057Y-15134086D02*
X14565343Y-15119800D01*
X14593914Y-15105514D01*
X14665343Y-15105514D01*
X14693914Y-15119800D01*
X14708200Y-15134086D01*
X14722486Y-15162657D01*
X14722486Y-15191229D01*
X14708200Y-15234086D01*
X14536771Y-15405514D01*
X14722486Y-15405514D01*
X14979628Y-15205514D02*
X14979628Y-15405514D01*
X14908200Y-15091229D02*
X14836771Y-15305514D01*
X15022486Y-15305514D01*
X15122486Y-15105514D02*
X15122486Y-15162657D01*
X15236771Y-15105514D02*
X15236771Y-15162657D01*
X15679628Y-15519800D02*
X15665343Y-15505514D01*
X15636771Y-15462657D01*
X15622486Y-15434086D01*
X15608200Y-15391229D01*
X15593914Y-15319800D01*
X15593914Y-15262657D01*
X15608200Y-15191229D01*
X15622486Y-15148371D01*
X15636771Y-15119800D01*
X15665343Y-15076943D01*
X15679628Y-15062657D01*
X15851057Y-15105514D02*
X15879628Y-15105514D01*
X15908200Y-15119800D01*
X15922486Y-15134086D01*
X15936771Y-15162657D01*
X15951057Y-15219800D01*
X15951057Y-15291229D01*
X15936771Y-15348371D01*
X15922486Y-15376943D01*
X15908200Y-15391229D01*
X15879628Y-15405514D01*
X15851057Y-15405514D01*
X15822486Y-15391229D01*
X15808200Y-15376943D01*
X15793914Y-15348371D01*
X15779628Y-15291229D01*
X15779628Y-15219800D01*
X15793914Y-15162657D01*
X15808200Y-15134086D01*
X15822486Y-15119800D01*
X15851057Y-15105514D01*
X16308200Y-15405514D02*
X16308200Y-15105514D01*
X16436771Y-15405514D02*
X16436771Y-15248371D01*
X16422486Y-15219800D01*
X16393914Y-15205514D01*
X16351057Y-15205514D01*
X16322486Y-15219800D01*
X16308200Y-15234086D01*
X16622486Y-15405514D02*
X16593914Y-15391229D01*
X16579628Y-15376943D01*
X16565343Y-15348371D01*
X16565343Y-15262657D01*
X16579628Y-15234086D01*
X16593914Y-15219800D01*
X16622486Y-15205514D01*
X16665343Y-15205514D01*
X16693914Y-15219800D01*
X16708200Y-15234086D01*
X16722486Y-15262657D01*
X16722486Y-15348371D01*
X16708200Y-15376943D01*
X16693914Y-15391229D01*
X16665343Y-15405514D01*
X16622486Y-15405514D01*
X16893914Y-15405514D02*
X16865343Y-15391229D01*
X16851057Y-15362657D01*
X16851057Y-15105514D01*
X17122486Y-15391229D02*
X17093914Y-15405514D01*
X17036771Y-15405514D01*
X17008200Y-15391229D01*
X16993914Y-15362657D01*
X16993914Y-15248371D01*
X17008200Y-15219800D01*
X17036771Y-15205514D01*
X17093914Y-15205514D01*
X17122486Y-15219800D01*
X17136771Y-15248371D01*
X17136771Y-15276943D01*
X16993914Y-15305514D01*
X17251057Y-15391229D02*
X17279628Y-15405514D01*
X17336771Y-15405514D01*
X17365343Y-15391229D01*
X17379628Y-15362657D01*
X17379628Y-15348371D01*
X17365343Y-15319800D01*
X17336771Y-15305514D01*
X17293914Y-15305514D01*
X17265343Y-15291229D01*
X17251057Y-15262657D01*
X17251057Y-15248371D01*
X17265343Y-15219800D01*
X17293914Y-15205514D01*
X17336771Y-15205514D01*
X17365343Y-15219800D01*
X17736771Y-15291229D02*
X17965343Y-15291229D01*
X17851057Y-15405514D02*
X17851057Y-15176943D01*
X18322486Y-15134086D02*
X18336771Y-15119800D01*
X18365343Y-15105514D01*
X18436771Y-15105514D01*
X18465343Y-15119800D01*
X18479628Y-15134086D01*
X18493914Y-15162657D01*
X18493914Y-15191229D01*
X18479628Y-15234086D01*
X18308200Y-15405514D01*
X18493914Y-15405514D01*
X18836771Y-15391229D02*
X18865343Y-15405514D01*
X18922486Y-15405514D01*
X18951057Y-15391229D01*
X18965343Y-15362657D01*
X18965343Y-15348371D01*
X18951057Y-15319800D01*
X18922486Y-15305514D01*
X18879628Y-15305514D01*
X18851057Y-15291229D01*
X18836771Y-15262657D01*
X18836771Y-15248371D01*
X18851057Y-15219800D01*
X18879628Y-15205514D01*
X18922486Y-15205514D01*
X18951057Y-15219800D01*
X19136771Y-15405514D02*
X19108200Y-15391229D01*
X19093914Y-15362657D01*
X19093914Y-15105514D01*
X19293914Y-15405514D02*
X19265343Y-15391229D01*
X19251057Y-15376943D01*
X19236771Y-15348371D01*
X19236771Y-15262657D01*
X19251057Y-15234086D01*
X19265343Y-15219800D01*
X19293914Y-15205514D01*
X19336771Y-15205514D01*
X19365343Y-15219800D01*
X19379628Y-15234086D01*
X19393914Y-15262657D01*
X19393914Y-15348371D01*
X19379628Y-15376943D01*
X19365343Y-15391229D01*
X19336771Y-15405514D01*
X19293914Y-15405514D01*
X19479628Y-15205514D02*
X19593914Y-15205514D01*
X19522486Y-15105514D02*
X19522486Y-15362657D01*
X19536771Y-15391229D01*
X19565343Y-15405514D01*
X19593914Y-15405514D01*
X19679628Y-15391229D02*
X19708200Y-15405514D01*
X19765343Y-15405514D01*
X19793914Y-15391229D01*
X19808200Y-15362657D01*
X19808200Y-15348371D01*
X19793914Y-15319800D01*
X19765343Y-15305514D01*
X19722486Y-15305514D01*
X19693914Y-15291229D01*
X19679628Y-15262657D01*
X19679628Y-15248371D01*
X19693914Y-15219800D01*
X19722486Y-15205514D01*
X19765343Y-15205514D01*
X19793914Y-15219800D01*
X19908200Y-15519800D02*
X19922486Y-15505514D01*
X19951057Y-15462657D01*
X19965343Y-15434086D01*
X19979628Y-15391229D01*
X19993914Y-15319800D01*
X19993914Y-15262657D01*
X19979628Y-15191229D01*
X19965343Y-15148371D01*
X19951057Y-15119800D01*
X19922486Y-15076943D01*
X19908200Y-15062657D01*
X10980752Y-15695852D02*
X10980752Y-15635748D01*
X10920648Y-15635748D01*
X10920648Y-15695852D01*
X10980752Y-15695852D01*
X11336771Y-15501514D02*
X11365343Y-15501514D01*
X11393914Y-15515800D01*
X11408200Y-15530086D01*
X11422486Y-15558657D01*
X11436771Y-15615800D01*
X11436771Y-15687229D01*
X11422486Y-15744371D01*
X11408200Y-15772943D01*
X11393914Y-15787229D01*
X11365343Y-15801514D01*
X11336771Y-15801514D01*
X11308200Y-15787229D01*
X11293914Y-15772943D01*
X11279628Y-15744371D01*
X11265343Y-15687229D01*
X11265343Y-15615800D01*
X11279628Y-15558657D01*
X11293914Y-15530086D01*
X11308200Y-15515800D01*
X11336771Y-15501514D01*
X11565343Y-15772943D02*
X11579628Y-15787229D01*
X11565343Y-15801514D01*
X11551057Y-15787229D01*
X11565343Y-15772943D01*
X11565343Y-15801514D01*
X11751057Y-15630086D02*
X11722486Y-15615800D01*
X11708200Y-15601514D01*
X11693914Y-15572943D01*
X11693914Y-15558657D01*
X11708200Y-15530086D01*
X11722486Y-15515800D01*
X11751057Y-15501514D01*
X11808200Y-15501514D01*
X11836771Y-15515800D01*
X11851057Y-15530086D01*
X11865343Y-15558657D01*
X11865343Y-15572943D01*
X11851057Y-15601514D01*
X11836771Y-15615800D01*
X11808200Y-15630086D01*
X11751057Y-15630086D01*
X11722486Y-15644371D01*
X11708200Y-15658657D01*
X11693914Y-15687229D01*
X11693914Y-15744371D01*
X11708200Y-15772943D01*
X11722486Y-15787229D01*
X11751057Y-15801514D01*
X11808200Y-15801514D01*
X11836771Y-15787229D01*
X11851057Y-15772943D01*
X11865343Y-15744371D01*
X11865343Y-15687229D01*
X11851057Y-15658657D01*
X11836771Y-15644371D01*
X11808200Y-15630086D01*
X12136771Y-15501514D02*
X11993914Y-15501514D01*
X11979628Y-15644371D01*
X11993914Y-15630086D01*
X12022486Y-15615800D01*
X12093914Y-15615800D01*
X12122486Y-15630086D01*
X12136771Y-15644371D01*
X12151057Y-15672943D01*
X12151057Y-15744371D01*
X12136771Y-15772943D01*
X12122486Y-15787229D01*
X12093914Y-15801514D01*
X12022486Y-15801514D01*
X11993914Y-15787229D01*
X11979628Y-15772943D01*
X12279628Y-15801514D02*
X12279628Y-15601514D01*
X12279628Y-15630086D02*
X12293914Y-15615800D01*
X12322486Y-15601514D01*
X12365343Y-15601514D01*
X12393914Y-15615800D01*
X12408200Y-15644371D01*
X12408200Y-15801514D01*
X12408200Y-15644371D02*
X12422486Y-15615800D01*
X12451057Y-15601514D01*
X12493914Y-15601514D01*
X12522486Y-15615800D01*
X12536771Y-15644371D01*
X12536771Y-15801514D01*
X12679628Y-15801514D02*
X12679628Y-15601514D01*
X12679628Y-15630086D02*
X12693914Y-15615800D01*
X12722486Y-15601514D01*
X12765343Y-15601514D01*
X12793914Y-15615800D01*
X12808200Y-15644371D01*
X12808200Y-15801514D01*
X12808200Y-15644371D02*
X12822486Y-15615800D01*
X12851057Y-15601514D01*
X12893914Y-15601514D01*
X12922486Y-15615800D01*
X12936771Y-15644371D01*
X12936771Y-15801514D01*
X13522486Y-15487229D02*
X13265343Y-15872943D01*
X13908200Y-15501514D02*
X13936771Y-15501514D01*
X13965343Y-15515800D01*
X13979628Y-15530086D01*
X13993914Y-15558657D01*
X14008200Y-15615800D01*
X14008200Y-15687229D01*
X13993914Y-15744371D01*
X13979628Y-15772943D01*
X13965343Y-15787229D01*
X13936771Y-15801514D01*
X13908200Y-15801514D01*
X13879628Y-15787229D01*
X13865343Y-15772943D01*
X13851057Y-15744371D01*
X13836771Y-15687229D01*
X13836771Y-15615800D01*
X13851057Y-15558657D01*
X13865343Y-15530086D01*
X13879628Y-15515800D01*
X13908200Y-15501514D01*
X14136771Y-15772943D02*
X14151057Y-15787229D01*
X14136771Y-15801514D01*
X14122486Y-15787229D01*
X14136771Y-15772943D01*
X14136771Y-15801514D01*
X14336771Y-15501514D02*
X14365343Y-15501514D01*
X14393914Y-15515800D01*
X14408200Y-15530086D01*
X14422486Y-15558657D01*
X14436771Y-15615800D01*
X14436771Y-15687229D01*
X14422486Y-15744371D01*
X14408200Y-15772943D01*
X14393914Y-15787229D01*
X14365343Y-15801514D01*
X14336771Y-15801514D01*
X14308200Y-15787229D01*
X14293914Y-15772943D01*
X14279628Y-15744371D01*
X14265343Y-15687229D01*
X14265343Y-15615800D01*
X14279628Y-15558657D01*
X14293914Y-15530086D01*
X14308200Y-15515800D01*
X14336771Y-15501514D01*
X14536771Y-15501514D02*
X14722486Y-15501514D01*
X14622486Y-15615800D01*
X14665343Y-15615800D01*
X14693914Y-15630086D01*
X14708200Y-15644371D01*
X14722486Y-15672943D01*
X14722486Y-15744371D01*
X14708200Y-15772943D01*
X14693914Y-15787229D01*
X14665343Y-15801514D01*
X14579628Y-15801514D01*
X14551057Y-15787229D01*
X14536771Y-15772943D01*
X14822486Y-15501514D02*
X15008200Y-15501514D01*
X14908200Y-15615800D01*
X14951057Y-15615800D01*
X14979628Y-15630086D01*
X14993914Y-15644371D01*
X15008200Y-15672943D01*
X15008200Y-15744371D01*
X14993914Y-15772943D01*
X14979628Y-15787229D01*
X14951057Y-15801514D01*
X14865343Y-15801514D01*
X14836771Y-15787229D01*
X14822486Y-15772943D01*
X15122486Y-15501514D02*
X15122486Y-15558657D01*
X15236771Y-15501514D02*
X15236771Y-15558657D01*
X15679628Y-15915800D02*
X15665343Y-15901514D01*
X15636771Y-15858657D01*
X15622486Y-15830086D01*
X15608200Y-15787229D01*
X15593914Y-15715800D01*
X15593914Y-15658657D01*
X15608200Y-15587229D01*
X15622486Y-15544371D01*
X15636771Y-15515800D01*
X15665343Y-15472943D01*
X15679628Y-15458657D01*
X15779628Y-15530086D02*
X15793914Y-15515800D01*
X15822486Y-15501514D01*
X15893914Y-15501514D01*
X15922486Y-15515800D01*
X15936771Y-15530086D01*
X15951057Y-15558657D01*
X15951057Y-15587229D01*
X15936771Y-15630086D01*
X15765343Y-15801514D01*
X15951057Y-15801514D01*
X16308200Y-15801514D02*
X16308200Y-15501514D01*
X16436771Y-15801514D02*
X16436771Y-15644371D01*
X16422486Y-15615800D01*
X16393914Y-15601514D01*
X16351057Y-15601514D01*
X16322486Y-15615800D01*
X16308200Y-15630086D01*
X16622486Y-15801514D02*
X16593914Y-15787229D01*
X16579628Y-15772943D01*
X16565343Y-15744371D01*
X16565343Y-15658657D01*
X16579628Y-15630086D01*
X16593914Y-15615800D01*
X16622486Y-15601514D01*
X16665343Y-15601514D01*
X16693914Y-15615800D01*
X16708200Y-15630086D01*
X16722486Y-15658657D01*
X16722486Y-15744371D01*
X16708200Y-15772943D01*
X16693914Y-15787229D01*
X16665343Y-15801514D01*
X16622486Y-15801514D01*
X16893914Y-15801514D02*
X16865343Y-15787229D01*
X16851057Y-15758657D01*
X16851057Y-15501514D01*
X17122486Y-15787229D02*
X17093914Y-15801514D01*
X17036771Y-15801514D01*
X17008200Y-15787229D01*
X16993914Y-15758657D01*
X16993914Y-15644371D01*
X17008200Y-15615800D01*
X17036771Y-15601514D01*
X17093914Y-15601514D01*
X17122486Y-15615800D01*
X17136771Y-15644371D01*
X17136771Y-15672943D01*
X16993914Y-15701514D01*
X17251057Y-15787229D02*
X17279628Y-15801514D01*
X17336771Y-15801514D01*
X17365343Y-15787229D01*
X17379628Y-15758657D01*
X17379628Y-15744371D01*
X17365343Y-15715800D01*
X17336771Y-15701514D01*
X17293914Y-15701514D01*
X17265343Y-15687229D01*
X17251057Y-15658657D01*
X17251057Y-15644371D01*
X17265343Y-15615800D01*
X17293914Y-15601514D01*
X17336771Y-15601514D01*
X17365343Y-15615800D01*
X17479628Y-15915800D02*
X17493914Y-15901514D01*
X17522486Y-15858657D01*
X17536771Y-15830086D01*
X17551057Y-15787229D01*
X17565343Y-15715800D01*
X17565343Y-15658657D01*
X17551057Y-15587229D01*
X17536771Y-15544371D01*
X17522486Y-15515800D01*
X17493914Y-15472943D01*
X17479628Y-15458657D01*
X10943200Y-16111800D02*
X10993200Y-16061800D01*
X10943200Y-16011800D01*
X10893200Y-16061800D01*
X10943200Y-16111800D01*
X11436771Y-16197514D02*
X11265343Y-16197514D01*
X11351057Y-16197514D02*
X11351057Y-15897514D01*
X11322486Y-15940371D01*
X11293914Y-15968943D01*
X11265343Y-15983229D01*
X11565343Y-16168943D02*
X11579628Y-16183229D01*
X11565343Y-16197514D01*
X11551057Y-16183229D01*
X11565343Y-16168943D01*
X11565343Y-16197514D01*
X11765343Y-15897514D02*
X11793914Y-15897514D01*
X11822486Y-15911800D01*
X11836771Y-15926086D01*
X11851057Y-15954657D01*
X11865343Y-16011800D01*
X11865343Y-16083229D01*
X11851057Y-16140371D01*
X11836771Y-16168943D01*
X11822486Y-16183229D01*
X11793914Y-16197514D01*
X11765343Y-16197514D01*
X11736771Y-16183229D01*
X11722486Y-16168943D01*
X11708200Y-16140371D01*
X11693914Y-16083229D01*
X11693914Y-16011800D01*
X11708200Y-15954657D01*
X11722486Y-15926086D01*
X11736771Y-15911800D01*
X11765343Y-15897514D01*
X12051057Y-15897514D02*
X12079628Y-15897514D01*
X12108200Y-15911800D01*
X12122486Y-15926086D01*
X12136771Y-15954657D01*
X12151057Y-16011800D01*
X12151057Y-16083229D01*
X12136771Y-16140371D01*
X12122486Y-16168943D01*
X12108200Y-16183229D01*
X12079628Y-16197514D01*
X12051057Y-16197514D01*
X12022486Y-16183229D01*
X12008200Y-16168943D01*
X11993914Y-16140371D01*
X11979628Y-16083229D01*
X11979628Y-16011800D01*
X11993914Y-15954657D01*
X12008200Y-15926086D01*
X12022486Y-15911800D01*
X12051057Y-15897514D01*
X12279628Y-16197514D02*
X12279628Y-15997514D01*
X12279628Y-16026086D02*
X12293914Y-16011800D01*
X12322486Y-15997514D01*
X12365343Y-15997514D01*
X12393914Y-16011800D01*
X12408200Y-16040371D01*
X12408200Y-16197514D01*
X12408200Y-16040371D02*
X12422486Y-16011800D01*
X12451057Y-15997514D01*
X12493914Y-15997514D01*
X12522486Y-16011800D01*
X12536771Y-16040371D01*
X12536771Y-16197514D01*
X12679628Y-16197514D02*
X12679628Y-15997514D01*
X12679628Y-16026086D02*
X12693914Y-16011800D01*
X12722486Y-15997514D01*
X12765343Y-15997514D01*
X12793914Y-16011800D01*
X12808200Y-16040371D01*
X12808200Y-16197514D01*
X12808200Y-16040371D02*
X12822486Y-16011800D01*
X12851057Y-15997514D01*
X12893914Y-15997514D01*
X12922486Y-16011800D01*
X12936771Y-16040371D01*
X12936771Y-16197514D01*
X13522486Y-15883229D02*
X13265343Y-16268943D01*
X13908200Y-15897514D02*
X13936771Y-15897514D01*
X13965343Y-15911800D01*
X13979628Y-15926086D01*
X13993914Y-15954657D01*
X14008200Y-16011800D01*
X14008200Y-16083229D01*
X13993914Y-16140371D01*
X13979628Y-16168943D01*
X13965343Y-16183229D01*
X13936771Y-16197514D01*
X13908200Y-16197514D01*
X13879628Y-16183229D01*
X13865343Y-16168943D01*
X13851057Y-16140371D01*
X13836771Y-16083229D01*
X13836771Y-16011800D01*
X13851057Y-15954657D01*
X13865343Y-15926086D01*
X13879628Y-15911800D01*
X13908200Y-15897514D01*
X14136771Y-16168943D02*
X14151057Y-16183229D01*
X14136771Y-16197514D01*
X14122486Y-16183229D01*
X14136771Y-16168943D01*
X14136771Y-16197514D01*
X14336771Y-15897514D02*
X14365343Y-15897514D01*
X14393914Y-15911800D01*
X14408200Y-15926086D01*
X14422486Y-15954657D01*
X14436771Y-16011800D01*
X14436771Y-16083229D01*
X14422486Y-16140371D01*
X14408200Y-16168943D01*
X14393914Y-16183229D01*
X14365343Y-16197514D01*
X14336771Y-16197514D01*
X14308200Y-16183229D01*
X14293914Y-16168943D01*
X14279628Y-16140371D01*
X14265343Y-16083229D01*
X14265343Y-16011800D01*
X14279628Y-15954657D01*
X14293914Y-15926086D01*
X14308200Y-15911800D01*
X14336771Y-15897514D01*
X14536771Y-15897514D02*
X14722486Y-15897514D01*
X14622486Y-16011800D01*
X14665343Y-16011800D01*
X14693914Y-16026086D01*
X14708200Y-16040371D01*
X14722486Y-16068943D01*
X14722486Y-16140371D01*
X14708200Y-16168943D01*
X14693914Y-16183229D01*
X14665343Y-16197514D01*
X14579628Y-16197514D01*
X14551057Y-16183229D01*
X14536771Y-16168943D01*
X14865343Y-16197514D02*
X14922486Y-16197514D01*
X14951057Y-16183229D01*
X14965343Y-16168943D01*
X14993914Y-16126086D01*
X15008200Y-16068943D01*
X15008200Y-15954657D01*
X14993914Y-15926086D01*
X14979628Y-15911800D01*
X14951057Y-15897514D01*
X14893914Y-15897514D01*
X14865343Y-15911800D01*
X14851057Y-15926086D01*
X14836771Y-15954657D01*
X14836771Y-16026086D01*
X14851057Y-16054657D01*
X14865343Y-16068943D01*
X14893914Y-16083229D01*
X14951057Y-16083229D01*
X14979628Y-16068943D01*
X14993914Y-16054657D01*
X15008200Y-16026086D01*
X15122486Y-15897514D02*
X15122486Y-15954657D01*
X15236771Y-15897514D02*
X15236771Y-15954657D01*
X15679628Y-16311800D02*
X15665343Y-16297514D01*
X15636771Y-16254657D01*
X15622486Y-16226086D01*
X15608200Y-16183229D01*
X15593914Y-16111800D01*
X15593914Y-16054657D01*
X15608200Y-15983229D01*
X15622486Y-15940371D01*
X15636771Y-15911800D01*
X15665343Y-15868943D01*
X15679628Y-15854657D01*
X15765343Y-15897514D02*
X15965343Y-15897514D01*
X15836771Y-16197514D01*
X16136771Y-15897514D02*
X16165343Y-15897514D01*
X16193914Y-15911800D01*
X16208200Y-15926086D01*
X16222486Y-15954657D01*
X16236771Y-16011800D01*
X16236771Y-16083229D01*
X16222486Y-16140371D01*
X16208200Y-16168943D01*
X16193914Y-16183229D01*
X16165343Y-16197514D01*
X16136771Y-16197514D01*
X16108200Y-16183229D01*
X16093914Y-16168943D01*
X16079628Y-16140371D01*
X16065343Y-16083229D01*
X16065343Y-16011800D01*
X16079628Y-15954657D01*
X16093914Y-15926086D01*
X16108200Y-15911800D01*
X16136771Y-15897514D01*
X16593914Y-16197514D02*
X16593914Y-15897514D01*
X16722486Y-16197514D02*
X16722486Y-16040371D01*
X16708200Y-16011800D01*
X16679628Y-15997514D01*
X16636771Y-15997514D01*
X16608200Y-16011800D01*
X16593914Y-16026086D01*
X16908200Y-16197514D02*
X16879628Y-16183229D01*
X16865343Y-16168943D01*
X16851057Y-16140371D01*
X16851057Y-16054657D01*
X16865343Y-16026086D01*
X16879628Y-16011800D01*
X16908200Y-15997514D01*
X16951057Y-15997514D01*
X16979628Y-16011800D01*
X16993914Y-16026086D01*
X17008200Y-16054657D01*
X17008200Y-16140371D01*
X16993914Y-16168943D01*
X16979628Y-16183229D01*
X16951057Y-16197514D01*
X16908200Y-16197514D01*
X17179628Y-16197514D02*
X17151057Y-16183229D01*
X17136771Y-16154657D01*
X17136771Y-15897514D01*
X17408200Y-16183229D02*
X17379628Y-16197514D01*
X17322486Y-16197514D01*
X17293914Y-16183229D01*
X17279628Y-16154657D01*
X17279628Y-16040371D01*
X17293914Y-16011800D01*
X17322486Y-15997514D01*
X17379628Y-15997514D01*
X17408200Y-16011800D01*
X17422486Y-16040371D01*
X17422486Y-16068943D01*
X17279628Y-16097514D01*
X17536771Y-16183229D02*
X17565343Y-16197514D01*
X17622486Y-16197514D01*
X17651057Y-16183229D01*
X17665343Y-16154657D01*
X17665343Y-16140371D01*
X17651057Y-16111800D01*
X17622486Y-16097514D01*
X17579628Y-16097514D01*
X17551057Y-16083229D01*
X17536771Y-16054657D01*
X17536771Y-16040371D01*
X17551057Y-16011800D01*
X17579628Y-15997514D01*
X17622486Y-15997514D01*
X17651057Y-16011800D01*
X17765343Y-16311800D02*
X17779628Y-16297514D01*
X17808200Y-16254657D01*
X17822486Y-16226086D01*
X17836771Y-16183229D01*
X17851057Y-16111800D01*
X17851057Y-16054657D01*
X17836771Y-15983229D01*
X17822486Y-15940371D01*
X17808200Y-15911800D01*
X17779628Y-15868943D01*
X17765343Y-15854657D01*
X10723200Y-16322800D02*
X10993200Y-16592800D01*
X10993200Y-16322800D02*
X10723200Y-16592800D01*
X10993200Y-16457800D02*
G75*
G03X10993200Y-16457800I-135000J0D01*
G01*
X11265343Y-16322086D02*
X11279628Y-16307800D01*
X11308200Y-16293514D01*
X11379628Y-16293514D01*
X11408200Y-16307800D01*
X11422486Y-16322086D01*
X11436771Y-16350657D01*
X11436771Y-16379229D01*
X11422486Y-16422086D01*
X11251057Y-16593514D01*
X11436771Y-16593514D01*
X11565343Y-16564943D02*
X11579628Y-16579229D01*
X11565343Y-16593514D01*
X11551057Y-16579229D01*
X11565343Y-16564943D01*
X11565343Y-16593514D01*
X11679628Y-16293514D02*
X11879628Y-16293514D01*
X11751057Y-16593514D01*
X12051057Y-16293514D02*
X12079628Y-16293514D01*
X12108200Y-16307800D01*
X12122486Y-16322086D01*
X12136771Y-16350657D01*
X12151057Y-16407800D01*
X12151057Y-16479229D01*
X12136771Y-16536371D01*
X12122486Y-16564943D01*
X12108200Y-16579229D01*
X12079628Y-16593514D01*
X12051057Y-16593514D01*
X12022486Y-16579229D01*
X12008200Y-16564943D01*
X11993914Y-16536371D01*
X11979628Y-16479229D01*
X11979628Y-16407800D01*
X11993914Y-16350657D01*
X12008200Y-16322086D01*
X12022486Y-16307800D01*
X12051057Y-16293514D01*
X12279628Y-16593514D02*
X12279628Y-16393514D01*
X12279628Y-16422086D02*
X12293914Y-16407800D01*
X12322486Y-16393514D01*
X12365343Y-16393514D01*
X12393914Y-16407800D01*
X12408200Y-16436371D01*
X12408200Y-16593514D01*
X12408200Y-16436371D02*
X12422486Y-16407800D01*
X12451057Y-16393514D01*
X12493914Y-16393514D01*
X12522486Y-16407800D01*
X12536771Y-16436371D01*
X12536771Y-16593514D01*
X12679628Y-16593514D02*
X12679628Y-16393514D01*
X12679628Y-16422086D02*
X12693914Y-16407800D01*
X12722486Y-16393514D01*
X12765343Y-16393514D01*
X12793914Y-16407800D01*
X12808200Y-16436371D01*
X12808200Y-16593514D01*
X12808200Y-16436371D02*
X12822486Y-16407800D01*
X12851057Y-16393514D01*
X12893914Y-16393514D01*
X12922486Y-16407800D01*
X12936771Y-16436371D01*
X12936771Y-16593514D01*
X13522486Y-16279229D02*
X13265343Y-16664943D01*
X13908200Y-16293514D02*
X13936771Y-16293514D01*
X13965343Y-16307800D01*
X13979628Y-16322086D01*
X13993914Y-16350657D01*
X14008200Y-16407800D01*
X14008200Y-16479229D01*
X13993914Y-16536371D01*
X13979628Y-16564943D01*
X13965343Y-16579229D01*
X13936771Y-16593514D01*
X13908200Y-16593514D01*
X13879628Y-16579229D01*
X13865343Y-16564943D01*
X13851057Y-16536371D01*
X13836771Y-16479229D01*
X13836771Y-16407800D01*
X13851057Y-16350657D01*
X13865343Y-16322086D01*
X13879628Y-16307800D01*
X13908200Y-16293514D01*
X14136771Y-16564943D02*
X14151057Y-16579229D01*
X14136771Y-16593514D01*
X14122486Y-16579229D01*
X14136771Y-16564943D01*
X14136771Y-16593514D01*
X14436771Y-16593514D02*
X14265343Y-16593514D01*
X14351057Y-16593514D02*
X14351057Y-16293514D01*
X14322486Y-16336371D01*
X14293914Y-16364943D01*
X14265343Y-16379229D01*
X14622486Y-16293514D02*
X14651057Y-16293514D01*
X14679628Y-16307800D01*
X14693914Y-16322086D01*
X14708200Y-16350657D01*
X14722486Y-16407800D01*
X14722486Y-16479229D01*
X14708200Y-16536371D01*
X14693914Y-16564943D01*
X14679628Y-16579229D01*
X14651057Y-16593514D01*
X14622486Y-16593514D01*
X14593914Y-16579229D01*
X14579628Y-16564943D01*
X14565343Y-16536371D01*
X14551057Y-16479229D01*
X14551057Y-16407800D01*
X14565343Y-16350657D01*
X14579628Y-16322086D01*
X14593914Y-16307800D01*
X14622486Y-16293514D01*
X14979628Y-16293514D02*
X14922486Y-16293514D01*
X14893914Y-16307800D01*
X14879628Y-16322086D01*
X14851057Y-16364943D01*
X14836771Y-16422086D01*
X14836771Y-16536371D01*
X14851057Y-16564943D01*
X14865343Y-16579229D01*
X14893914Y-16593514D01*
X14951057Y-16593514D01*
X14979628Y-16579229D01*
X14993914Y-16564943D01*
X15008200Y-16536371D01*
X15008200Y-16464943D01*
X14993914Y-16436371D01*
X14979628Y-16422086D01*
X14951057Y-16407800D01*
X14893914Y-16407800D01*
X14865343Y-16422086D01*
X14851057Y-16436371D01*
X14836771Y-16464943D01*
X15122486Y-16293514D02*
X15122486Y-16350657D01*
X15236771Y-16293514D02*
X15236771Y-16350657D01*
X15679628Y-16707800D02*
X15665343Y-16693514D01*
X15636771Y-16650657D01*
X15622486Y-16622086D01*
X15608200Y-16579229D01*
X15593914Y-16507800D01*
X15593914Y-16450657D01*
X15608200Y-16379229D01*
X15622486Y-16336371D01*
X15636771Y-16307800D01*
X15665343Y-16264943D01*
X15679628Y-16250657D01*
X15922486Y-16393514D02*
X15922486Y-16593514D01*
X15851057Y-16279229D02*
X15779628Y-16493514D01*
X15965343Y-16493514D01*
X16308200Y-16593514D02*
X16308200Y-16293514D01*
X16436771Y-16593514D02*
X16436771Y-16436371D01*
X16422486Y-16407800D01*
X16393914Y-16393514D01*
X16351057Y-16393514D01*
X16322486Y-16407800D01*
X16308200Y-16422086D01*
X16622486Y-16593514D02*
X16593914Y-16579229D01*
X16579628Y-16564943D01*
X16565343Y-16536371D01*
X16565343Y-16450657D01*
X16579628Y-16422086D01*
X16593914Y-16407800D01*
X16622486Y-16393514D01*
X16665343Y-16393514D01*
X16693914Y-16407800D01*
X16708200Y-16422086D01*
X16722486Y-16450657D01*
X16722486Y-16536371D01*
X16708200Y-16564943D01*
X16693914Y-16579229D01*
X16665343Y-16593514D01*
X16622486Y-16593514D01*
X16893914Y-16593514D02*
X16865343Y-16579229D01*
X16851057Y-16550657D01*
X16851057Y-16293514D01*
X17122486Y-16579229D02*
X17093914Y-16593514D01*
X17036771Y-16593514D01*
X17008200Y-16579229D01*
X16993914Y-16550657D01*
X16993914Y-16436371D01*
X17008200Y-16407800D01*
X17036771Y-16393514D01*
X17093914Y-16393514D01*
X17122486Y-16407800D01*
X17136771Y-16436371D01*
X17136771Y-16464943D01*
X16993914Y-16493514D01*
X17251057Y-16579229D02*
X17279628Y-16593514D01*
X17336771Y-16593514D01*
X17365343Y-16579229D01*
X17379628Y-16550657D01*
X17379628Y-16536371D01*
X17365343Y-16507800D01*
X17336771Y-16493514D01*
X17293914Y-16493514D01*
X17265343Y-16479229D01*
X17251057Y-16450657D01*
X17251057Y-16436371D01*
X17265343Y-16407800D01*
X17293914Y-16393514D01*
X17336771Y-16393514D01*
X17365343Y-16407800D01*
X17479628Y-16707800D02*
X17493914Y-16693514D01*
X17522486Y-16650657D01*
X17536771Y-16622086D01*
X17551057Y-16579229D01*
X17565343Y-16507800D01*
X17565343Y-16450657D01*
X17551057Y-16379229D01*
X17536771Y-16336371D01*
X17522486Y-16307800D01*
X17493914Y-16264943D01*
X17479628Y-16250657D01*
M02*
