M48
; DRILL file {KiCad (5.1.5)-3} date 11/01/2020 04:19:14
; FORMAT={-:-/ absolute / inch / decimal}
; #@! TF.CreationDate,2020-01-11T04:19:14+07:00
; #@! TF.GenerationSoftware,Kicad,Pcbnew,(5.1.5)-3
FMAT,2
INCH
T1C0.0118
T2C0.0236
T3C0.0335
T4C0.0394
T5C0.1063
%
G90
G05
T1
X4.0Y-4.5
X4.0Y-4.6
X4.04Y-4.65
X4.05Y-4.4
X4.05Y-4.55
X4.1Y-4.6343
X4.15Y-2.45
X4.15Y-3.2
X4.15Y-4.4
X4.15Y-4.45
X4.15Y-4.5
X4.15Y-4.635
X4.185Y-4.935
X4.19Y-5.0
X4.2Y-2.4
X4.2Y-2.5
X4.2Y-3.15
X4.23Y-3.6
X4.24Y-4.0
X4.24Y-4.49
X4.25Y-3.1
X4.25Y-3.25
X4.25Y-4.35
X4.28Y-4.2
X4.28Y-4.64
X4.29Y-4.28
X4.29Y-4.32
X4.29Y-3.78
X4.3Y-3.05
X4.3Y-3.2
X4.3Y-4.0
X4.3Y-4.17
X4.33Y-3.58
X4.34Y-2.54
X4.35Y-3.0
X4.35Y-3.15
X4.36Y-3.75
X4.36Y-3.82
X4.36Y-3.87
X4.38Y-2.54
X4.39Y-3.94
X4.39Y-4.34
X4.39Y-4.64
X4.3941Y-4.074
X4.4Y-2.95
X4.4Y-3.1
X4.4Y-3.3
X4.4Y-4.4
X4.42Y-2.54
X4.42Y-3.96
X4.45Y-3.05
X4.45Y-3.25
X4.45Y-3.3
X4.45Y-3.7
X4.45Y-3.75
X4.45Y-3.82
X4.4512Y-3.5193
X4.46Y-3.66
X4.5Y-3.0
X4.5Y-3.2
X4.5Y-3.25
X4.5Y-4.3
X4.5Y-4.35
X4.5Y-4.4
X4.51Y-3.63
X4.537Y-3.4917
X4.5488Y-2.91
X4.55Y-3.7
X4.55Y-3.75
X4.55Y-3.82
X4.55Y-4.25
X4.55Y-4.3
X4.55Y-4.35
X4.55Y-4.4
X4.55Y-4.45
X4.55Y-4.7
X4.5535Y-4.0846
X4.56Y-3.2
X4.59Y-4.07
X4.59Y-4.13
X4.6Y-2.35
X4.6Y-2.4
X4.6Y-2.45
X4.6Y-4.25
X4.6Y-4.3
X4.6Y-4.35
X4.6Y-4.4
X4.6Y-4.85
X4.61Y-3.39
X4.63Y-4.15
X4.65Y-4.8
X4.66Y-3.8
X4.6631Y-3.6054
X4.67Y-3.96
X4.69Y-2.98
X4.69Y-3.99
X4.69Y-4.31
X4.6939Y-3.5919
X4.7Y-3.06
X4.7Y-3.15
X4.7Y-3.25
X4.7Y-4.25
X4.7Y-4.35
X4.7Y-4.45
X4.7Y-4.55
X4.7Y-4.85
X4.7213Y-3.4413
X4.73Y-2.94
X4.74Y-4.52
X4.75Y-3.1
X4.75Y-3.3
X4.75Y-3.86
X4.75Y-4.3
X4.75Y-4.35
X4.75Y-4.4
X4.75Y-4.7
X4.75Y-4.8
X4.7517Y-4.0563
X4.76Y-4.46
X4.78Y-3.89
X4.78Y-3.69
X4.79Y-3.74
X4.79Y-4.08
X4.8Y-2.8
X4.8Y-2.63
X4.8Y-3.25
X4.8Y-3.35
X4.8Y-4.35
X4.8Y-4.45
X4.8Y-4.85
X4.8191Y-3.9002
X4.82Y-3.14
X4.83Y-3.66
X4.84Y-3.79
X4.8429Y-3.7519
X4.85Y-2.66
X4.85Y-3.2
X4.85Y-3.3
X4.85Y-3.4
X4.85Y-4.15
X4.85Y-4.2
X4.85Y-4.255
X4.85Y-4.4
X4.85Y-4.44
X4.87Y-2.93
X4.87Y-3.605
X4.88Y-3.79
X4.88Y-3.83
X4.8872Y-3.998
X4.9Y-3.0
X4.9Y-3.96
X4.9Y-4.85
X4.92Y-3.75
X4.9252Y-3.1346
X4.93Y-3.86
X4.936Y-2.6392
X4.94Y-3.98
X4.9439Y-3.7261
X4.95Y-3.9
X4.95Y-3.05
X4.95Y-4.15
X4.95Y-4.2
X4.95Y-4.3
X4.95Y-4.69
X4.9571Y-2.9799
X4.96Y-3.94
X4.96Y-4.6
X4.9639Y-3.7461
X4.98Y-3.705
X4.98Y-3.805
X5.0Y-4.25
X5.0Y-4.3
X5.0Y-4.35
X5.0146Y-3.6894
X5.0165Y-3.73
X5.04Y-2.6594
X5.05Y-4.3
X5.05Y-4.35
X5.0705Y-4.0632
X5.1Y-3.84
X5.1Y-4.03
X5.1Y-4.35
X5.1Y-4.5
X5.1Y-4.68
X5.1Y-4.81
X5.15Y-4.45
X5.15Y-4.85
X5.16Y-4.33
X5.16Y-4.75
X5.17Y-3.94
X5.17Y-4.49
X5.2Y-3.01
X5.2Y-3.3
X5.2Y-4.45
X5.2Y-4.81
X5.213Y-3.9248
X5.22Y-3.43
X5.22Y-3.78
X5.2315Y-3.5543
X5.2485Y-3.9615
X5.25Y-3.86
X5.29Y-4.0
X5.3Y-3.1
X5.3Y-3.15
X5.3Y-3.2
X5.3Y-4.15
X5.3Y-4.69
X5.3Y-4.75
X5.3Y-4.85
X5.32Y-3.89
X5.3327Y-3.3055
X5.36Y-4.34
X5.3634Y-3.335
X5.38Y-3.07
X5.4Y-4.15
X5.4Y-4.3
X5.4Y-4.8
X5.42Y-4.9
X5.45Y-3.96
X5.45Y-4.3
X5.45Y-4.35
X5.475Y-3.1969
X5.5Y-2.95
X5.5Y-3.05
X5.5Y-3.95
X5.5Y-4.15
X5.5Y-4.3
X5.5Y-4.7
X5.5Y-4.84
X5.5Y-4.9
X5.51Y-5.0
X5.5157Y-3.4213
X5.5157Y-3.4803
X5.55Y-3.95
X5.5815Y-4.4583
X5.6Y-4.15
X5.6Y-4.3
X5.6Y-4.8
X5.6Y-4.9
X5.6Y-5.0
X5.62Y-4.7
X5.65Y-2.85
X5.65Y-2.9
X5.65Y-2.95
X5.65Y-3.0
X5.65Y-3.15
X5.65Y-3.2
X5.65Y-3.25
X5.65Y-3.7
X5.665Y-4.35
X5.6665Y-3.0854
X5.7Y-2.55
X5.7Y-2.65
X5.7Y-5.0
X5.74Y-4.7
X5.75Y-3.15
X5.75Y-3.2
X5.75Y-3.25
X5.75Y-4.8
X5.76Y-3.6
X5.76Y-3.7
X5.76Y-3.8
X5.8Y-2.55
X5.8Y-2.75
X5.8Y-2.85
X5.8Y-4.7
X5.8Y-4.8
X5.85Y-3.15
X5.85Y-3.2
X5.85Y-3.25
X5.9Y-2.55
X5.9Y-2.6
X5.9Y-2.7
X5.9Y-2.8
X5.9Y-2.9
X5.9Y-3.0
X5.9Y-3.3
X5.9Y-3.4
X5.9Y-3.5
X5.9Y-3.6
X5.9Y-3.7
X5.9Y-3.8
X5.9Y-3.9
X5.9Y-4.0
X5.9Y-4.7
X5.9Y-4.8
T3
X4.3016Y-2.4576
X4.4984Y-2.4576
T4
X4.4486Y-2.75
X4.5486Y-2.75
X4.6486Y-2.75
X4.7486Y-2.75
X4.8486Y-2.75
X4.9486Y-2.75
X5.0486Y-2.75
X5.1486Y-2.75
X5.2486Y-2.75
X5.3486Y-2.75
X4.05Y-3.35
X4.05Y-3.45
X4.05Y-3.55
X4.05Y-3.65
X4.05Y-3.75
X4.05Y-3.85
X4.05Y-3.95
X4.05Y-4.05
X4.05Y-4.15
X4.05Y-4.25
X5.7Y-3.35
X5.7Y-3.45
X5.7Y-3.55
X5.7Y-3.65
X5.7Y-3.75
X5.7Y-3.85
X5.7Y-3.95
X5.7Y-4.05
X5.7Y-4.15
X5.7Y-4.25
X5.8Y-3.35
X5.8Y-3.45
X5.8Y-3.55
X5.8Y-3.65
X5.8Y-3.75
X5.8Y-3.85
X5.8Y-3.95
X5.8Y-4.05
X5.8Y-4.15
X5.8Y-4.25
X4.4486Y-2.85
X4.5486Y-2.85
X4.6486Y-2.85
X4.7486Y-2.85
X4.8486Y-2.85
X4.9486Y-2.85
X5.0486Y-2.85
X5.1486Y-2.85
X5.2486Y-2.85
X5.3486Y-2.85
X4.46Y-4.975
X4.56Y-4.975
X4.66Y-4.975
X4.76Y-4.975
X4.86Y-4.975
X4.96Y-4.975
X5.06Y-4.975
X5.16Y-4.975
X5.26Y-4.975
X5.36Y-4.975
X4.15Y-3.35
X4.15Y-3.45
X4.15Y-3.55
X4.15Y-3.65
X4.15Y-3.75
X4.15Y-3.85
X4.15Y-3.95
X4.15Y-4.05
X4.15Y-4.15
X4.15Y-4.25
T5
X4.017Y-2.426
X5.831Y-2.4152
X4.0278Y-4.938
X5.831Y-4.938
T2
G00X4.2622Y-2.3651
M15
G01X4.2622Y-2.3375
M16
G05
G00X4.5378Y-2.3375
M15
G01X4.5378Y-2.3651
M16
G05
T0
M30
