G04 #@! TF.GenerationSoftware,KiCad,Pcbnew,(5.1.5)-3*
G04 #@! TF.CreationDate,2020-01-11T04:19:27+07:00*
G04 #@! TF.ProjectId,main,6d61696e-2e6b-4696-9361-645f70636258,1.3*
G04 #@! TF.SameCoordinates,Original*
G04 #@! TF.FileFunction,Soldermask,Bot*
G04 #@! TF.FilePolarity,Negative*
%FSLAX46Y46*%
G04 Gerber Fmt 4.6, Leading zero omitted, Abs format (unit mm)*
G04 Created by KiCad (PCBNEW (5.1.5)-3) date 2020-01-11 04:19:27*
%MOMM*%
%LPD*%
G04 APERTURE LIST*
%ADD10C,4.500000*%
%ADD11C,1.450000*%
%ADD12O,1.200000X1.900000*%
%ADD13R,1.700000X1.700000*%
%ADD14O,1.700000X1.700000*%
G04 APERTURE END LIST*
D10*
X148107400Y-125425200D03*
X102306801Y-125425200D03*
X148107400Y-61345399D03*
X102031800Y-61620400D03*
D11*
X114260000Y-62422500D03*
X109260000Y-62422500D03*
D12*
X115260000Y-59722500D03*
X108260000Y-59722500D03*
D13*
X113284000Y-126365000D03*
D14*
X115824000Y-126365000D03*
X118364000Y-126365000D03*
X120904000Y-126365000D03*
X123444000Y-126365000D03*
X125984000Y-126365000D03*
X128524000Y-126365000D03*
X131064000Y-126365000D03*
X133604000Y-126365000D03*
X136144000Y-126365000D03*
X105410000Y-107950000D03*
X105410000Y-105410000D03*
X105410000Y-102870000D03*
X105410000Y-100330000D03*
X105410000Y-97790000D03*
X105410000Y-95250000D03*
X105410000Y-92710000D03*
X105410000Y-90170000D03*
X105410000Y-87630000D03*
D13*
X105410000Y-85090000D03*
X144780000Y-107950000D03*
D14*
X144780000Y-105410000D03*
X144780000Y-102870000D03*
X144780000Y-100330000D03*
X144780000Y-97790000D03*
X144780000Y-95250000D03*
X144780000Y-92710000D03*
X144780000Y-90170000D03*
X144780000Y-87630000D03*
X144780000Y-85090000D03*
D13*
X102870000Y-107950000D03*
D14*
X102870000Y-105410000D03*
X102870000Y-102870000D03*
X102870000Y-100330000D03*
X102870000Y-97790000D03*
X102870000Y-95250000D03*
X102870000Y-92710000D03*
X102870000Y-90170000D03*
X102870000Y-87630000D03*
X102870000Y-85090000D03*
D13*
X135854000Y-69850000D03*
D14*
X133314000Y-69850000D03*
X130774000Y-69850000D03*
X128234000Y-69850000D03*
X125694000Y-69850000D03*
X123154000Y-69850000D03*
X120614000Y-69850000D03*
X118074000Y-69850000D03*
X115534000Y-69850000D03*
X112994000Y-69850000D03*
D13*
X135854000Y-72390000D03*
D14*
X133314000Y-72390000D03*
X130774000Y-72390000D03*
X128234000Y-72390000D03*
X125694000Y-72390000D03*
X123154000Y-72390000D03*
X120614000Y-72390000D03*
X118074000Y-72390000D03*
X115534000Y-72390000D03*
X112994000Y-72390000D03*
D13*
X147320000Y-107950000D03*
D14*
X147320000Y-105410000D03*
X147320000Y-102870000D03*
X147320000Y-100330000D03*
X147320000Y-97790000D03*
X147320000Y-95250000D03*
X147320000Y-92710000D03*
X147320000Y-90170000D03*
X147320000Y-87630000D03*
X147320000Y-85090000D03*
M02*
