%FSLAX45Y45*%
G04 Gerber Fmt 4.5, Leading zero omitted, Abs format (unit mm)*
G04 Created by KiCad (PCBNEW (5.1.5)-3) date 2020-01-11 04:19:14*
%MOMM*%
%LPD*%
G04 APERTURE LIST*
%TA.AperFunction,Profile*%
%ADD10C,0.250000*%
%TD*%
%ADD11C,0.200000*%
%ADD12C,0.300000*%
G04 APERTURE END LIST*
D10*
X15138400Y-12750800D02*
G75*
G02X15011400Y-12877800I-127000J0D01*
G01*
X10007600Y-12877800D02*
G75*
G02X9880600Y-12750800I0J127000D01*
G01*
X9880600Y-5969000D02*
G75*
G02X10007600Y-5842000I127000J0D01*
G01*
X15011400Y-5842000D02*
G75*
G02X15138400Y-5969000I0J-127000D01*
G01*
X9880600Y-5969000D02*
X9880600Y-12750800D01*
X9880600Y-12750800D02*
X9880600Y-12750800D01*
X15011400Y-12877800D02*
X10007600Y-12877800D01*
X9880600Y-5969000D02*
X9880600Y-5969000D01*
X10972800Y-5842000D02*
X10007600Y-5842000D01*
X10972800Y-5842000D02*
X15011400Y-5842000D01*
X15138400Y-12750800D02*
X15138400Y-5969000D01*
D11*
X10145000Y-11415000D02*
X10175000Y-11445000D01*
X10175000Y-11415000D02*
X10145000Y-11445000D01*
X10145000Y-11669000D02*
X10175000Y-11699000D01*
X10175000Y-11669000D02*
X10145000Y-11699000D01*
X10246600Y-11796000D02*
X10276600Y-11826000D01*
X10276600Y-11796000D02*
X10246600Y-11826000D01*
X10272000Y-11161000D02*
X10302000Y-11191000D01*
X10302000Y-11161000D02*
X10272000Y-11191000D01*
X10272000Y-11542000D02*
X10302000Y-11572000D01*
X10302000Y-11542000D02*
X10272000Y-11572000D01*
X10399000Y-11756000D02*
X10429000Y-11786000D01*
X10429000Y-11756000D02*
X10399000Y-11786000D01*
X10526000Y-6208000D02*
X10556000Y-6238000D01*
X10556000Y-6208000D02*
X10526000Y-6238000D01*
X10526000Y-8113000D02*
X10556000Y-8143000D01*
X10556000Y-8113000D02*
X10526000Y-8143000D01*
X10526000Y-11161000D02*
X10556000Y-11191000D01*
X10556000Y-11161000D02*
X10526000Y-11191000D01*
X10526000Y-11288000D02*
X10556000Y-11318000D01*
X10556000Y-11288000D02*
X10526000Y-11318000D01*
X10526000Y-11415000D02*
X10556000Y-11445000D01*
X10556000Y-11415000D02*
X10526000Y-11445000D01*
X10526000Y-11757900D02*
X10556000Y-11787900D01*
X10556000Y-11757900D02*
X10526000Y-11787900D01*
X10614900Y-12519900D02*
X10644900Y-12549900D01*
X10644900Y-12519900D02*
X10614900Y-12549900D01*
X10627600Y-12685000D02*
X10657600Y-12715000D01*
X10657600Y-12685000D02*
X10627600Y-12715000D01*
X10653000Y-6081000D02*
X10683000Y-6111000D01*
X10683000Y-6081000D02*
X10653000Y-6111000D01*
X10653000Y-6335000D02*
X10683000Y-6365000D01*
X10683000Y-6335000D02*
X10653000Y-6365000D01*
X10653000Y-7986000D02*
X10683000Y-8016000D01*
X10683000Y-7986000D02*
X10653000Y-8016000D01*
X10729200Y-9129000D02*
X10759200Y-9159000D01*
X10759200Y-9129000D02*
X10729200Y-9159000D01*
X10754600Y-10145000D02*
X10784600Y-10175000D01*
X10784600Y-10145000D02*
X10754600Y-10175000D01*
X10754600Y-11389600D02*
X10784600Y-11419600D01*
X10784600Y-11389600D02*
X10754600Y-11419600D01*
X10780000Y-7859000D02*
X10810000Y-7889000D01*
X10810000Y-7859000D02*
X10780000Y-7889000D01*
X10780000Y-8240000D02*
X10810000Y-8270000D01*
X10810000Y-8240000D02*
X10780000Y-8270000D01*
X10780000Y-11034000D02*
X10810000Y-11064000D01*
X10810000Y-11034000D02*
X10780000Y-11064000D01*
X10856200Y-10653000D02*
X10886200Y-10683000D01*
X10886200Y-10653000D02*
X10856200Y-10683000D01*
X10856200Y-11770600D02*
X10886200Y-11800600D01*
X10886200Y-11770600D02*
X10856200Y-11800600D01*
X10881600Y-10856200D02*
X10911600Y-10886200D01*
X10911600Y-10856200D02*
X10881600Y-10886200D01*
X10881600Y-10957800D02*
X10911600Y-10987800D01*
X10911600Y-10957800D02*
X10881600Y-10987800D01*
X10881624Y-9586200D02*
X10911624Y-9616200D01*
X10911624Y-9586200D02*
X10881624Y-9616200D01*
X10907000Y-7732000D02*
X10937000Y-7762000D01*
X10937000Y-7732000D02*
X10907000Y-7762000D01*
X10907000Y-8113000D02*
X10937000Y-8143000D01*
X10937000Y-8113000D02*
X10907000Y-8143000D01*
X10907000Y-10145000D02*
X10937000Y-10175000D01*
X10937000Y-10145000D02*
X10907000Y-10175000D01*
X10907000Y-10576800D02*
X10937000Y-10606800D01*
X10937000Y-10576800D02*
X10907000Y-10606800D01*
X10983200Y-9078200D02*
X11013200Y-9108200D01*
X11013200Y-9078200D02*
X10983200Y-9108200D01*
X11008600Y-6436600D02*
X11038600Y-6466600D01*
X11038600Y-6436600D02*
X11008600Y-6466600D01*
X11034000Y-7605000D02*
X11064000Y-7635000D01*
X11064000Y-7605000D02*
X11034000Y-7635000D01*
X11034000Y-7986000D02*
X11064000Y-8016000D01*
X11064000Y-7986000D02*
X11034000Y-8016000D01*
X11059400Y-9510000D02*
X11089400Y-9540000D01*
X11089400Y-9510000D02*
X11059400Y-9540000D01*
X11059400Y-9687798D02*
X11089400Y-9717798D01*
X11089400Y-9687798D02*
X11059400Y-9717798D01*
X11059400Y-9814800D02*
X11089400Y-9844800D01*
X11089400Y-9814800D02*
X11059400Y-9844800D01*
X11110200Y-6436600D02*
X11140200Y-6466600D01*
X11140200Y-6436600D02*
X11110200Y-6466600D01*
X11135600Y-9992600D02*
X11165600Y-10022600D01*
X11165600Y-9992600D02*
X11135600Y-10022600D01*
X11135600Y-11008600D02*
X11165600Y-11038600D01*
X11165600Y-11008600D02*
X11135600Y-11038600D01*
X11135600Y-11770600D02*
X11165600Y-11800600D01*
X11165600Y-11770600D02*
X11135600Y-11800600D01*
X11146000Y-10333000D02*
X11176000Y-10363000D01*
X11176000Y-10333000D02*
X11146000Y-10363000D01*
X11161000Y-7478000D02*
X11191000Y-7508000D01*
X11191000Y-7478000D02*
X11161000Y-7508000D01*
X11161000Y-7859000D02*
X11191000Y-7889000D01*
X11191000Y-7859000D02*
X11161000Y-7889000D01*
X11161000Y-8367000D02*
X11191000Y-8397000D01*
X11191000Y-8367000D02*
X11161000Y-8397000D01*
X11161000Y-11161000D02*
X11191000Y-11191000D01*
X11191000Y-11161000D02*
X11161000Y-11191000D01*
X11211800Y-6436600D02*
X11241800Y-6466600D01*
X11241800Y-6436600D02*
X11211800Y-6466600D01*
X11211800Y-10043400D02*
X11241800Y-10073400D01*
X11241800Y-10043400D02*
X11211800Y-10073400D01*
X11288000Y-7732000D02*
X11318000Y-7762000D01*
X11318000Y-7732000D02*
X11288000Y-7762000D01*
X11288000Y-8240000D02*
X11318000Y-8270000D01*
X11318000Y-8240000D02*
X11288000Y-8270000D01*
X11288000Y-8367000D02*
X11318000Y-8397000D01*
X11318000Y-8367000D02*
X11288000Y-8397000D01*
X11288000Y-9383000D02*
X11318000Y-9413000D01*
X11318000Y-9383000D02*
X11288000Y-9413000D01*
X11288000Y-9510000D02*
X11318000Y-9540000D01*
X11318000Y-9510000D02*
X11288000Y-9540000D01*
X11288000Y-9687800D02*
X11318000Y-9717800D01*
X11318000Y-9687800D02*
X11288000Y-9717800D01*
X11291000Y-8924000D02*
X11321000Y-8954000D01*
X11321000Y-8924000D02*
X11291000Y-8954000D01*
X11313400Y-9281400D02*
X11343400Y-9311400D01*
X11343400Y-9281400D02*
X11313400Y-9311400D01*
X11415000Y-7605000D02*
X11445000Y-7635000D01*
X11445000Y-7605000D02*
X11415000Y-7635000D01*
X11415000Y-8113000D02*
X11445000Y-8143000D01*
X11445000Y-8113000D02*
X11415000Y-8143000D01*
X11415000Y-8240000D02*
X11445000Y-8270000D01*
X11445000Y-8240000D02*
X11415000Y-8270000D01*
X11415000Y-10907000D02*
X11445000Y-10937000D01*
X11445000Y-10907000D02*
X11415000Y-10937000D01*
X11415000Y-11034000D02*
X11445000Y-11064000D01*
X11445000Y-11034000D02*
X11415000Y-11064000D01*
X11415000Y-11161000D02*
X11445000Y-11191000D01*
X11445000Y-11161000D02*
X11415000Y-11191000D01*
X11440400Y-9205200D02*
X11470400Y-9235200D01*
X11470400Y-9205200D02*
X11440400Y-9235200D01*
X11509000Y-8854000D02*
X11539000Y-8884000D01*
X11539000Y-8854000D02*
X11509000Y-8884000D01*
X11539000Y-7376400D02*
X11569000Y-7406400D01*
X11569000Y-7376400D02*
X11539000Y-7406400D01*
X11542000Y-9383000D02*
X11572000Y-9413000D01*
X11572000Y-9383000D02*
X11542000Y-9413000D01*
X11542000Y-9510000D02*
X11572000Y-9540000D01*
X11572000Y-9510000D02*
X11542000Y-9540000D01*
X11542000Y-9687800D02*
X11572000Y-9717800D01*
X11572000Y-9687800D02*
X11542000Y-9717800D01*
X11542000Y-10780000D02*
X11572000Y-10810000D01*
X11572000Y-10780000D02*
X11542000Y-10810000D01*
X11542000Y-10907000D02*
X11572000Y-10937000D01*
X11572000Y-10907000D02*
X11542000Y-10937000D01*
X11542000Y-11034000D02*
X11572000Y-11064000D01*
X11572000Y-11034000D02*
X11542000Y-11064000D01*
X11542000Y-11161000D02*
X11572000Y-11191000D01*
X11572000Y-11161000D02*
X11542000Y-11191000D01*
X11542000Y-11288000D02*
X11572000Y-11318000D01*
X11572000Y-11288000D02*
X11542000Y-11318000D01*
X11542000Y-11923000D02*
X11572000Y-11953000D01*
X11572000Y-11923000D02*
X11542000Y-11953000D01*
X11551000Y-10360000D02*
X11581000Y-10390000D01*
X11581000Y-10360000D02*
X11551000Y-10390000D01*
X11567400Y-8113000D02*
X11597400Y-8143000D01*
X11597400Y-8113000D02*
X11567400Y-8143000D01*
X11643600Y-10322800D02*
X11673600Y-10352800D01*
X11673600Y-10322800D02*
X11643600Y-10352800D01*
X11643600Y-10475200D02*
X11673600Y-10505200D01*
X11673600Y-10475200D02*
X11643600Y-10505200D01*
X11669000Y-5954000D02*
X11699000Y-5984000D01*
X11699000Y-5954000D02*
X11669000Y-5984000D01*
X11669000Y-6081000D02*
X11699000Y-6111000D01*
X11699000Y-6081000D02*
X11669000Y-6111000D01*
X11669000Y-6208000D02*
X11699000Y-6238000D01*
X11699000Y-6208000D02*
X11669000Y-6238000D01*
X11669000Y-10780000D02*
X11699000Y-10810000D01*
X11699000Y-10780000D02*
X11669000Y-10810000D01*
X11669000Y-10907000D02*
X11699000Y-10937000D01*
X11699000Y-10907000D02*
X11669000Y-10937000D01*
X11669000Y-11034000D02*
X11699000Y-11064000D01*
X11699000Y-11034000D02*
X11669000Y-11064000D01*
X11669000Y-11161000D02*
X11699000Y-11191000D01*
X11699000Y-11161000D02*
X11669000Y-11191000D01*
X11669000Y-12304000D02*
X11699000Y-12334000D01*
X11699000Y-12304000D02*
X11669000Y-12334000D01*
X11694400Y-8595600D02*
X11724400Y-8625600D01*
X11724400Y-8595600D02*
X11694400Y-8625600D01*
X11745200Y-10526000D02*
X11775200Y-10556000D01*
X11775200Y-10526000D02*
X11745200Y-10556000D01*
X11796000Y-12177000D02*
X11826000Y-12207000D01*
X11826000Y-12177000D02*
X11796000Y-12207000D01*
X11821400Y-9636999D02*
X11851400Y-9666999D01*
X11851400Y-9636999D02*
X11821400Y-9666999D01*
X11829186Y-9142719D02*
X11859186Y-9172719D01*
X11859186Y-9142719D02*
X11829186Y-9172719D01*
X11846800Y-10043400D02*
X11876800Y-10073400D01*
X11876800Y-10043400D02*
X11846800Y-10073400D01*
X11897600Y-7554200D02*
X11927600Y-7584200D01*
X11927600Y-7554200D02*
X11897600Y-7584200D01*
X11897600Y-10119600D02*
X11927600Y-10149600D01*
X11927600Y-10119600D02*
X11897600Y-10149600D01*
X11897600Y-10932400D02*
X11927600Y-10962400D01*
X11927600Y-10932400D02*
X11897600Y-10962400D01*
X11907633Y-9108370D02*
X11937633Y-9138370D01*
X11937633Y-9108370D02*
X11907633Y-9138370D01*
X11923000Y-7757400D02*
X11953000Y-7787400D01*
X11953000Y-7757400D02*
X11923000Y-7787400D01*
X11923000Y-7986000D02*
X11953000Y-8016000D01*
X11953000Y-7986000D02*
X11923000Y-8016000D01*
X11923000Y-8240000D02*
X11953000Y-8270000D01*
X11953000Y-8240000D02*
X11923000Y-8270000D01*
X11923000Y-10780000D02*
X11953000Y-10810000D01*
X11953000Y-10780000D02*
X11923000Y-10810000D01*
X11923000Y-11034000D02*
X11953000Y-11064000D01*
X11953000Y-11034000D02*
X11923000Y-11064000D01*
X11923000Y-11288000D02*
X11953000Y-11318000D01*
X11953000Y-11288000D02*
X11923000Y-11318000D01*
X11923000Y-11542000D02*
X11953000Y-11572000D01*
X11953000Y-11542000D02*
X11923000Y-11572000D01*
X11923000Y-12304000D02*
X11953000Y-12334000D01*
X11953000Y-12304000D02*
X11923000Y-12334000D01*
X11977137Y-8725938D02*
X12007137Y-8755938D01*
X12007137Y-8725938D02*
X11977137Y-8755938D01*
X11999200Y-7452600D02*
X12029200Y-7482600D01*
X12029200Y-7452600D02*
X11999200Y-7482600D01*
X12024600Y-11465800D02*
X12054600Y-11495800D01*
X12054600Y-11465800D02*
X12024600Y-11495800D01*
X12050000Y-7859000D02*
X12080000Y-7889000D01*
X12080000Y-7859000D02*
X12050000Y-7889000D01*
X12050000Y-8367000D02*
X12080000Y-8397000D01*
X12080000Y-8367000D02*
X12050000Y-8397000D01*
X12050000Y-9789400D02*
X12080000Y-9819400D01*
X12080000Y-9789400D02*
X12050000Y-9819400D01*
X12050000Y-10907000D02*
X12080000Y-10937000D01*
X12080000Y-10907000D02*
X12050000Y-10937000D01*
X12050000Y-11034000D02*
X12080000Y-11064000D01*
X12080000Y-11034000D02*
X12050000Y-11064000D01*
X12050000Y-11161000D02*
X12080000Y-11191000D01*
X12080000Y-11161000D02*
X12050000Y-11191000D01*
X12050000Y-11923000D02*
X12080000Y-11953000D01*
X12080000Y-11923000D02*
X12050000Y-11953000D01*
X12050000Y-12177000D02*
X12080000Y-12207000D01*
X12080000Y-12177000D02*
X12050000Y-12207000D01*
X12054384Y-10287888D02*
X12084384Y-10317888D01*
X12084384Y-10287888D02*
X12054384Y-10317888D01*
X12075400Y-11313400D02*
X12105400Y-11343400D01*
X12105400Y-11313400D02*
X12075400Y-11343400D01*
X12126199Y-9865600D02*
X12156199Y-9895600D01*
X12156199Y-9865600D02*
X12126199Y-9895600D01*
X12126200Y-9357600D02*
X12156200Y-9387600D01*
X12156200Y-9357600D02*
X12126200Y-9387600D01*
X12151600Y-9484600D02*
X12181600Y-9514600D01*
X12181600Y-9484600D02*
X12151600Y-9514600D01*
X12151600Y-10348200D02*
X12181600Y-10378200D01*
X12181600Y-10348200D02*
X12151600Y-10378200D01*
X12176999Y-7096999D02*
X12206999Y-7126999D01*
X12206999Y-7096999D02*
X12176999Y-7126999D01*
X12177000Y-6665200D02*
X12207000Y-6695200D01*
X12207000Y-6665200D02*
X12177000Y-6695200D01*
X12177000Y-8240000D02*
X12207000Y-8270000D01*
X12207000Y-8240000D02*
X12177000Y-8270000D01*
X12177000Y-8494000D02*
X12207000Y-8524000D01*
X12207000Y-8494000D02*
X12177000Y-8524000D01*
X12177000Y-11034000D02*
X12207000Y-11064000D01*
X12207000Y-11034000D02*
X12177000Y-11064000D01*
X12177000Y-11288000D02*
X12207000Y-11318000D01*
X12207000Y-11288000D02*
X12177000Y-11318000D01*
X12177000Y-12304000D02*
X12207000Y-12334000D01*
X12207000Y-12304000D02*
X12177000Y-12334000D01*
X12225493Y-9891624D02*
X12255493Y-9921624D01*
X12255493Y-9891624D02*
X12225493Y-9921624D01*
X12227800Y-7960600D02*
X12257800Y-7990600D01*
X12257800Y-7960600D02*
X12227800Y-7990600D01*
X12253200Y-9281400D02*
X12283200Y-9311400D01*
X12283200Y-9281400D02*
X12253200Y-9311400D01*
X12278600Y-9611600D02*
X12308600Y-9641600D01*
X12308600Y-9611600D02*
X12278600Y-9641600D01*
X12285912Y-9514850D02*
X12315912Y-9544850D01*
X12315912Y-9514850D02*
X12285912Y-9544850D01*
X12304000Y-6741400D02*
X12334000Y-6771400D01*
X12334000Y-6741400D02*
X12304000Y-6771400D01*
X12304000Y-8113000D02*
X12334000Y-8143000D01*
X12334000Y-8113000D02*
X12304000Y-8143000D01*
X12304000Y-8367000D02*
X12334000Y-8397000D01*
X12334000Y-8367000D02*
X12304000Y-8397000D01*
X12304000Y-8621000D02*
X12334000Y-8651000D01*
X12334000Y-8621000D02*
X12304000Y-8651000D01*
X12304000Y-10526000D02*
X12334000Y-10556000D01*
X12334000Y-10526000D02*
X12304000Y-10556000D01*
X12304000Y-10653000D02*
X12334000Y-10683000D01*
X12334000Y-10653000D02*
X12304000Y-10683000D01*
X12304000Y-10792700D02*
X12334000Y-10822700D01*
X12334000Y-10792700D02*
X12304000Y-10822700D01*
X12304000Y-11161000D02*
X12334000Y-11191000D01*
X12334000Y-11161000D02*
X12304000Y-11191000D01*
X12304000Y-11262600D02*
X12334000Y-11292600D01*
X12334000Y-11262600D02*
X12304000Y-11292600D01*
X12354800Y-7427200D02*
X12384800Y-7457200D01*
X12384800Y-7427200D02*
X12354800Y-7457200D01*
X12354800Y-9141700D02*
X12384800Y-9171700D01*
X12384800Y-9141700D02*
X12354800Y-9171700D01*
X12380200Y-9611600D02*
X12410200Y-9641600D01*
X12410200Y-9611600D02*
X12380200Y-9641600D01*
X12380200Y-9713200D02*
X12410200Y-9743200D01*
X12410200Y-9713200D02*
X12380200Y-9743200D01*
X12398442Y-10139997D02*
X12428442Y-10169997D01*
X12428442Y-10139997D02*
X12398442Y-10169997D01*
X12431000Y-7605000D02*
X12461000Y-7635000D01*
X12461000Y-7605000D02*
X12431000Y-7635000D01*
X12431000Y-10043407D02*
X12461000Y-10073407D01*
X12461000Y-10043407D02*
X12431000Y-10073407D01*
X12431000Y-12304000D02*
X12461000Y-12334000D01*
X12461000Y-12304000D02*
X12431000Y-12334000D01*
X12481800Y-9510000D02*
X12511800Y-9540000D01*
X12511800Y-9510000D02*
X12481800Y-9540000D01*
X12495000Y-7947000D02*
X12525000Y-7977000D01*
X12525000Y-7947000D02*
X12495000Y-7977000D01*
X12507200Y-9789400D02*
X12537200Y-9819400D01*
X12537200Y-9789400D02*
X12507200Y-9819400D01*
X12522567Y-6688472D02*
X12552567Y-6718472D01*
X12552567Y-6688472D02*
X12522567Y-6718472D01*
X12532600Y-10094200D02*
X12562600Y-10124200D01*
X12562600Y-10094200D02*
X12532600Y-10124200D01*
X12542614Y-9449186D02*
X12572614Y-9479186D01*
X12572614Y-9449186D02*
X12542614Y-9479186D01*
X12557999Y-9891000D02*
X12587999Y-9921000D01*
X12587999Y-9891000D02*
X12557999Y-9921000D01*
X12558000Y-7732000D02*
X12588000Y-7762000D01*
X12588000Y-7732000D02*
X12558000Y-7762000D01*
X12558000Y-10526000D02*
X12588000Y-10556000D01*
X12588000Y-10526000D02*
X12558000Y-10556000D01*
X12558000Y-10653000D02*
X12588000Y-10683000D01*
X12588000Y-10653000D02*
X12558000Y-10683000D01*
X12558000Y-10907000D02*
X12588000Y-10937000D01*
X12588000Y-10907000D02*
X12558000Y-10937000D01*
X12558000Y-11897600D02*
X12588000Y-11927600D01*
X12588000Y-11897600D02*
X12558000Y-11927600D01*
X12576000Y-7554000D02*
X12606000Y-7584000D01*
X12606000Y-7554000D02*
X12576000Y-7584000D01*
X12583400Y-9992600D02*
X12613400Y-10022600D01*
X12613400Y-9992600D02*
X12583400Y-10022600D01*
X12583400Y-11669000D02*
X12613400Y-11699000D01*
X12613400Y-11669000D02*
X12583400Y-11699000D01*
X12593414Y-9499986D02*
X12623414Y-9529986D01*
X12623414Y-9499986D02*
X12593414Y-9529986D01*
X12634200Y-9395700D02*
X12664200Y-9425700D01*
X12664200Y-9395700D02*
X12634200Y-9425700D01*
X12634200Y-9649700D02*
X12664200Y-9679700D01*
X12664200Y-9649700D02*
X12634200Y-9679700D01*
X12685000Y-10780000D02*
X12715000Y-10810000D01*
X12715000Y-10780000D02*
X12685000Y-10810000D01*
X12685000Y-10907000D02*
X12715000Y-10937000D01*
X12715000Y-10907000D02*
X12685000Y-10937000D01*
X12685000Y-11034000D02*
X12715000Y-11064000D01*
X12715000Y-11034000D02*
X12685000Y-11064000D01*
X12722081Y-9356000D02*
X12752081Y-9386000D01*
X12752081Y-9356000D02*
X12722081Y-9386000D01*
X12727000Y-9459200D02*
X12757000Y-9489200D01*
X12757000Y-9459200D02*
X12727000Y-9489200D01*
X12786600Y-6739878D02*
X12816600Y-6769878D01*
X12816600Y-6739878D02*
X12786600Y-6769878D01*
X12812000Y-10907000D02*
X12842000Y-10937000D01*
X12842000Y-10907000D02*
X12812000Y-10937000D01*
X12812000Y-11034000D02*
X12842000Y-11064000D01*
X12842000Y-11034000D02*
X12812000Y-11064000D01*
X12864133Y-10305511D02*
X12894133Y-10335511D01*
X12894133Y-10305511D02*
X12864133Y-10335511D01*
X12939000Y-9738600D02*
X12969000Y-9768600D01*
X12969000Y-9738600D02*
X12939000Y-9768600D01*
X12939000Y-10221200D02*
X12969000Y-10251200D01*
X12969000Y-10221200D02*
X12939000Y-10251200D01*
X12939000Y-11034000D02*
X12969000Y-11064000D01*
X12969000Y-11034000D02*
X12939000Y-11064000D01*
X12939000Y-11415000D02*
X12969000Y-11445000D01*
X12969000Y-11415000D02*
X12939000Y-11445000D01*
X12939000Y-11872200D02*
X12969000Y-11902200D01*
X12969000Y-11872200D02*
X12939000Y-11902200D01*
X12939000Y-12202400D02*
X12969000Y-12232400D01*
X12969000Y-12202400D02*
X12939000Y-12232400D01*
X13066000Y-11288000D02*
X13096000Y-11318000D01*
X13096000Y-11288000D02*
X13066000Y-11318000D01*
X13066000Y-12304000D02*
X13096000Y-12334000D01*
X13096000Y-12304000D02*
X13066000Y-12334000D01*
X13091400Y-10983200D02*
X13121400Y-11013200D01*
X13121400Y-10983200D02*
X13091400Y-11013200D01*
X13091400Y-12050000D02*
X13121400Y-12080000D01*
X13121400Y-12050000D02*
X13091400Y-12080000D01*
X13116800Y-9992600D02*
X13146800Y-10022600D01*
X13146800Y-9992600D02*
X13116800Y-10022600D01*
X13116800Y-11389600D02*
X13146800Y-11419600D01*
X13146800Y-11389600D02*
X13116800Y-11419600D01*
X13193000Y-7630400D02*
X13223000Y-7660400D01*
X13223000Y-7630400D02*
X13193000Y-7660400D01*
X13193000Y-8367000D02*
X13223000Y-8397000D01*
X13223000Y-8367000D02*
X13193000Y-8397000D01*
X13193000Y-11288000D02*
X13223000Y-11318000D01*
X13223000Y-11288000D02*
X13193000Y-11318000D01*
X13193000Y-12202400D02*
X13223000Y-12232400D01*
X13223000Y-12202400D02*
X13193000Y-12232400D01*
X13226000Y-9954000D02*
X13256000Y-9984000D01*
X13256000Y-9954000D02*
X13226000Y-9984000D01*
X13243800Y-8697200D02*
X13273800Y-8727200D01*
X13273800Y-8697200D02*
X13243800Y-8727200D01*
X13243803Y-9586200D02*
X13273803Y-9616200D01*
X13273803Y-9586200D02*
X13243803Y-9616200D01*
X13273000Y-9013000D02*
X13303000Y-9043000D01*
X13303000Y-9013000D02*
X13273000Y-9043000D01*
X13316278Y-10047122D02*
X13346278Y-10077122D01*
X13346278Y-10047122D02*
X13316278Y-10077122D01*
X13320000Y-9789400D02*
X13350000Y-9819400D01*
X13350000Y-9789400D02*
X13320000Y-9819400D01*
X13421600Y-10145000D02*
X13451600Y-10175000D01*
X13451600Y-10145000D02*
X13421600Y-10175000D01*
X13447000Y-7859000D02*
X13477000Y-7889000D01*
X13477000Y-7859000D02*
X13447000Y-7889000D01*
X13447000Y-7986000D02*
X13477000Y-8016000D01*
X13477000Y-7986000D02*
X13447000Y-8016000D01*
X13447000Y-8113000D02*
X13477000Y-8143000D01*
X13477000Y-8113000D02*
X13447000Y-8143000D01*
X13447000Y-10526000D02*
X13477000Y-10556000D01*
X13477000Y-10526000D02*
X13447000Y-10556000D01*
X13447000Y-11897600D02*
X13477000Y-11927600D01*
X13477000Y-11897600D02*
X13447000Y-11927600D01*
X13447000Y-12050000D02*
X13477000Y-12080000D01*
X13477000Y-12050000D02*
X13447000Y-12080000D01*
X13447000Y-12304000D02*
X13477000Y-12334000D01*
X13477000Y-12304000D02*
X13447000Y-12334000D01*
X13497800Y-9865600D02*
X13527800Y-9895600D01*
X13527800Y-9865600D02*
X13497800Y-9895600D01*
X13530000Y-8381000D02*
X13560000Y-8411000D01*
X13560000Y-8381000D02*
X13530000Y-8411000D01*
X13599400Y-11008600D02*
X13629400Y-11038600D01*
X13629400Y-11008600D02*
X13599400Y-11038600D01*
X13608000Y-8456000D02*
X13638000Y-8486000D01*
X13638000Y-8456000D02*
X13608000Y-8486000D01*
X13650200Y-7782800D02*
X13680200Y-7812800D01*
X13680200Y-7782800D02*
X13650200Y-7812800D01*
X13701000Y-10526000D02*
X13731000Y-10556000D01*
X13731000Y-10526000D02*
X13701000Y-10556000D01*
X13701000Y-10907000D02*
X13731000Y-10937000D01*
X13731000Y-10907000D02*
X13701000Y-10937000D01*
X13701000Y-12177000D02*
X13731000Y-12207000D01*
X13731000Y-12177000D02*
X13701000Y-12207000D01*
X13751800Y-12431000D02*
X13781800Y-12461000D01*
X13781800Y-12431000D02*
X13751800Y-12461000D01*
X13828000Y-10043400D02*
X13858000Y-10073400D01*
X13858000Y-10043400D02*
X13828000Y-10073400D01*
X13828000Y-10907000D02*
X13858000Y-10937000D01*
X13858000Y-10907000D02*
X13828000Y-10937000D01*
X13828000Y-11034000D02*
X13858000Y-11064000D01*
X13858000Y-11034000D02*
X13828000Y-11064000D01*
X13891600Y-8105000D02*
X13921600Y-8135000D01*
X13921600Y-8105000D02*
X13891600Y-8135000D01*
X13955000Y-7478000D02*
X13985000Y-7508000D01*
X13985000Y-7478000D02*
X13955000Y-7508000D01*
X13955000Y-7732000D02*
X13985000Y-7762000D01*
X13985000Y-7732000D02*
X13955000Y-7762000D01*
X13955000Y-10018000D02*
X13985000Y-10048000D01*
X13985000Y-10018000D02*
X13955000Y-10048000D01*
X13955000Y-10526000D02*
X13985000Y-10556000D01*
X13985000Y-10526000D02*
X13955000Y-10556000D01*
X13955000Y-10907000D02*
X13985000Y-10937000D01*
X13985000Y-10907000D02*
X13955000Y-10937000D01*
X13955000Y-11923000D02*
X13985000Y-11953000D01*
X13985000Y-11923000D02*
X13955000Y-11953000D01*
X13955000Y-12278600D02*
X13985000Y-12308600D01*
X13985000Y-12278600D02*
X13955000Y-12308600D01*
X13955000Y-12431000D02*
X13985000Y-12461000D01*
X13985000Y-12431000D02*
X13955000Y-12461000D01*
X13980400Y-12685000D02*
X14010400Y-12715000D01*
X14010400Y-12685000D02*
X13980400Y-12715000D01*
X13995000Y-8675000D02*
X14025000Y-8705000D01*
X14025000Y-8675000D02*
X13995000Y-8705000D01*
X13995000Y-8825000D02*
X14025000Y-8855000D01*
X14025000Y-8825000D02*
X13995000Y-8855000D01*
X14082000Y-10018000D02*
X14112000Y-10048000D01*
X14112000Y-10018000D02*
X14082000Y-10048000D01*
X14162000Y-11309000D02*
X14192000Y-11339000D01*
X14192000Y-11309000D02*
X14162000Y-11339000D01*
X14209000Y-10526000D02*
X14239000Y-10556000D01*
X14239000Y-10526000D02*
X14209000Y-10556000D01*
X14209000Y-10907000D02*
X14239000Y-10937000D01*
X14239000Y-10907000D02*
X14209000Y-10937000D01*
X14209000Y-12177000D02*
X14239000Y-12207000D01*
X14239000Y-12177000D02*
X14209000Y-12207000D01*
X14209000Y-12431000D02*
X14239000Y-12461000D01*
X14239000Y-12431000D02*
X14209000Y-12461000D01*
X14209000Y-12685000D02*
X14239000Y-12715000D01*
X14239000Y-12685000D02*
X14209000Y-12715000D01*
X14259800Y-11923000D02*
X14289800Y-11953000D01*
X14289800Y-11923000D02*
X14259800Y-11953000D01*
X14336000Y-7224000D02*
X14366000Y-7254000D01*
X14366000Y-7224000D02*
X14336000Y-7254000D01*
X14336000Y-7351000D02*
X14366000Y-7381000D01*
X14366000Y-7351000D02*
X14336000Y-7381000D01*
X14336000Y-7478000D02*
X14366000Y-7508000D01*
X14366000Y-7478000D02*
X14336000Y-7508000D01*
X14336000Y-7605000D02*
X14366000Y-7635000D01*
X14366000Y-7605000D02*
X14336000Y-7635000D01*
X14336000Y-7986000D02*
X14366000Y-8016000D01*
X14366000Y-7986000D02*
X14336000Y-8016000D01*
X14336000Y-8113000D02*
X14366000Y-8143000D01*
X14366000Y-8113000D02*
X14336000Y-8143000D01*
X14336000Y-8240000D02*
X14366000Y-8270000D01*
X14366000Y-8240000D02*
X14336000Y-8270000D01*
X14336000Y-9383000D02*
X14366000Y-9413000D01*
X14366000Y-9383000D02*
X14336000Y-9413000D01*
X14374100Y-11034000D02*
X14404100Y-11064000D01*
X14404100Y-11034000D02*
X14374100Y-11064000D01*
X14378000Y-7822000D02*
X14408000Y-7852000D01*
X14408000Y-7822000D02*
X14378000Y-7852000D01*
X14463000Y-6462000D02*
X14493000Y-6492000D01*
X14493000Y-6462000D02*
X14463000Y-6492000D01*
X14463000Y-6716000D02*
X14493000Y-6746000D01*
X14493000Y-6716000D02*
X14463000Y-6746000D01*
X14463000Y-12685000D02*
X14493000Y-12715000D01*
X14493000Y-12685000D02*
X14463000Y-12715000D01*
X14564600Y-11923000D02*
X14594600Y-11953000D01*
X14594600Y-11923000D02*
X14564600Y-11953000D01*
X14590000Y-7986000D02*
X14620000Y-8016000D01*
X14620000Y-7986000D02*
X14590000Y-8016000D01*
X14590000Y-8113000D02*
X14620000Y-8143000D01*
X14620000Y-8113000D02*
X14590000Y-8143000D01*
X14590000Y-8240000D02*
X14620000Y-8270000D01*
X14620000Y-8240000D02*
X14590000Y-8270000D01*
X14590000Y-12177000D02*
X14620000Y-12207000D01*
X14620000Y-12177000D02*
X14590000Y-12207000D01*
X14615400Y-9129000D02*
X14645400Y-9159000D01*
X14645400Y-9129000D02*
X14615400Y-9159000D01*
X14615400Y-9383000D02*
X14645400Y-9413000D01*
X14645400Y-9383000D02*
X14615400Y-9413000D01*
X14615400Y-9637000D02*
X14645400Y-9667000D01*
X14645400Y-9637000D02*
X14615400Y-9667000D01*
X14717000Y-6462000D02*
X14747000Y-6492000D01*
X14747000Y-6462000D02*
X14717000Y-6492000D01*
X14717000Y-6970000D02*
X14747000Y-7000000D01*
X14747000Y-6970000D02*
X14717000Y-7000000D01*
X14717000Y-7224000D02*
X14747000Y-7254000D01*
X14747000Y-7224000D02*
X14717000Y-7254000D01*
X14717000Y-11923000D02*
X14747000Y-11953000D01*
X14747000Y-11923000D02*
X14717000Y-11953000D01*
X14717000Y-12177000D02*
X14747000Y-12207000D01*
X14747000Y-12177000D02*
X14717000Y-12207000D01*
X14844000Y-7986000D02*
X14874000Y-8016000D01*
X14874000Y-7986000D02*
X14844000Y-8016000D01*
X14844000Y-8113000D02*
X14874000Y-8143000D01*
X14874000Y-8113000D02*
X14844000Y-8143000D01*
X14844000Y-8240000D02*
X14874000Y-8270000D01*
X14874000Y-8240000D02*
X14844000Y-8270000D01*
X14971000Y-6462000D02*
X15001000Y-6492000D01*
X15001000Y-6462000D02*
X14971000Y-6492000D01*
X14971000Y-6589000D02*
X15001000Y-6619000D01*
X15001000Y-6589000D02*
X14971000Y-6619000D01*
X14971000Y-6843000D02*
X15001000Y-6873000D01*
X15001000Y-6843000D02*
X14971000Y-6873000D01*
X14971000Y-7097000D02*
X15001000Y-7127000D01*
X15001000Y-7097000D02*
X14971000Y-7127000D01*
X14971000Y-7351000D02*
X15001000Y-7381000D01*
X15001000Y-7351000D02*
X14971000Y-7381000D01*
X14971000Y-7605000D02*
X15001000Y-7635000D01*
X15001000Y-7605000D02*
X14971000Y-7635000D01*
X14971000Y-8367000D02*
X15001000Y-8397000D01*
X15001000Y-8367000D02*
X14971000Y-8397000D01*
X14971000Y-8621000D02*
X15001000Y-8651000D01*
X15001000Y-8621000D02*
X14971000Y-8651000D01*
X14971000Y-8875000D02*
X15001000Y-8905000D01*
X15001000Y-8875000D02*
X14971000Y-8905000D01*
X14971000Y-9129000D02*
X15001000Y-9159000D01*
X15001000Y-9129000D02*
X14971000Y-9159000D01*
X14971000Y-9383000D02*
X15001000Y-9413000D01*
X15001000Y-9383000D02*
X14971000Y-9413000D01*
X14971000Y-9637000D02*
X15001000Y-9667000D01*
X15001000Y-9637000D02*
X14971000Y-9667000D01*
X14971000Y-9891000D02*
X15001000Y-9921000D01*
X15001000Y-9891000D02*
X14971000Y-9921000D01*
X14971000Y-10145000D02*
X15001000Y-10175000D01*
X15001000Y-10145000D02*
X14971000Y-10175000D01*
X14971000Y-11923000D02*
X15001000Y-11953000D01*
X15001000Y-11923000D02*
X14971000Y-11953000D01*
X14971000Y-12177000D02*
X15001000Y-12207000D01*
X15001000Y-12177000D02*
X14971000Y-12207000D01*
X10856000Y-5972250D02*
G75*
G03X10856000Y-5972250I-30000J0D01*
G01*
X10846000Y-6007250D02*
X10846000Y-5937250D01*
X10806000Y-6007250D02*
X10806000Y-5937250D01*
X10846000Y-5937250D02*
G75*
G03X10806000Y-5937250I-20000J0D01*
G01*
X10806000Y-6007250D02*
G75*
G03X10846000Y-6007250I20000J0D01*
G01*
X11556000Y-5972250D02*
G75*
G03X11556000Y-5972250I-30000J0D01*
G01*
X11506000Y-5937250D02*
X11506000Y-6007250D01*
X11546000Y-5937250D02*
X11546000Y-6007250D01*
X11506000Y-6007250D02*
G75*
G03X11546000Y-6007250I20000J0D01*
G01*
X11546000Y-5937250D02*
G75*
G03X11506000Y-5937250I-20000J0D01*
G01*
X10926000Y-6199750D02*
X10926000Y-6284750D01*
X10883500Y-6242250D02*
X10968500Y-6242250D01*
X11426000Y-6199750D02*
X11426000Y-6284750D01*
X11383500Y-6242250D02*
X11468500Y-6242250D01*
X11334756Y-7020356D02*
X11334756Y-6949644D01*
X11264044Y-6949644D01*
X11264044Y-7020356D01*
X11334756Y-7020356D01*
X11588756Y-7020356D02*
X11588756Y-6949644D01*
X11518044Y-6949644D01*
X11518044Y-7020356D01*
X11588756Y-7020356D01*
X11842756Y-7020356D02*
X11842756Y-6949644D01*
X11772044Y-6949644D01*
X11772044Y-7020356D01*
X11842756Y-7020356D01*
X12096756Y-7020356D02*
X12096756Y-6949644D01*
X12026044Y-6949644D01*
X12026044Y-7020356D01*
X12096756Y-7020356D01*
X12350756Y-7020356D02*
X12350756Y-6949644D01*
X12280044Y-6949644D01*
X12280044Y-7020356D01*
X12350756Y-7020356D01*
X12604756Y-7020356D02*
X12604756Y-6949644D01*
X12534044Y-6949644D01*
X12534044Y-7020356D01*
X12604756Y-7020356D01*
X12858756Y-7020356D02*
X12858756Y-6949644D01*
X12788044Y-6949644D01*
X12788044Y-7020356D01*
X12858756Y-7020356D01*
X13112756Y-7020356D02*
X13112756Y-6949644D01*
X13042044Y-6949644D01*
X13042044Y-7020356D01*
X13112756Y-7020356D01*
X13366756Y-7020356D02*
X13366756Y-6949644D01*
X13296044Y-6949644D01*
X13296044Y-7020356D01*
X13366756Y-7020356D01*
X13620756Y-7020356D02*
X13620756Y-6949644D01*
X13550044Y-6949644D01*
X13550044Y-7020356D01*
X13620756Y-7020356D01*
X10322356Y-8544356D02*
X10322356Y-8473644D01*
X10251644Y-8473644D01*
X10251644Y-8544356D01*
X10322356Y-8544356D01*
X10322356Y-8798356D02*
X10322356Y-8727644D01*
X10251644Y-8727644D01*
X10251644Y-8798356D01*
X10322356Y-8798356D01*
X10322356Y-9052356D02*
X10322356Y-8981644D01*
X10251644Y-8981644D01*
X10251644Y-9052356D01*
X10322356Y-9052356D01*
X10322356Y-9306356D02*
X10322356Y-9235644D01*
X10251644Y-9235644D01*
X10251644Y-9306356D01*
X10322356Y-9306356D01*
X10322356Y-9560356D02*
X10322356Y-9489644D01*
X10251644Y-9489644D01*
X10251644Y-9560356D01*
X10322356Y-9560356D01*
X10322356Y-9814356D02*
X10322356Y-9743644D01*
X10251644Y-9743644D01*
X10251644Y-9814356D01*
X10322356Y-9814356D01*
X10322356Y-10068356D02*
X10322356Y-9997644D01*
X10251644Y-9997644D01*
X10251644Y-10068356D01*
X10322356Y-10068356D01*
X10322356Y-10322356D02*
X10322356Y-10251644D01*
X10251644Y-10251644D01*
X10251644Y-10322356D01*
X10322356Y-10322356D01*
X10322356Y-10576356D02*
X10322356Y-10505644D01*
X10251644Y-10505644D01*
X10251644Y-10576356D01*
X10322356Y-10576356D01*
X10322356Y-10830356D02*
X10322356Y-10759644D01*
X10251644Y-10759644D01*
X10251644Y-10830356D01*
X10322356Y-10830356D01*
X14513356Y-8544356D02*
X14513356Y-8473644D01*
X14442644Y-8473644D01*
X14442644Y-8544356D01*
X14513356Y-8544356D01*
X14513356Y-8798356D02*
X14513356Y-8727644D01*
X14442644Y-8727644D01*
X14442644Y-8798356D01*
X14513356Y-8798356D01*
X14513356Y-9052356D02*
X14513356Y-8981644D01*
X14442644Y-8981644D01*
X14442644Y-9052356D01*
X14513356Y-9052356D01*
X14513356Y-9306356D02*
X14513356Y-9235644D01*
X14442644Y-9235644D01*
X14442644Y-9306356D01*
X14513356Y-9306356D01*
X14513356Y-9560356D02*
X14513356Y-9489644D01*
X14442644Y-9489644D01*
X14442644Y-9560356D01*
X14513356Y-9560356D01*
X14513356Y-9814356D02*
X14513356Y-9743644D01*
X14442644Y-9743644D01*
X14442644Y-9814356D01*
X14513356Y-9814356D01*
X14513356Y-10068356D02*
X14513356Y-9997644D01*
X14442644Y-9997644D01*
X14442644Y-10068356D01*
X14513356Y-10068356D01*
X14513356Y-10322356D02*
X14513356Y-10251644D01*
X14442644Y-10251644D01*
X14442644Y-10322356D01*
X14513356Y-10322356D01*
X14513356Y-10576356D02*
X14513356Y-10505644D01*
X14442644Y-10505644D01*
X14442644Y-10576356D01*
X14513356Y-10576356D01*
X14513356Y-10830356D02*
X14513356Y-10759644D01*
X14442644Y-10759644D01*
X14442644Y-10830356D01*
X14513356Y-10830356D01*
X14767356Y-8544356D02*
X14767356Y-8473644D01*
X14696644Y-8473644D01*
X14696644Y-8544356D01*
X14767356Y-8544356D01*
X14767356Y-8798356D02*
X14767356Y-8727644D01*
X14696644Y-8727644D01*
X14696644Y-8798356D01*
X14767356Y-8798356D01*
X14767356Y-9052356D02*
X14767356Y-8981644D01*
X14696644Y-8981644D01*
X14696644Y-9052356D01*
X14767356Y-9052356D01*
X14767356Y-9306356D02*
X14767356Y-9235644D01*
X14696644Y-9235644D01*
X14696644Y-9306356D01*
X14767356Y-9306356D01*
X14767356Y-9560356D02*
X14767356Y-9489644D01*
X14696644Y-9489644D01*
X14696644Y-9560356D01*
X14767356Y-9560356D01*
X14767356Y-9814356D02*
X14767356Y-9743644D01*
X14696644Y-9743644D01*
X14696644Y-9814356D01*
X14767356Y-9814356D01*
X14767356Y-10068356D02*
X14767356Y-9997644D01*
X14696644Y-9997644D01*
X14696644Y-10068356D01*
X14767356Y-10068356D01*
X14767356Y-10322356D02*
X14767356Y-10251644D01*
X14696644Y-10251644D01*
X14696644Y-10322356D01*
X14767356Y-10322356D01*
X14767356Y-10576356D02*
X14767356Y-10505644D01*
X14696644Y-10505644D01*
X14696644Y-10576356D01*
X14767356Y-10576356D01*
X14767356Y-10830356D02*
X14767356Y-10759644D01*
X14696644Y-10759644D01*
X14696644Y-10830356D01*
X14767356Y-10830356D01*
X11334756Y-7274356D02*
X11334756Y-7203644D01*
X11264044Y-7203644D01*
X11264044Y-7274356D01*
X11334756Y-7274356D01*
X11588756Y-7274356D02*
X11588756Y-7203644D01*
X11518044Y-7203644D01*
X11518044Y-7274356D01*
X11588756Y-7274356D01*
X11842756Y-7274356D02*
X11842756Y-7203644D01*
X11772044Y-7203644D01*
X11772044Y-7274356D01*
X11842756Y-7274356D01*
X12096756Y-7274356D02*
X12096756Y-7203644D01*
X12026044Y-7203644D01*
X12026044Y-7274356D01*
X12096756Y-7274356D01*
X12350756Y-7274356D02*
X12350756Y-7203644D01*
X12280044Y-7203644D01*
X12280044Y-7274356D01*
X12350756Y-7274356D01*
X12604756Y-7274356D02*
X12604756Y-7203644D01*
X12534044Y-7203644D01*
X12534044Y-7274356D01*
X12604756Y-7274356D01*
X12858756Y-7274356D02*
X12858756Y-7203644D01*
X12788044Y-7203644D01*
X12788044Y-7274356D01*
X12858756Y-7274356D01*
X13112756Y-7274356D02*
X13112756Y-7203644D01*
X13042044Y-7203644D01*
X13042044Y-7274356D01*
X13112756Y-7274356D01*
X13366756Y-7274356D02*
X13366756Y-7203644D01*
X13296044Y-7203644D01*
X13296044Y-7274356D01*
X13366756Y-7274356D01*
X13620756Y-7274356D02*
X13620756Y-7203644D01*
X13550044Y-7203644D01*
X13550044Y-7274356D01*
X13620756Y-7274356D01*
X11363756Y-12671856D02*
X11363756Y-12601144D01*
X11293044Y-12601144D01*
X11293044Y-12671856D01*
X11363756Y-12671856D01*
X11617756Y-12671856D02*
X11617756Y-12601144D01*
X11547044Y-12601144D01*
X11547044Y-12671856D01*
X11617756Y-12671856D01*
X11871756Y-12671856D02*
X11871756Y-12601144D01*
X11801044Y-12601144D01*
X11801044Y-12671856D01*
X11871756Y-12671856D01*
X12125756Y-12671856D02*
X12125756Y-12601144D01*
X12055044Y-12601144D01*
X12055044Y-12671856D01*
X12125756Y-12671856D01*
X12379756Y-12671856D02*
X12379756Y-12601144D01*
X12309044Y-12601144D01*
X12309044Y-12671856D01*
X12379756Y-12671856D01*
X12633756Y-12671856D02*
X12633756Y-12601144D01*
X12563044Y-12601144D01*
X12563044Y-12671856D01*
X12633756Y-12671856D01*
X12887756Y-12671856D02*
X12887756Y-12601144D01*
X12817044Y-12601144D01*
X12817044Y-12671856D01*
X12887756Y-12671856D01*
X13141756Y-12671856D02*
X13141756Y-12601144D01*
X13071044Y-12601144D01*
X13071044Y-12671856D01*
X13141756Y-12671856D01*
X13395756Y-12671856D02*
X13395756Y-12601144D01*
X13325044Y-12601144D01*
X13325044Y-12671856D01*
X13395756Y-12671856D01*
X13649756Y-12671856D02*
X13649756Y-12601144D01*
X13579044Y-12601144D01*
X13579044Y-12671856D01*
X13649756Y-12671856D01*
X10576356Y-8544356D02*
X10576356Y-8473644D01*
X10505644Y-8473644D01*
X10505644Y-8544356D01*
X10576356Y-8544356D01*
X10576356Y-8798356D02*
X10576356Y-8727644D01*
X10505644Y-8727644D01*
X10505644Y-8798356D01*
X10576356Y-8798356D01*
X10576356Y-9052356D02*
X10576356Y-8981644D01*
X10505644Y-8981644D01*
X10505644Y-9052356D01*
X10576356Y-9052356D01*
X10576356Y-9306356D02*
X10576356Y-9235644D01*
X10505644Y-9235644D01*
X10505644Y-9306356D01*
X10576356Y-9306356D01*
X10576356Y-9560356D02*
X10576356Y-9489644D01*
X10505644Y-9489644D01*
X10505644Y-9560356D01*
X10576356Y-9560356D01*
X10576356Y-9814356D02*
X10576356Y-9743644D01*
X10505644Y-9743644D01*
X10505644Y-9814356D01*
X10576356Y-9814356D01*
X10576356Y-10068356D02*
X10576356Y-9997644D01*
X10505644Y-9997644D01*
X10505644Y-10068356D01*
X10576356Y-10068356D01*
X10576356Y-10322356D02*
X10576356Y-10251644D01*
X10505644Y-10251644D01*
X10505644Y-10322356D01*
X10576356Y-10322356D01*
X10576356Y-10576356D02*
X10576356Y-10505644D01*
X10505644Y-10505644D01*
X10505644Y-10576356D01*
X10576356Y-10576356D01*
X10576356Y-10830356D02*
X10576356Y-10759644D01*
X10505644Y-10759644D01*
X10505644Y-10830356D01*
X10576356Y-10830356D01*
X10203180Y-6297040D02*
X10338180Y-6162040D01*
X10203180Y-6027040D01*
X10068180Y-6162040D01*
X10203180Y-6297040D01*
X14810740Y-6269540D02*
X14945740Y-6134540D01*
X14810740Y-5999540D01*
X14675740Y-6134540D01*
X14810740Y-6269540D01*
X10230680Y-12677520D02*
X10365680Y-12542520D01*
X10230680Y-12407520D01*
X10095680Y-12542520D01*
X10230680Y-12677520D01*
X14810740Y-12677520D02*
X14945740Y-12542520D01*
X14810740Y-12407520D01*
X14675740Y-12542520D01*
X14810740Y-12677520D01*
D12*
X10154528Y-13356014D02*
X10154528Y-13056014D01*
X10225957Y-13056014D01*
X10268814Y-13070300D01*
X10297386Y-13098871D01*
X10311671Y-13127443D01*
X10325957Y-13184586D01*
X10325957Y-13227443D01*
X10311671Y-13284586D01*
X10297386Y-13313157D01*
X10268814Y-13341729D01*
X10225957Y-13356014D01*
X10154528Y-13356014D01*
X10454528Y-13356014D02*
X10454528Y-13156014D01*
X10454528Y-13213157D02*
X10468814Y-13184586D01*
X10483100Y-13170300D01*
X10511671Y-13156014D01*
X10540243Y-13156014D01*
X10640243Y-13356014D02*
X10640243Y-13156014D01*
X10640243Y-13056014D02*
X10625957Y-13070300D01*
X10640243Y-13084586D01*
X10654528Y-13070300D01*
X10640243Y-13056014D01*
X10640243Y-13084586D01*
X10825957Y-13356014D02*
X10797386Y-13341729D01*
X10783100Y-13313157D01*
X10783100Y-13056014D01*
X10983100Y-13356014D02*
X10954528Y-13341729D01*
X10940243Y-13313157D01*
X10940243Y-13056014D01*
X11325957Y-13356014D02*
X11325957Y-13056014D01*
X11425957Y-13270300D01*
X11525957Y-13056014D01*
X11525957Y-13356014D01*
X11797386Y-13356014D02*
X11797386Y-13198871D01*
X11783100Y-13170300D01*
X11754528Y-13156014D01*
X11697386Y-13156014D01*
X11668814Y-13170300D01*
X11797386Y-13341729D02*
X11768814Y-13356014D01*
X11697386Y-13356014D01*
X11668814Y-13341729D01*
X11654528Y-13313157D01*
X11654528Y-13284586D01*
X11668814Y-13256014D01*
X11697386Y-13241729D01*
X11768814Y-13241729D01*
X11797386Y-13227443D01*
X11940243Y-13156014D02*
X11940243Y-13456014D01*
X11940243Y-13170300D02*
X11968814Y-13156014D01*
X12025957Y-13156014D01*
X12054528Y-13170300D01*
X12068814Y-13184586D01*
X12083100Y-13213157D01*
X12083100Y-13298871D01*
X12068814Y-13327443D01*
X12054528Y-13341729D01*
X12025957Y-13356014D01*
X11968814Y-13356014D01*
X11940243Y-13341729D01*
X12211671Y-13327443D02*
X12225957Y-13341729D01*
X12211671Y-13356014D01*
X12197386Y-13341729D01*
X12211671Y-13327443D01*
X12211671Y-13356014D01*
X12211671Y-13170300D02*
X12225957Y-13184586D01*
X12211671Y-13198871D01*
X12197386Y-13184586D01*
X12211671Y-13170300D01*
X12211671Y-13198871D01*
X9838100Y-13835300D02*
X9868100Y-13865300D01*
X9868100Y-13835300D02*
X9838100Y-13865300D01*
X10211671Y-13686014D02*
X10240243Y-13686014D01*
X10268814Y-13700300D01*
X10283100Y-13714586D01*
X10297386Y-13743157D01*
X10311671Y-13800300D01*
X10311671Y-13871729D01*
X10297386Y-13928871D01*
X10283100Y-13957443D01*
X10268814Y-13971729D01*
X10240243Y-13986014D01*
X10211671Y-13986014D01*
X10183100Y-13971729D01*
X10168814Y-13957443D01*
X10154528Y-13928871D01*
X10140243Y-13871729D01*
X10140243Y-13800300D01*
X10154528Y-13743157D01*
X10168814Y-13714586D01*
X10183100Y-13700300D01*
X10211671Y-13686014D01*
X10440243Y-13957443D02*
X10454528Y-13971729D01*
X10440243Y-13986014D01*
X10425957Y-13971729D01*
X10440243Y-13957443D01*
X10440243Y-13986014D01*
X10554528Y-13686014D02*
X10740243Y-13686014D01*
X10640243Y-13800300D01*
X10683100Y-13800300D01*
X10711671Y-13814586D01*
X10725957Y-13828871D01*
X10740243Y-13857443D01*
X10740243Y-13928871D01*
X10725957Y-13957443D01*
X10711671Y-13971729D01*
X10683100Y-13986014D01*
X10597386Y-13986014D01*
X10568814Y-13971729D01*
X10554528Y-13957443D01*
X10925957Y-13686014D02*
X10954528Y-13686014D01*
X10983100Y-13700300D01*
X10997386Y-13714586D01*
X11011671Y-13743157D01*
X11025957Y-13800300D01*
X11025957Y-13871729D01*
X11011671Y-13928871D01*
X10997386Y-13957443D01*
X10983100Y-13971729D01*
X10954528Y-13986014D01*
X10925957Y-13986014D01*
X10897386Y-13971729D01*
X10883100Y-13957443D01*
X10868814Y-13928871D01*
X10854528Y-13871729D01*
X10854528Y-13800300D01*
X10868814Y-13743157D01*
X10883100Y-13714586D01*
X10897386Y-13700300D01*
X10925957Y-13686014D01*
X11154528Y-13986014D02*
X11154528Y-13786014D01*
X11154528Y-13814586D02*
X11168814Y-13800300D01*
X11197386Y-13786014D01*
X11240243Y-13786014D01*
X11268814Y-13800300D01*
X11283100Y-13828871D01*
X11283100Y-13986014D01*
X11283100Y-13828871D02*
X11297386Y-13800300D01*
X11325957Y-13786014D01*
X11368814Y-13786014D01*
X11397386Y-13800300D01*
X11411671Y-13828871D01*
X11411671Y-13986014D01*
X11554528Y-13986014D02*
X11554528Y-13786014D01*
X11554528Y-13814586D02*
X11568814Y-13800300D01*
X11597386Y-13786014D01*
X11640243Y-13786014D01*
X11668814Y-13800300D01*
X11683100Y-13828871D01*
X11683100Y-13986014D01*
X11683100Y-13828871D02*
X11697386Y-13800300D01*
X11725957Y-13786014D01*
X11768814Y-13786014D01*
X11797386Y-13800300D01*
X11811671Y-13828871D01*
X11811671Y-13986014D01*
X12397386Y-13671729D02*
X12140243Y-14057443D01*
X12783100Y-13686014D02*
X12811671Y-13686014D01*
X12840243Y-13700300D01*
X12854528Y-13714586D01*
X12868814Y-13743157D01*
X12883100Y-13800300D01*
X12883100Y-13871729D01*
X12868814Y-13928871D01*
X12854528Y-13957443D01*
X12840243Y-13971729D01*
X12811671Y-13986014D01*
X12783100Y-13986014D01*
X12754528Y-13971729D01*
X12740243Y-13957443D01*
X12725957Y-13928871D01*
X12711671Y-13871729D01*
X12711671Y-13800300D01*
X12725957Y-13743157D01*
X12740243Y-13714586D01*
X12754528Y-13700300D01*
X12783100Y-13686014D01*
X13011671Y-13957443D02*
X13025957Y-13971729D01*
X13011671Y-13986014D01*
X12997386Y-13971729D01*
X13011671Y-13957443D01*
X13011671Y-13986014D01*
X13211671Y-13686014D02*
X13240243Y-13686014D01*
X13268814Y-13700300D01*
X13283100Y-13714586D01*
X13297386Y-13743157D01*
X13311671Y-13800300D01*
X13311671Y-13871729D01*
X13297386Y-13928871D01*
X13283100Y-13957443D01*
X13268814Y-13971729D01*
X13240243Y-13986014D01*
X13211671Y-13986014D01*
X13183100Y-13971729D01*
X13168814Y-13957443D01*
X13154528Y-13928871D01*
X13140243Y-13871729D01*
X13140243Y-13800300D01*
X13154528Y-13743157D01*
X13168814Y-13714586D01*
X13183100Y-13700300D01*
X13211671Y-13686014D01*
X13597386Y-13986014D02*
X13425957Y-13986014D01*
X13511671Y-13986014D02*
X13511671Y-13686014D01*
X13483100Y-13728871D01*
X13454528Y-13757443D01*
X13425957Y-13771729D01*
X13711671Y-13714586D02*
X13725957Y-13700300D01*
X13754528Y-13686014D01*
X13825957Y-13686014D01*
X13854528Y-13700300D01*
X13868814Y-13714586D01*
X13883100Y-13743157D01*
X13883100Y-13771729D01*
X13868814Y-13814586D01*
X13697386Y-13986014D01*
X13883100Y-13986014D01*
X13997386Y-13686014D02*
X13997386Y-13743157D01*
X14111671Y-13686014D02*
X14111671Y-13743157D01*
X14554528Y-14100300D02*
X14540243Y-14086014D01*
X14511671Y-14043157D01*
X14497386Y-14014586D01*
X14483100Y-13971729D01*
X14468814Y-13900300D01*
X14468814Y-13843157D01*
X14483100Y-13771729D01*
X14497386Y-13728871D01*
X14511671Y-13700300D01*
X14540243Y-13657443D01*
X14554528Y-13643157D01*
X14654528Y-13714586D02*
X14668814Y-13700300D01*
X14697386Y-13686014D01*
X14768814Y-13686014D01*
X14797386Y-13700300D01*
X14811671Y-13714586D01*
X14825957Y-13743157D01*
X14825957Y-13771729D01*
X14811671Y-13814586D01*
X14640243Y-13986014D01*
X14825957Y-13986014D01*
X14997386Y-13814586D02*
X14968814Y-13800300D01*
X14954528Y-13786014D01*
X14940243Y-13757443D01*
X14940243Y-13743157D01*
X14954528Y-13714586D01*
X14968814Y-13700300D01*
X14997386Y-13686014D01*
X15054528Y-13686014D01*
X15083100Y-13700300D01*
X15097386Y-13714586D01*
X15111671Y-13743157D01*
X15111671Y-13757443D01*
X15097386Y-13786014D01*
X15083100Y-13800300D01*
X15054528Y-13814586D01*
X14997386Y-13814586D01*
X14968814Y-13828871D01*
X14954528Y-13843157D01*
X14940243Y-13871729D01*
X14940243Y-13928871D01*
X14954528Y-13957443D01*
X14968814Y-13971729D01*
X14997386Y-13986014D01*
X15054528Y-13986014D01*
X15083100Y-13971729D01*
X15097386Y-13957443D01*
X15111671Y-13928871D01*
X15111671Y-13871729D01*
X15097386Y-13843157D01*
X15083100Y-13828871D01*
X15054528Y-13814586D01*
X15368814Y-13686014D02*
X15311671Y-13686014D01*
X15283100Y-13700300D01*
X15268814Y-13714586D01*
X15240243Y-13757443D01*
X15225957Y-13814586D01*
X15225957Y-13928871D01*
X15240243Y-13957443D01*
X15254528Y-13971729D01*
X15283100Y-13986014D01*
X15340243Y-13986014D01*
X15368814Y-13971729D01*
X15383100Y-13957443D01*
X15397386Y-13928871D01*
X15397386Y-13857443D01*
X15383100Y-13828871D01*
X15368814Y-13814586D01*
X15340243Y-13800300D01*
X15283100Y-13800300D01*
X15254528Y-13814586D01*
X15240243Y-13828871D01*
X15225957Y-13857443D01*
X15754528Y-13986014D02*
X15754528Y-13686014D01*
X15883100Y-13986014D02*
X15883100Y-13828871D01*
X15868814Y-13800300D01*
X15840243Y-13786014D01*
X15797386Y-13786014D01*
X15768814Y-13800300D01*
X15754528Y-13814586D01*
X16068814Y-13986014D02*
X16040243Y-13971729D01*
X16025957Y-13957443D01*
X16011671Y-13928871D01*
X16011671Y-13843157D01*
X16025957Y-13814586D01*
X16040243Y-13800300D01*
X16068814Y-13786014D01*
X16111671Y-13786014D01*
X16140243Y-13800300D01*
X16154528Y-13814586D01*
X16168814Y-13843157D01*
X16168814Y-13928871D01*
X16154528Y-13957443D01*
X16140243Y-13971729D01*
X16111671Y-13986014D01*
X16068814Y-13986014D01*
X16340243Y-13986014D02*
X16311671Y-13971729D01*
X16297386Y-13943157D01*
X16297386Y-13686014D01*
X16568814Y-13971729D02*
X16540243Y-13986014D01*
X16483100Y-13986014D01*
X16454528Y-13971729D01*
X16440243Y-13943157D01*
X16440243Y-13828871D01*
X16454528Y-13800300D01*
X16483100Y-13786014D01*
X16540243Y-13786014D01*
X16568814Y-13800300D01*
X16583100Y-13828871D01*
X16583100Y-13857443D01*
X16440243Y-13886014D01*
X16697386Y-13971729D02*
X16725957Y-13986014D01*
X16783100Y-13986014D01*
X16811671Y-13971729D01*
X16825957Y-13943157D01*
X16825957Y-13928871D01*
X16811671Y-13900300D01*
X16783100Y-13886014D01*
X16740243Y-13886014D01*
X16711671Y-13871729D01*
X16697386Y-13843157D01*
X16697386Y-13828871D01*
X16711671Y-13800300D01*
X16740243Y-13786014D01*
X16783100Y-13786014D01*
X16811671Y-13800300D01*
X16925957Y-14100300D02*
X16940243Y-14086014D01*
X16968814Y-14043157D01*
X16983100Y-14014586D01*
X16997386Y-13971729D01*
X17011671Y-13900300D01*
X17011671Y-13843157D01*
X16997386Y-13771729D01*
X16983100Y-13728871D01*
X16968814Y-13700300D01*
X16940243Y-13657443D01*
X16925957Y-13643157D01*
X9868100Y-14246300D02*
G75*
G03X9868100Y-14246300I-30000J0D01*
G01*
X10211671Y-14082014D02*
X10240243Y-14082014D01*
X10268814Y-14096300D01*
X10283100Y-14110586D01*
X10297386Y-14139157D01*
X10311671Y-14196300D01*
X10311671Y-14267729D01*
X10297386Y-14324871D01*
X10283100Y-14353443D01*
X10268814Y-14367729D01*
X10240243Y-14382014D01*
X10211671Y-14382014D01*
X10183100Y-14367729D01*
X10168814Y-14353443D01*
X10154528Y-14324871D01*
X10140243Y-14267729D01*
X10140243Y-14196300D01*
X10154528Y-14139157D01*
X10168814Y-14110586D01*
X10183100Y-14096300D01*
X10211671Y-14082014D01*
X10440243Y-14353443D02*
X10454528Y-14367729D01*
X10440243Y-14382014D01*
X10425957Y-14367729D01*
X10440243Y-14353443D01*
X10440243Y-14382014D01*
X10711671Y-14082014D02*
X10654528Y-14082014D01*
X10625957Y-14096300D01*
X10611671Y-14110586D01*
X10583100Y-14153443D01*
X10568814Y-14210586D01*
X10568814Y-14324871D01*
X10583100Y-14353443D01*
X10597386Y-14367729D01*
X10625957Y-14382014D01*
X10683100Y-14382014D01*
X10711671Y-14367729D01*
X10725957Y-14353443D01*
X10740243Y-14324871D01*
X10740243Y-14253443D01*
X10725957Y-14224871D01*
X10711671Y-14210586D01*
X10683100Y-14196300D01*
X10625957Y-14196300D01*
X10597386Y-14210586D01*
X10583100Y-14224871D01*
X10568814Y-14253443D01*
X10925957Y-14082014D02*
X10954528Y-14082014D01*
X10983100Y-14096300D01*
X10997386Y-14110586D01*
X11011671Y-14139157D01*
X11025957Y-14196300D01*
X11025957Y-14267729D01*
X11011671Y-14324871D01*
X10997386Y-14353443D01*
X10983100Y-14367729D01*
X10954528Y-14382014D01*
X10925957Y-14382014D01*
X10897386Y-14367729D01*
X10883100Y-14353443D01*
X10868814Y-14324871D01*
X10854528Y-14267729D01*
X10854528Y-14196300D01*
X10868814Y-14139157D01*
X10883100Y-14110586D01*
X10897386Y-14096300D01*
X10925957Y-14082014D01*
X11154528Y-14382014D02*
X11154528Y-14182014D01*
X11154528Y-14210586D02*
X11168814Y-14196300D01*
X11197386Y-14182014D01*
X11240243Y-14182014D01*
X11268814Y-14196300D01*
X11283100Y-14224871D01*
X11283100Y-14382014D01*
X11283100Y-14224871D02*
X11297386Y-14196300D01*
X11325957Y-14182014D01*
X11368814Y-14182014D01*
X11397386Y-14196300D01*
X11411671Y-14224871D01*
X11411671Y-14382014D01*
X11554528Y-14382014D02*
X11554528Y-14182014D01*
X11554528Y-14210586D02*
X11568814Y-14196300D01*
X11597386Y-14182014D01*
X11640243Y-14182014D01*
X11668814Y-14196300D01*
X11683100Y-14224871D01*
X11683100Y-14382014D01*
X11683100Y-14224871D02*
X11697386Y-14196300D01*
X11725957Y-14182014D01*
X11768814Y-14182014D01*
X11797386Y-14196300D01*
X11811671Y-14224871D01*
X11811671Y-14382014D01*
X12397386Y-14067729D02*
X12140243Y-14453443D01*
X12783100Y-14082014D02*
X12811671Y-14082014D01*
X12840243Y-14096300D01*
X12854528Y-14110586D01*
X12868814Y-14139157D01*
X12883100Y-14196300D01*
X12883100Y-14267729D01*
X12868814Y-14324871D01*
X12854528Y-14353443D01*
X12840243Y-14367729D01*
X12811671Y-14382014D01*
X12783100Y-14382014D01*
X12754528Y-14367729D01*
X12740243Y-14353443D01*
X12725957Y-14324871D01*
X12711671Y-14267729D01*
X12711671Y-14196300D01*
X12725957Y-14139157D01*
X12740243Y-14110586D01*
X12754528Y-14096300D01*
X12783100Y-14082014D01*
X13011671Y-14353443D02*
X13025957Y-14367729D01*
X13011671Y-14382014D01*
X12997386Y-14367729D01*
X13011671Y-14353443D01*
X13011671Y-14382014D01*
X13211671Y-14082014D02*
X13240243Y-14082014D01*
X13268814Y-14096300D01*
X13283100Y-14110586D01*
X13297386Y-14139157D01*
X13311671Y-14196300D01*
X13311671Y-14267729D01*
X13297386Y-14324871D01*
X13283100Y-14353443D01*
X13268814Y-14367729D01*
X13240243Y-14382014D01*
X13211671Y-14382014D01*
X13183100Y-14367729D01*
X13168814Y-14353443D01*
X13154528Y-14324871D01*
X13140243Y-14267729D01*
X13140243Y-14196300D01*
X13154528Y-14139157D01*
X13168814Y-14110586D01*
X13183100Y-14096300D01*
X13211671Y-14082014D01*
X13425957Y-14110586D02*
X13440243Y-14096300D01*
X13468814Y-14082014D01*
X13540243Y-14082014D01*
X13568814Y-14096300D01*
X13583100Y-14110586D01*
X13597386Y-14139157D01*
X13597386Y-14167729D01*
X13583100Y-14210586D01*
X13411671Y-14382014D01*
X13597386Y-14382014D01*
X13854528Y-14182014D02*
X13854528Y-14382014D01*
X13783100Y-14067729D02*
X13711671Y-14282014D01*
X13897386Y-14282014D01*
X13997386Y-14082014D02*
X13997386Y-14139157D01*
X14111671Y-14082014D02*
X14111671Y-14139157D01*
X14554528Y-14496300D02*
X14540243Y-14482014D01*
X14511671Y-14439157D01*
X14497386Y-14410586D01*
X14483100Y-14367729D01*
X14468814Y-14296300D01*
X14468814Y-14239157D01*
X14483100Y-14167729D01*
X14497386Y-14124871D01*
X14511671Y-14096300D01*
X14540243Y-14053443D01*
X14554528Y-14039157D01*
X14725957Y-14082014D02*
X14754528Y-14082014D01*
X14783100Y-14096300D01*
X14797386Y-14110586D01*
X14811671Y-14139157D01*
X14825957Y-14196300D01*
X14825957Y-14267729D01*
X14811671Y-14324871D01*
X14797386Y-14353443D01*
X14783100Y-14367729D01*
X14754528Y-14382014D01*
X14725957Y-14382014D01*
X14697386Y-14367729D01*
X14683100Y-14353443D01*
X14668814Y-14324871D01*
X14654528Y-14267729D01*
X14654528Y-14196300D01*
X14668814Y-14139157D01*
X14683100Y-14110586D01*
X14697386Y-14096300D01*
X14725957Y-14082014D01*
X15183100Y-14382014D02*
X15183100Y-14082014D01*
X15311671Y-14382014D02*
X15311671Y-14224871D01*
X15297386Y-14196300D01*
X15268814Y-14182014D01*
X15225957Y-14182014D01*
X15197386Y-14196300D01*
X15183100Y-14210586D01*
X15497386Y-14382014D02*
X15468814Y-14367729D01*
X15454528Y-14353443D01*
X15440243Y-14324871D01*
X15440243Y-14239157D01*
X15454528Y-14210586D01*
X15468814Y-14196300D01*
X15497386Y-14182014D01*
X15540243Y-14182014D01*
X15568814Y-14196300D01*
X15583100Y-14210586D01*
X15597386Y-14239157D01*
X15597386Y-14324871D01*
X15583100Y-14353443D01*
X15568814Y-14367729D01*
X15540243Y-14382014D01*
X15497386Y-14382014D01*
X15768814Y-14382014D02*
X15740243Y-14367729D01*
X15725957Y-14339157D01*
X15725957Y-14082014D01*
X15997386Y-14367729D02*
X15968814Y-14382014D01*
X15911671Y-14382014D01*
X15883100Y-14367729D01*
X15868814Y-14339157D01*
X15868814Y-14224871D01*
X15883100Y-14196300D01*
X15911671Y-14182014D01*
X15968814Y-14182014D01*
X15997386Y-14196300D01*
X16011671Y-14224871D01*
X16011671Y-14253443D01*
X15868814Y-14282014D01*
X16125957Y-14367729D02*
X16154528Y-14382014D01*
X16211671Y-14382014D01*
X16240243Y-14367729D01*
X16254528Y-14339157D01*
X16254528Y-14324871D01*
X16240243Y-14296300D01*
X16211671Y-14282014D01*
X16168814Y-14282014D01*
X16140243Y-14267729D01*
X16125957Y-14239157D01*
X16125957Y-14224871D01*
X16140243Y-14196300D01*
X16168814Y-14182014D01*
X16211671Y-14182014D01*
X16240243Y-14196300D01*
X16611671Y-14267729D02*
X16840243Y-14267729D01*
X16725957Y-14382014D02*
X16725957Y-14153443D01*
X17197386Y-14110586D02*
X17211671Y-14096300D01*
X17240243Y-14082014D01*
X17311671Y-14082014D01*
X17340243Y-14096300D01*
X17354528Y-14110586D01*
X17368814Y-14139157D01*
X17368814Y-14167729D01*
X17354528Y-14210586D01*
X17183100Y-14382014D01*
X17368814Y-14382014D01*
X17711671Y-14367729D02*
X17740243Y-14382014D01*
X17797386Y-14382014D01*
X17825957Y-14367729D01*
X17840243Y-14339157D01*
X17840243Y-14324871D01*
X17825957Y-14296300D01*
X17797386Y-14282014D01*
X17754528Y-14282014D01*
X17725957Y-14267729D01*
X17711671Y-14239157D01*
X17711671Y-14224871D01*
X17725957Y-14196300D01*
X17754528Y-14182014D01*
X17797386Y-14182014D01*
X17825957Y-14196300D01*
X18011671Y-14382014D02*
X17983100Y-14367729D01*
X17968814Y-14339157D01*
X17968814Y-14082014D01*
X18168814Y-14382014D02*
X18140243Y-14367729D01*
X18125957Y-14353443D01*
X18111671Y-14324871D01*
X18111671Y-14239157D01*
X18125957Y-14210586D01*
X18140243Y-14196300D01*
X18168814Y-14182014D01*
X18211671Y-14182014D01*
X18240243Y-14196300D01*
X18254528Y-14210586D01*
X18268814Y-14239157D01*
X18268814Y-14324871D01*
X18254528Y-14353443D01*
X18240243Y-14367729D01*
X18211671Y-14382014D01*
X18168814Y-14382014D01*
X18354528Y-14182014D02*
X18468814Y-14182014D01*
X18397386Y-14082014D02*
X18397386Y-14339157D01*
X18411671Y-14367729D01*
X18440243Y-14382014D01*
X18468814Y-14382014D01*
X18554528Y-14367729D02*
X18583100Y-14382014D01*
X18640243Y-14382014D01*
X18668814Y-14367729D01*
X18683100Y-14339157D01*
X18683100Y-14324871D01*
X18668814Y-14296300D01*
X18640243Y-14282014D01*
X18597386Y-14282014D01*
X18568814Y-14267729D01*
X18554528Y-14239157D01*
X18554528Y-14224871D01*
X18568814Y-14196300D01*
X18597386Y-14182014D01*
X18640243Y-14182014D01*
X18668814Y-14196300D01*
X18783100Y-14496300D02*
X18797386Y-14482014D01*
X18825957Y-14439157D01*
X18840243Y-14410586D01*
X18854528Y-14367729D01*
X18868814Y-14296300D01*
X18868814Y-14239157D01*
X18854528Y-14167729D01*
X18840243Y-14124871D01*
X18825957Y-14096300D01*
X18797386Y-14053443D01*
X18783100Y-14039157D01*
X9825600Y-14599800D02*
X9825600Y-14684800D01*
X9783100Y-14642300D02*
X9868100Y-14642300D01*
X10211671Y-14478014D02*
X10240243Y-14478014D01*
X10268814Y-14492300D01*
X10283100Y-14506586D01*
X10297386Y-14535157D01*
X10311671Y-14592300D01*
X10311671Y-14663729D01*
X10297386Y-14720871D01*
X10283100Y-14749443D01*
X10268814Y-14763729D01*
X10240243Y-14778014D01*
X10211671Y-14778014D01*
X10183100Y-14763729D01*
X10168814Y-14749443D01*
X10154528Y-14720871D01*
X10140243Y-14663729D01*
X10140243Y-14592300D01*
X10154528Y-14535157D01*
X10168814Y-14506586D01*
X10183100Y-14492300D01*
X10211671Y-14478014D01*
X10440243Y-14749443D02*
X10454528Y-14763729D01*
X10440243Y-14778014D01*
X10425957Y-14763729D01*
X10440243Y-14749443D01*
X10440243Y-14778014D01*
X10625957Y-14606586D02*
X10597386Y-14592300D01*
X10583100Y-14578014D01*
X10568814Y-14549443D01*
X10568814Y-14535157D01*
X10583100Y-14506586D01*
X10597386Y-14492300D01*
X10625957Y-14478014D01*
X10683100Y-14478014D01*
X10711671Y-14492300D01*
X10725957Y-14506586D01*
X10740243Y-14535157D01*
X10740243Y-14549443D01*
X10725957Y-14578014D01*
X10711671Y-14592300D01*
X10683100Y-14606586D01*
X10625957Y-14606586D01*
X10597386Y-14620871D01*
X10583100Y-14635157D01*
X10568814Y-14663729D01*
X10568814Y-14720871D01*
X10583100Y-14749443D01*
X10597386Y-14763729D01*
X10625957Y-14778014D01*
X10683100Y-14778014D01*
X10711671Y-14763729D01*
X10725957Y-14749443D01*
X10740243Y-14720871D01*
X10740243Y-14663729D01*
X10725957Y-14635157D01*
X10711671Y-14620871D01*
X10683100Y-14606586D01*
X11011671Y-14478014D02*
X10868814Y-14478014D01*
X10854528Y-14620871D01*
X10868814Y-14606586D01*
X10897386Y-14592300D01*
X10968814Y-14592300D01*
X10997386Y-14606586D01*
X11011671Y-14620871D01*
X11025957Y-14649443D01*
X11025957Y-14720871D01*
X11011671Y-14749443D01*
X10997386Y-14763729D01*
X10968814Y-14778014D01*
X10897386Y-14778014D01*
X10868814Y-14763729D01*
X10854528Y-14749443D01*
X11154528Y-14778014D02*
X11154528Y-14578014D01*
X11154528Y-14606586D02*
X11168814Y-14592300D01*
X11197386Y-14578014D01*
X11240243Y-14578014D01*
X11268814Y-14592300D01*
X11283100Y-14620871D01*
X11283100Y-14778014D01*
X11283100Y-14620871D02*
X11297386Y-14592300D01*
X11325957Y-14578014D01*
X11368814Y-14578014D01*
X11397386Y-14592300D01*
X11411671Y-14620871D01*
X11411671Y-14778014D01*
X11554528Y-14778014D02*
X11554528Y-14578014D01*
X11554528Y-14606586D02*
X11568814Y-14592300D01*
X11597386Y-14578014D01*
X11640243Y-14578014D01*
X11668814Y-14592300D01*
X11683100Y-14620871D01*
X11683100Y-14778014D01*
X11683100Y-14620871D02*
X11697386Y-14592300D01*
X11725957Y-14578014D01*
X11768814Y-14578014D01*
X11797386Y-14592300D01*
X11811671Y-14620871D01*
X11811671Y-14778014D01*
X12397386Y-14463729D02*
X12140243Y-14849443D01*
X12783100Y-14478014D02*
X12811671Y-14478014D01*
X12840243Y-14492300D01*
X12854528Y-14506586D01*
X12868814Y-14535157D01*
X12883100Y-14592300D01*
X12883100Y-14663729D01*
X12868814Y-14720871D01*
X12854528Y-14749443D01*
X12840243Y-14763729D01*
X12811671Y-14778014D01*
X12783100Y-14778014D01*
X12754528Y-14763729D01*
X12740243Y-14749443D01*
X12725957Y-14720871D01*
X12711671Y-14663729D01*
X12711671Y-14592300D01*
X12725957Y-14535157D01*
X12740243Y-14506586D01*
X12754528Y-14492300D01*
X12783100Y-14478014D01*
X13011671Y-14749443D02*
X13025957Y-14763729D01*
X13011671Y-14778014D01*
X12997386Y-14763729D01*
X13011671Y-14749443D01*
X13011671Y-14778014D01*
X13211671Y-14478014D02*
X13240243Y-14478014D01*
X13268814Y-14492300D01*
X13283100Y-14506586D01*
X13297386Y-14535157D01*
X13311671Y-14592300D01*
X13311671Y-14663729D01*
X13297386Y-14720871D01*
X13283100Y-14749443D01*
X13268814Y-14763729D01*
X13240243Y-14778014D01*
X13211671Y-14778014D01*
X13183100Y-14763729D01*
X13168814Y-14749443D01*
X13154528Y-14720871D01*
X13140243Y-14663729D01*
X13140243Y-14592300D01*
X13154528Y-14535157D01*
X13168814Y-14506586D01*
X13183100Y-14492300D01*
X13211671Y-14478014D01*
X13411671Y-14478014D02*
X13597386Y-14478014D01*
X13497386Y-14592300D01*
X13540243Y-14592300D01*
X13568814Y-14606586D01*
X13583100Y-14620871D01*
X13597386Y-14649443D01*
X13597386Y-14720871D01*
X13583100Y-14749443D01*
X13568814Y-14763729D01*
X13540243Y-14778014D01*
X13454528Y-14778014D01*
X13425957Y-14763729D01*
X13411671Y-14749443D01*
X13697386Y-14478014D02*
X13883100Y-14478014D01*
X13783100Y-14592300D01*
X13825957Y-14592300D01*
X13854528Y-14606586D01*
X13868814Y-14620871D01*
X13883100Y-14649443D01*
X13883100Y-14720871D01*
X13868814Y-14749443D01*
X13854528Y-14763729D01*
X13825957Y-14778014D01*
X13740243Y-14778014D01*
X13711671Y-14763729D01*
X13697386Y-14749443D01*
X13997386Y-14478014D02*
X13997386Y-14535157D01*
X14111671Y-14478014D02*
X14111671Y-14535157D01*
X14554528Y-14892300D02*
X14540243Y-14878014D01*
X14511671Y-14835157D01*
X14497386Y-14806586D01*
X14483100Y-14763729D01*
X14468814Y-14692300D01*
X14468814Y-14635157D01*
X14483100Y-14563729D01*
X14497386Y-14520871D01*
X14511671Y-14492300D01*
X14540243Y-14449443D01*
X14554528Y-14435157D01*
X14654528Y-14506586D02*
X14668814Y-14492300D01*
X14697386Y-14478014D01*
X14768814Y-14478014D01*
X14797386Y-14492300D01*
X14811671Y-14506586D01*
X14825957Y-14535157D01*
X14825957Y-14563729D01*
X14811671Y-14606586D01*
X14640243Y-14778014D01*
X14825957Y-14778014D01*
X15183100Y-14778014D02*
X15183100Y-14478014D01*
X15311671Y-14778014D02*
X15311671Y-14620871D01*
X15297386Y-14592300D01*
X15268814Y-14578014D01*
X15225957Y-14578014D01*
X15197386Y-14592300D01*
X15183100Y-14606586D01*
X15497386Y-14778014D02*
X15468814Y-14763729D01*
X15454528Y-14749443D01*
X15440243Y-14720871D01*
X15440243Y-14635157D01*
X15454528Y-14606586D01*
X15468814Y-14592300D01*
X15497386Y-14578014D01*
X15540243Y-14578014D01*
X15568814Y-14592300D01*
X15583100Y-14606586D01*
X15597386Y-14635157D01*
X15597386Y-14720871D01*
X15583100Y-14749443D01*
X15568814Y-14763729D01*
X15540243Y-14778014D01*
X15497386Y-14778014D01*
X15768814Y-14778014D02*
X15740243Y-14763729D01*
X15725957Y-14735157D01*
X15725957Y-14478014D01*
X15997386Y-14763729D02*
X15968814Y-14778014D01*
X15911671Y-14778014D01*
X15883100Y-14763729D01*
X15868814Y-14735157D01*
X15868814Y-14620871D01*
X15883100Y-14592300D01*
X15911671Y-14578014D01*
X15968814Y-14578014D01*
X15997386Y-14592300D01*
X16011671Y-14620871D01*
X16011671Y-14649443D01*
X15868814Y-14678014D01*
X16125957Y-14763729D02*
X16154528Y-14778014D01*
X16211671Y-14778014D01*
X16240243Y-14763729D01*
X16254528Y-14735157D01*
X16254528Y-14720871D01*
X16240243Y-14692300D01*
X16211671Y-14678014D01*
X16168814Y-14678014D01*
X16140243Y-14663729D01*
X16125957Y-14635157D01*
X16125957Y-14620871D01*
X16140243Y-14592300D01*
X16168814Y-14578014D01*
X16211671Y-14578014D01*
X16240243Y-14592300D01*
X16354528Y-14892300D02*
X16368814Y-14878014D01*
X16397386Y-14835157D01*
X16411671Y-14806586D01*
X16425957Y-14763729D01*
X16440243Y-14692300D01*
X16440243Y-14635157D01*
X16425957Y-14563729D01*
X16411671Y-14520871D01*
X16397386Y-14492300D01*
X16368814Y-14449443D01*
X16354528Y-14435157D01*
X9853456Y-15073656D02*
X9853456Y-15002944D01*
X9782744Y-15002944D01*
X9782744Y-15073656D01*
X9853456Y-15073656D01*
X10311671Y-15174014D02*
X10140243Y-15174014D01*
X10225957Y-15174014D02*
X10225957Y-14874014D01*
X10197386Y-14916871D01*
X10168814Y-14945443D01*
X10140243Y-14959729D01*
X10440243Y-15145443D02*
X10454528Y-15159729D01*
X10440243Y-15174014D01*
X10425957Y-15159729D01*
X10440243Y-15145443D01*
X10440243Y-15174014D01*
X10640243Y-14874014D02*
X10668814Y-14874014D01*
X10697386Y-14888300D01*
X10711671Y-14902586D01*
X10725957Y-14931157D01*
X10740243Y-14988300D01*
X10740243Y-15059729D01*
X10725957Y-15116871D01*
X10711671Y-15145443D01*
X10697386Y-15159729D01*
X10668814Y-15174014D01*
X10640243Y-15174014D01*
X10611671Y-15159729D01*
X10597386Y-15145443D01*
X10583100Y-15116871D01*
X10568814Y-15059729D01*
X10568814Y-14988300D01*
X10583100Y-14931157D01*
X10597386Y-14902586D01*
X10611671Y-14888300D01*
X10640243Y-14874014D01*
X10925957Y-14874014D02*
X10954528Y-14874014D01*
X10983100Y-14888300D01*
X10997386Y-14902586D01*
X11011671Y-14931157D01*
X11025957Y-14988300D01*
X11025957Y-15059729D01*
X11011671Y-15116871D01*
X10997386Y-15145443D01*
X10983100Y-15159729D01*
X10954528Y-15174014D01*
X10925957Y-15174014D01*
X10897386Y-15159729D01*
X10883100Y-15145443D01*
X10868814Y-15116871D01*
X10854528Y-15059729D01*
X10854528Y-14988300D01*
X10868814Y-14931157D01*
X10883100Y-14902586D01*
X10897386Y-14888300D01*
X10925957Y-14874014D01*
X11154528Y-15174014D02*
X11154528Y-14974014D01*
X11154528Y-15002586D02*
X11168814Y-14988300D01*
X11197386Y-14974014D01*
X11240243Y-14974014D01*
X11268814Y-14988300D01*
X11283100Y-15016871D01*
X11283100Y-15174014D01*
X11283100Y-15016871D02*
X11297386Y-14988300D01*
X11325957Y-14974014D01*
X11368814Y-14974014D01*
X11397386Y-14988300D01*
X11411671Y-15016871D01*
X11411671Y-15174014D01*
X11554528Y-15174014D02*
X11554528Y-14974014D01*
X11554528Y-15002586D02*
X11568814Y-14988300D01*
X11597386Y-14974014D01*
X11640243Y-14974014D01*
X11668814Y-14988300D01*
X11683100Y-15016871D01*
X11683100Y-15174014D01*
X11683100Y-15016871D02*
X11697386Y-14988300D01*
X11725957Y-14974014D01*
X11768814Y-14974014D01*
X11797386Y-14988300D01*
X11811671Y-15016871D01*
X11811671Y-15174014D01*
X12397386Y-14859729D02*
X12140243Y-15245443D01*
X12783100Y-14874014D02*
X12811671Y-14874014D01*
X12840243Y-14888300D01*
X12854528Y-14902586D01*
X12868814Y-14931157D01*
X12883100Y-14988300D01*
X12883100Y-15059729D01*
X12868814Y-15116871D01*
X12854528Y-15145443D01*
X12840243Y-15159729D01*
X12811671Y-15174014D01*
X12783100Y-15174014D01*
X12754528Y-15159729D01*
X12740243Y-15145443D01*
X12725957Y-15116871D01*
X12711671Y-15059729D01*
X12711671Y-14988300D01*
X12725957Y-14931157D01*
X12740243Y-14902586D01*
X12754528Y-14888300D01*
X12783100Y-14874014D01*
X13011671Y-15145443D02*
X13025957Y-15159729D01*
X13011671Y-15174014D01*
X12997386Y-15159729D01*
X13011671Y-15145443D01*
X13011671Y-15174014D01*
X13211671Y-14874014D02*
X13240243Y-14874014D01*
X13268814Y-14888300D01*
X13283100Y-14902586D01*
X13297386Y-14931157D01*
X13311671Y-14988300D01*
X13311671Y-15059729D01*
X13297386Y-15116871D01*
X13283100Y-15145443D01*
X13268814Y-15159729D01*
X13240243Y-15174014D01*
X13211671Y-15174014D01*
X13183100Y-15159729D01*
X13168814Y-15145443D01*
X13154528Y-15116871D01*
X13140243Y-15059729D01*
X13140243Y-14988300D01*
X13154528Y-14931157D01*
X13168814Y-14902586D01*
X13183100Y-14888300D01*
X13211671Y-14874014D01*
X13411671Y-14874014D02*
X13597386Y-14874014D01*
X13497386Y-14988300D01*
X13540243Y-14988300D01*
X13568814Y-15002586D01*
X13583100Y-15016871D01*
X13597386Y-15045443D01*
X13597386Y-15116871D01*
X13583100Y-15145443D01*
X13568814Y-15159729D01*
X13540243Y-15174014D01*
X13454528Y-15174014D01*
X13425957Y-15159729D01*
X13411671Y-15145443D01*
X13740243Y-15174014D02*
X13797386Y-15174014D01*
X13825957Y-15159729D01*
X13840243Y-15145443D01*
X13868814Y-15102586D01*
X13883100Y-15045443D01*
X13883100Y-14931157D01*
X13868814Y-14902586D01*
X13854528Y-14888300D01*
X13825957Y-14874014D01*
X13768814Y-14874014D01*
X13740243Y-14888300D01*
X13725957Y-14902586D01*
X13711671Y-14931157D01*
X13711671Y-15002586D01*
X13725957Y-15031157D01*
X13740243Y-15045443D01*
X13768814Y-15059729D01*
X13825957Y-15059729D01*
X13854528Y-15045443D01*
X13868814Y-15031157D01*
X13883100Y-15002586D01*
X13997386Y-14874014D02*
X13997386Y-14931157D01*
X14111671Y-14874014D02*
X14111671Y-14931157D01*
X14554528Y-15288300D02*
X14540243Y-15274014D01*
X14511671Y-15231157D01*
X14497386Y-15202586D01*
X14483100Y-15159729D01*
X14468814Y-15088300D01*
X14468814Y-15031157D01*
X14483100Y-14959729D01*
X14497386Y-14916871D01*
X14511671Y-14888300D01*
X14540243Y-14845443D01*
X14554528Y-14831157D01*
X14640243Y-14874014D02*
X14840243Y-14874014D01*
X14711671Y-15174014D01*
X15011671Y-14874014D02*
X15040243Y-14874014D01*
X15068814Y-14888300D01*
X15083100Y-14902586D01*
X15097386Y-14931157D01*
X15111671Y-14988300D01*
X15111671Y-15059729D01*
X15097386Y-15116871D01*
X15083100Y-15145443D01*
X15068814Y-15159729D01*
X15040243Y-15174014D01*
X15011671Y-15174014D01*
X14983100Y-15159729D01*
X14968814Y-15145443D01*
X14954528Y-15116871D01*
X14940243Y-15059729D01*
X14940243Y-14988300D01*
X14954528Y-14931157D01*
X14968814Y-14902586D01*
X14983100Y-14888300D01*
X15011671Y-14874014D01*
X15468814Y-15174014D02*
X15468814Y-14874014D01*
X15597386Y-15174014D02*
X15597386Y-15016871D01*
X15583100Y-14988300D01*
X15554528Y-14974014D01*
X15511671Y-14974014D01*
X15483100Y-14988300D01*
X15468814Y-15002586D01*
X15783100Y-15174014D02*
X15754528Y-15159729D01*
X15740243Y-15145443D01*
X15725957Y-15116871D01*
X15725957Y-15031157D01*
X15740243Y-15002586D01*
X15754528Y-14988300D01*
X15783100Y-14974014D01*
X15825957Y-14974014D01*
X15854528Y-14988300D01*
X15868814Y-15002586D01*
X15883100Y-15031157D01*
X15883100Y-15116871D01*
X15868814Y-15145443D01*
X15854528Y-15159729D01*
X15825957Y-15174014D01*
X15783100Y-15174014D01*
X16054528Y-15174014D02*
X16025957Y-15159729D01*
X16011671Y-15131157D01*
X16011671Y-14874014D01*
X16283100Y-15159729D02*
X16254528Y-15174014D01*
X16197386Y-15174014D01*
X16168814Y-15159729D01*
X16154528Y-15131157D01*
X16154528Y-15016871D01*
X16168814Y-14988300D01*
X16197386Y-14974014D01*
X16254528Y-14974014D01*
X16283100Y-14988300D01*
X16297386Y-15016871D01*
X16297386Y-15045443D01*
X16154528Y-15074014D01*
X16411671Y-15159729D02*
X16440243Y-15174014D01*
X16497386Y-15174014D01*
X16525957Y-15159729D01*
X16540243Y-15131157D01*
X16540243Y-15116871D01*
X16525957Y-15088300D01*
X16497386Y-15074014D01*
X16454528Y-15074014D01*
X16425957Y-15059729D01*
X16411671Y-15031157D01*
X16411671Y-15016871D01*
X16425957Y-14988300D01*
X16454528Y-14974014D01*
X16497386Y-14974014D01*
X16525957Y-14988300D01*
X16640243Y-15288300D02*
X16654528Y-15274014D01*
X16683100Y-15231157D01*
X16697386Y-15202586D01*
X16711671Y-15159729D01*
X16725957Y-15088300D01*
X16725957Y-15031157D01*
X16711671Y-14959729D01*
X16697386Y-14916871D01*
X16683100Y-14888300D01*
X16654528Y-14845443D01*
X16640243Y-14831157D01*
X9733100Y-15569300D02*
X9868100Y-15434300D01*
X9733100Y-15299300D01*
X9598100Y-15434300D01*
X9733100Y-15569300D01*
X10140243Y-15298586D02*
X10154528Y-15284300D01*
X10183100Y-15270014D01*
X10254528Y-15270014D01*
X10283100Y-15284300D01*
X10297386Y-15298586D01*
X10311671Y-15327157D01*
X10311671Y-15355729D01*
X10297386Y-15398586D01*
X10125957Y-15570014D01*
X10311671Y-15570014D01*
X10440243Y-15541443D02*
X10454528Y-15555729D01*
X10440243Y-15570014D01*
X10425957Y-15555729D01*
X10440243Y-15541443D01*
X10440243Y-15570014D01*
X10554528Y-15270014D02*
X10754528Y-15270014D01*
X10625957Y-15570014D01*
X10925957Y-15270014D02*
X10954528Y-15270014D01*
X10983100Y-15284300D01*
X10997386Y-15298586D01*
X11011671Y-15327157D01*
X11025957Y-15384300D01*
X11025957Y-15455729D01*
X11011671Y-15512871D01*
X10997386Y-15541443D01*
X10983100Y-15555729D01*
X10954528Y-15570014D01*
X10925957Y-15570014D01*
X10897386Y-15555729D01*
X10883100Y-15541443D01*
X10868814Y-15512871D01*
X10854528Y-15455729D01*
X10854528Y-15384300D01*
X10868814Y-15327157D01*
X10883100Y-15298586D01*
X10897386Y-15284300D01*
X10925957Y-15270014D01*
X11154528Y-15570014D02*
X11154528Y-15370014D01*
X11154528Y-15398586D02*
X11168814Y-15384300D01*
X11197386Y-15370014D01*
X11240243Y-15370014D01*
X11268814Y-15384300D01*
X11283100Y-15412871D01*
X11283100Y-15570014D01*
X11283100Y-15412871D02*
X11297386Y-15384300D01*
X11325957Y-15370014D01*
X11368814Y-15370014D01*
X11397386Y-15384300D01*
X11411671Y-15412871D01*
X11411671Y-15570014D01*
X11554528Y-15570014D02*
X11554528Y-15370014D01*
X11554528Y-15398586D02*
X11568814Y-15384300D01*
X11597386Y-15370014D01*
X11640243Y-15370014D01*
X11668814Y-15384300D01*
X11683100Y-15412871D01*
X11683100Y-15570014D01*
X11683100Y-15412871D02*
X11697386Y-15384300D01*
X11725957Y-15370014D01*
X11768814Y-15370014D01*
X11797386Y-15384300D01*
X11811671Y-15412871D01*
X11811671Y-15570014D01*
X12397386Y-15255729D02*
X12140243Y-15641443D01*
X12783100Y-15270014D02*
X12811671Y-15270014D01*
X12840243Y-15284300D01*
X12854528Y-15298586D01*
X12868814Y-15327157D01*
X12883100Y-15384300D01*
X12883100Y-15455729D01*
X12868814Y-15512871D01*
X12854528Y-15541443D01*
X12840243Y-15555729D01*
X12811671Y-15570014D01*
X12783100Y-15570014D01*
X12754528Y-15555729D01*
X12740243Y-15541443D01*
X12725957Y-15512871D01*
X12711671Y-15455729D01*
X12711671Y-15384300D01*
X12725957Y-15327157D01*
X12740243Y-15298586D01*
X12754528Y-15284300D01*
X12783100Y-15270014D01*
X13011671Y-15541443D02*
X13025957Y-15555729D01*
X13011671Y-15570014D01*
X12997386Y-15555729D01*
X13011671Y-15541443D01*
X13011671Y-15570014D01*
X13311671Y-15570014D02*
X13140243Y-15570014D01*
X13225957Y-15570014D02*
X13225957Y-15270014D01*
X13197386Y-15312871D01*
X13168814Y-15341443D01*
X13140243Y-15355729D01*
X13497386Y-15270014D02*
X13525957Y-15270014D01*
X13554528Y-15284300D01*
X13568814Y-15298586D01*
X13583100Y-15327157D01*
X13597386Y-15384300D01*
X13597386Y-15455729D01*
X13583100Y-15512871D01*
X13568814Y-15541443D01*
X13554528Y-15555729D01*
X13525957Y-15570014D01*
X13497386Y-15570014D01*
X13468814Y-15555729D01*
X13454528Y-15541443D01*
X13440243Y-15512871D01*
X13425957Y-15455729D01*
X13425957Y-15384300D01*
X13440243Y-15327157D01*
X13454528Y-15298586D01*
X13468814Y-15284300D01*
X13497386Y-15270014D01*
X13854528Y-15270014D02*
X13797386Y-15270014D01*
X13768814Y-15284300D01*
X13754528Y-15298586D01*
X13725957Y-15341443D01*
X13711671Y-15398586D01*
X13711671Y-15512871D01*
X13725957Y-15541443D01*
X13740243Y-15555729D01*
X13768814Y-15570014D01*
X13825957Y-15570014D01*
X13854528Y-15555729D01*
X13868814Y-15541443D01*
X13883100Y-15512871D01*
X13883100Y-15441443D01*
X13868814Y-15412871D01*
X13854528Y-15398586D01*
X13825957Y-15384300D01*
X13768814Y-15384300D01*
X13740243Y-15398586D01*
X13725957Y-15412871D01*
X13711671Y-15441443D01*
X13997386Y-15270014D02*
X13997386Y-15327157D01*
X14111671Y-15270014D02*
X14111671Y-15327157D01*
X14554528Y-15684300D02*
X14540243Y-15670014D01*
X14511671Y-15627157D01*
X14497386Y-15598586D01*
X14483100Y-15555729D01*
X14468814Y-15484300D01*
X14468814Y-15427157D01*
X14483100Y-15355729D01*
X14497386Y-15312871D01*
X14511671Y-15284300D01*
X14540243Y-15241443D01*
X14554528Y-15227157D01*
X14797386Y-15370014D02*
X14797386Y-15570014D01*
X14725957Y-15255729D02*
X14654528Y-15470014D01*
X14840243Y-15470014D01*
X15183100Y-15570014D02*
X15183100Y-15270014D01*
X15311671Y-15570014D02*
X15311671Y-15412871D01*
X15297386Y-15384300D01*
X15268814Y-15370014D01*
X15225957Y-15370014D01*
X15197386Y-15384300D01*
X15183100Y-15398586D01*
X15497386Y-15570014D02*
X15468814Y-15555729D01*
X15454528Y-15541443D01*
X15440243Y-15512871D01*
X15440243Y-15427157D01*
X15454528Y-15398586D01*
X15468814Y-15384300D01*
X15497386Y-15370014D01*
X15540243Y-15370014D01*
X15568814Y-15384300D01*
X15583100Y-15398586D01*
X15597386Y-15427157D01*
X15597386Y-15512871D01*
X15583100Y-15541443D01*
X15568814Y-15555729D01*
X15540243Y-15570014D01*
X15497386Y-15570014D01*
X15768814Y-15570014D02*
X15740243Y-15555729D01*
X15725957Y-15527157D01*
X15725957Y-15270014D01*
X15997386Y-15555729D02*
X15968814Y-15570014D01*
X15911671Y-15570014D01*
X15883100Y-15555729D01*
X15868814Y-15527157D01*
X15868814Y-15412871D01*
X15883100Y-15384300D01*
X15911671Y-15370014D01*
X15968814Y-15370014D01*
X15997386Y-15384300D01*
X16011671Y-15412871D01*
X16011671Y-15441443D01*
X15868814Y-15470014D01*
X16125957Y-15555729D02*
X16154528Y-15570014D01*
X16211671Y-15570014D01*
X16240243Y-15555729D01*
X16254528Y-15527157D01*
X16254528Y-15512871D01*
X16240243Y-15484300D01*
X16211671Y-15470014D01*
X16168814Y-15470014D01*
X16140243Y-15455729D01*
X16125957Y-15427157D01*
X16125957Y-15412871D01*
X16140243Y-15384300D01*
X16168814Y-15370014D01*
X16211671Y-15370014D01*
X16240243Y-15384300D01*
X16354528Y-15684300D02*
X16368814Y-15670014D01*
X16397386Y-15627157D01*
X16411671Y-15598586D01*
X16425957Y-15555729D01*
X16440243Y-15484300D01*
X16440243Y-15427157D01*
X16425957Y-15355729D01*
X16411671Y-15312871D01*
X16397386Y-15284300D01*
X16368814Y-15241443D01*
X16354528Y-15227157D01*
M02*
